SplineFontDB: 3.0
FontName: Druk-Bold
FullName: Druk-Bold
FamilyName: Druk
Weight: Bold
Copyright: Copyright (c)2014 Commercial Type.
Version: 1.1 2014
ItalicAngle: 0
UnderlinePosition: -104
UnderlineWidth: 84
Ascent: 812
Descent: 188
InvalidEm: 0
sfntRevision: 0x00010042
LayerCount: 2
Layer: 0 1 "Back" 1
Layer: 1 1 "Fore" 0
XUID: [1021 585 86794571 9998]
StyleMap: 0x0040
FSType: 0
OS2Version: 3
OS2_WeightWidthSlopeOnly: 0
OS2_UseTypoMetrics: 0
CreationTime: 1398298321
ModificationTime: 1485410736
PfmFamily: 81
TTFWeight: 700
TTFWidth: 5
LineGap: 0
VLineGap: 0
Panose: 0 0 0 0 0 0 0 0 0 0
OS2TypoAscent: 812
OS2TypoAOffset: 0
OS2TypoDescent: -188
OS2TypoDOffset: 0
OS2TypoLinegap: 0
OS2WinAscent: 1054
OS2WinAOffset: 0
OS2WinDescent: 215
OS2WinDOffset: 0
HheadAscent: 812
HheadAOffset: 0
HheadDescent: -188
HheadDOffset: 0
OS2SubXSize: 650
OS2SubYSize: 600
OS2SubXOff: 0
OS2SubYOff: 140
OS2SupXSize: 650
OS2SupYSize: 650
OS2SupXOff: 0
OS2SupYOff: 477
OS2StrikeYSize: 50
OS2StrikeYPos: 225
OS2CapHeight: 744
OS2XHeight: 538
OS2Vendor: 'COMM'
OS2CodePages: 20000093.00000000
OS2UnicodeRanges: 00000007.00000000.00000000.00000000
Lookup: 6 0 0 "'locl' Localized Forms in Latin lookup 0" { "'locl' Localized Forms in Latin lookup 0 subtable"  } ['locl' ('latn' <'AZE ' 'CRT ' 'TRK ' > ) ]
Lookup: 1 0 0 "'locl' Localized Forms in Latin lookup 1" { "'locl' Localized Forms in Latin lookup 1 subtable"  } ['locl' ('latn' <'ROM ' > ) ]
Lookup: 4 0 0 "'locl' Localized Forms in Latin lookup 2" { "'locl' Localized Forms in Latin lookup 2 subtable"  } ['locl' ('latn' <'NLD ' > ) ]

StartChar: exclam
Encoding: 33 33 5
Width: 164
GlyphClass: 2
Flags: W
LayerCount: 2
Fore
SplineSet
141 0 m 1,0,-1
 22 0 l 1,1,-1
 22 144 l 1,2,-1
 141 144 l 1,3,-1
 141 0 l 1,0,-1
154 744 m 1,4,-1
 107 167 l 1,5,-1
 56 167 l 1,6,-1
 9 744 l 1,7,-1
 154 744 l 1,4,-1
EndSplineSet
Validated: 1
EndChar

StartChar: quotedbl
Encoding: 34 34 6
Width: 232
GlyphClass: 2
Flags: W
LayerCount: 2
Fore
SplineSet
106 553 m 1,0,-1
 15 553 l 1,1,-1
 15 744 l 1,2,-1
 106 744 l 1,3,-1
 106 553 l 1,0,-1
217 553 m 1,4,-1
 126 553 l 1,5,-1
 126 744 l 1,6,-1
 217 744 l 1,7,-1
 217 553 l 1,4,-1
EndSplineSet
Validated: 1
EndChar

StartChar: numbersign
Encoding: 35 35 7
Width: 372
GlyphClass: 2
Flags: W
LayerCount: 2
Fore
SplineSet
199 748 m 1,0,-1
 181 538 l 1,1,-1
 216 538 l 1,2,-1
 234 748 l 1,3,-1
 326 748 l 1,4,-1
 307 538 l 1,5,-1
 367 538 l 1,6,-1
 360 440 l 1,7,-1
 299 440 l 1,8,-1
 291 346 l 1,9,-1
 351 346 l 1,10,-1
 344 248 l 1,11,-1
 282 248 l 1,12,-1
 261 0 l 1,13,-1
 171 0 l 1,14,-1
 192 248 l 1,15,-1
 156 248 l 1,16,-1
 135 0 l 1,17,-1
 45 0 l 1,18,-1
 66 248 l 1,19,-1
 5 248 l 1,20,-1
 14 346 l 1,21,-1
 74 346 l 1,22,-1
 82 440 l 1,23,-1
 21 440 l 1,24,-1
 30 538 l 1,25,-1
 90 538 l 1,26,-1
 108 748 l 1,27,-1
 199 748 l 1,0,-1
164 346 m 1,28,-1
 200 346 l 1,29,-1
 208 440 l 1,30,-1
 172 440 l 1,31,-1
 164 346 l 1,28,-1
EndSplineSet
Validated: 1
EndChar

StartChar: dollar
Encoding: 36 36 8
Width: 356
GlyphClass: 2
Flags: W
LayerCount: 2
Fore
SplineSet
157 -11 m 1,0,1
 10 -7 10 -7 10 145 c 2,2,-1
 10 278 l 1,3,-1
 133 278 l 1,4,-1
 133 143 l 2,5,6
 133 105 133 105 157 98 c 1,7,-1
 157 307 l 1,8,-1
 83 383 l 2,9,10
 42 426 42 426 27.5 471.5 c 128,-1,11
 13 517 13 517 13 578 c 2,12,-1
 13 601 l 2,13,14
 13 640 13 640 23.5 668.5 c 128,-1,15
 34 697 34 697 53.5 715.5 c 128,-1,16
 73 734 73 734 99 743 c 128,-1,17
 125 752 125 752 157 753 c 1,18,-1
 157 812 l 1,19,-1
 192 812 l 1,20,-1
 192 753 l 1,21,22
 267 751 267 751 297.5 715 c 128,-1,23
 328 679 328 679 328 607 c 2,24,-1
 328 506 l 1,25,-1
 212 506 l 1,26,-1
 212 608 l 2,27,28
 212 623 212 623 208 632 c 128,-1,29
 204 641 204 641 192 645 c 1,30,-1
 192 457 l 1,31,-1
 258 389 l 2,32,33
 282 363 282 363 299 342.5 c 128,-1,34
 316 322 316 322 326.5 299.5 c 128,-1,35
 337 277 337 277 341.5 250 c 128,-1,36
 346 223 346 223 346 185 c 2,37,-1
 346 158 l 2,38,39
 346 80 346 80 305 35.5 c 128,-1,40
 264 -9 264 -9 192 -11 c 1,41,-1
 192 -72 l 1,42,-1
 157 -72 l 1,43,-1
 157 -11 l 1,0,1
220 181 m 2,44,45
 220 213 220 213 214 231.5 c 128,-1,46
 208 250 208 250 192 270 c 1,47,-1
 192 96 l 1,48,49
 220 105 220 105 220 152 c 2,50,-1
 220 181 l 2,44,45
136 581 m 2,51,52
 136 549 136 549 139.5 531.5 c 128,-1,53
 143 514 143 514 157 496 c 1,54,-1
 157 645 l 1,55,56
 143 641 143 641 139.5 631 c 128,-1,57
 136 621 136 621 136 607 c 2,58,-1
 136 581 l 2,51,52
EndSplineSet
Validated: 1
EndChar

StartChar: percent
Encoding: 37 37 9
Width: 494
GlyphClass: 2
Flags: W
LayerCount: 2
Fore
SplineSet
265 230 m 2,0,1
 265 284 265 284 292 311 c 128,-1,2
 319 338 319 338 364 338 c 2,3,-1
 384 338 l 2,4,5
 430 338 430 338 456 309.5 c 128,-1,6
 482 281 482 281 482 230 c 2,7,-1
 482 102 l 2,8,9
 482 51 482 51 456 23 c 128,-1,10
 430 -5 430 -5 384 -5 c 2,11,-1
 364 -5 l 2,12,13
 319 -5 319 -5 292 21.5 c 128,-1,14
 265 48 265 48 265 102 c 2,15,-1
 265 230 l 2,0,1
12 643 m 2,16,17
 12 697 12 697 39 723.5 c 128,-1,18
 66 750 66 750 111 750 c 2,19,-1
 131 750 l 2,20,21
 177 750 177 750 203 722 c 128,-1,22
 229 694 229 694 229 643 c 2,23,-1
 229 515 l 2,24,25
 229 464 229 464 203 435.5 c 128,-1,26
 177 407 177 407 131 407 c 2,27,-1
 111 407 l 2,28,29
 66 407 66 407 39 434 c 128,-1,30
 12 461 12 461 12 515 c 2,31,-1
 12 643 l 2,16,17
429 744 m 1,32,-1
 150 0 l 1,33,-1
 67 0 l 1,34,-1
 346 744 l 1,35,-1
 429 744 l 1,32,-1
137 651 m 2,36,37
 137 659 137 659 133.5 665 c 128,-1,38
 130 671 130 671 120 671 c 0,39,40
 111 671 111 671 107.5 665 c 128,-1,41
 104 659 104 659 104 651 c 2,42,-1
 104 508 l 2,43,44
 104 488 104 488 120 488 c 0,45,46
 137 488 137 488 137 508 c 2,47,-1
 137 651 l 2,36,37
373 75 m 0,48,49
 383 75 383 75 386.5 81 c 128,-1,50
 390 87 390 87 390 95 c 2,51,-1
 390 238 l 2,52,53
 390 258 390 258 373 258 c 0,54,55
 357 258 357 258 357 238 c 2,56,-1
 357 95 l 2,57,58
 357 87 357 87 360.5 81 c 128,-1,59
 364 75 364 75 373 75 c 0,48,49
EndSplineSet
Validated: 1
EndChar

StartChar: ampersand
Encoding: 38 38 10
Width: 453
GlyphClass: 2
Flags: W
LayerCount: 2
Fore
SplineSet
12 230 m 2,0,1
 12 298 12 298 38 342 c 128,-1,2
 64 386 64 386 108 419 c 1,3,4
 97 443 97 443 89 463.5 c 128,-1,5
 81 484 81 484 75.5 504.5 c 128,-1,6
 70 525 70 525 67 546 c 128,-1,7
 64 567 64 567 64 591 c 2,8,-1
 64 619 l 2,9,10
 64 641 64 641 69.5 664.5 c 128,-1,11
 75 688 75 688 89.5 707.5 c 128,-1,12
 104 727 104 727 128.5 740 c 128,-1,13
 153 753 153 753 192 753 c 2,14,-1
 214 753 l 2,15,16
 250 753 250 753 274 743.5 c 128,-1,17
 298 734 298 734 312 716 c 128,-1,18
 326 698 326 698 332 673.5 c 128,-1,19
 338 649 338 649 338 619 c 2,20,-1
 338 606 l 2,21,22
 338 576 338 576 333.5 552 c 128,-1,23
 329 528 329 528 318 506.5 c 128,-1,24
 307 485 307 485 287 464 c 128,-1,25
 267 443 267 443 237 418 c 1,26,-1
 319 238 l 1,27,28
 325 286 325 286 325 340 c 128,-1,29
 325 394 325 394 325 445 c 1,30,-1
 437 445 l 1,31,32
 435 336 435 336 425.5 257.5 c 128,-1,33
 416 179 416 179 391 116 c 1,34,35
 405 105 405 105 420 100 c 128,-1,36
 435 95 435 95 452 92 c 1,37,38
 448 79 448 79 445 66.5 c 128,-1,39
 442 54 442 54 440 43 c 0,40,41
 435 23 435 23 430.5 5 c 128,-1,42
 426 -13 426 -13 424 -18 c 1,43,44
 389 -13 389 -13 363.5 -4 c 128,-1,45
 338 5 338 5 318 22 c 1,46,47
 303 8 303 8 278.5 -1.5 c 128,-1,48
 254 -11 254 -11 217 -11 c 2,49,-1
 204 -11 l 2,50,51
 113 -11 113 -11 62.5 41.5 c 128,-1,52
 12 94 12 94 12 194 c 2,53,-1
 12 230 l 2,0,1
225 99 m 0,54,55
 247 99 247 99 260 106 c 1,56,-1
 150 331 l 1,57,58
 145 317 145 317 141 298 c 128,-1,59
 137 279 137 279 137 255 c 2,60,-1
 137 229 l 2,61,62
 137 160 137 160 160 129.5 c 128,-1,63
 183 99 183 99 225 99 c 0,54,55
178 596 m 2,64,65
 178 582 178 582 179 570.5 c 128,-1,66
 180 559 180 559 183 548 c 128,-1,67
 186 537 186 537 190.5 524.5 c 128,-1,68
 195 512 195 512 202 496 c 1,69,70
 219 520 219 520 224 540.5 c 128,-1,71
 229 561 229 561 229 597 c 2,72,-1
 229 612 l 2,73,74
 229 637 229 637 224 646 c 128,-1,75
 219 655 219 655 204 655 c 256,76,77
 189 655 189 655 183.5 645.5 c 128,-1,78
 178 636 178 636 178 612 c 2,79,-1
 178 596 l 2,64,65
EndSplineSet
Validated: 1
EndChar

StartChar: quotesingle
Encoding: 39 39 11
Width: 123
GlyphClass: 2
Flags: W
LayerCount: 2
Fore
SplineSet
108 553 m 1,0,-1
 15 553 l 1,1,-1
 15 744 l 1,2,-1
 108 744 l 1,3,-1
 108 553 l 1,0,-1
EndSplineSet
Validated: 1
EndChar

StartChar: parenleft
Encoding: 40 40 12
Width: 214
GlyphClass: 2
Flags: W
LayerCount: 2
Fore
SplineSet
27 344 m 0,0,1
 27 423 27 423 36 490 c 128,-1,2
 45 557 45 557 60.5 614 c 128,-1,3
 76 671 76 671 95.5 719 c 128,-1,4
 115 767 115 767 136 808 c 1,5,-1
 214 808 l 1,6,7
 200 770 200 770 187.5 720.5 c 128,-1,8
 175 671 175 671 165 612 c 128,-1,9
 155 553 155 553 149.5 486 c 128,-1,10
 144 419 144 419 144 347 c 0,11,12
 144 199 144 199 166.5 76 c 128,-1,13
 189 -47 189 -47 217 -131 c 1,14,-1
 139 -131 l 1,15,16
 119 -94 119 -94 99 -45 c 128,-1,17
 79 4 79 4 63 63.5 c 128,-1,18
 47 123 47 123 37 193 c 128,-1,19
 27 263 27 263 27 344 c 0,0,1
EndSplineSet
Validated: 1
Substitution2: "'case' Case-Sensitive Forms in Latin lookup 25 subtable" parenleft.uc
EndChar

StartChar: parenright
Encoding: 41 41 13
Width: 214
GlyphClass: 2
Flags: W
LayerCount: 2
Fore
SplineSet
70 347 m 0,0,1
 70 419 70 419 64.5 485.5 c 128,-1,2
 59 552 59 552 49 611.5 c 128,-1,3
 39 671 39 671 26.5 720.5 c 128,-1,4
 14 770 14 770 0 808 c 1,5,-1
 77 808 l 1,6,7
 98 767 98 767 118 718.5 c 128,-1,8
 138 670 138 670 153 613 c 128,-1,9
 168 556 168 556 177.5 489.5 c 128,-1,10
 187 423 187 423 187 344 c 0,11,12
 187 264 187 264 177 194 c 128,-1,13
 167 124 167 124 150.5 64.5 c 128,-1,14
 134 5 134 5 114 -44 c 128,-1,15
 94 -93 94 -93 74 -131 c 1,16,-1
 -3 -131 l 1,17,18
 10 -89 10 -89 23 -37 c 128,-1,19
 36 15 36 15 46.5 75.5 c 128,-1,20
 57 136 57 136 63.5 204.5 c 128,-1,21
 70 273 70 273 70 347 c 0,0,1
EndSplineSet
Validated: 1
Substitution2: "'case' Case-Sensitive Forms in Latin lookup 25 subtable" parenright.uc
EndChar

StartChar: asterisk
Encoding: 42 42 14
Width: 237
GlyphClass: 2
Flags: W
LayerCount: 2
Fore
SplineSet
196 718 m 1,0,-1
 232 657 l 1,1,-1
 171 632 l 1,2,-1
 231 605 l 1,3,-1
 197 546 l 1,4,-1
 146 587 l 1,5,-1
 154 521 l 1,6,-1
 82 521 l 1,7,-1
 91 587 l 1,8,-1
 41 546 l 1,9,-1
 5 607 l 1,10,-1
 65 632 l 1,11,-1
 4 657 l 1,12,-1
 40 718 l 1,13,-1
 90 678 l 1,14,-1
 82 744 l 1,15,-1
 154 744 l 1,16,-1
 146 678 l 1,17,-1
 196 718 l 1,0,-1
EndSplineSet
Validated: 1
EndChar

StartChar: plus
Encoding: 43 43 15
Width: 344
GlyphClass: 2
Flags: W
LayerCount: 2
Fore
SplineSet
123 255 m 1,0,-1
 15 255 l 1,1,-1
 15 346 l 1,2,-1
 123 346 l 1,3,-1
 123 468 l 1,4,-1
 221 468 l 1,5,-1
 221 346 l 1,6,-1
 329 346 l 1,7,-1
 329 255 l 1,8,-1
 221 255 l 1,9,-1
 221 134 l 1,10,-1
 123 134 l 1,11,-1
 123 255 l 1,0,-1
EndSplineSet
Validated: 1
Substitution2: "'case' Case-Sensitive Forms in Latin lookup 25 subtable" plus.uc
EndChar

StartChar: comma
Encoding: 44 44 16
Width: 149
GlyphClass: 2
Flags: W
LayerCount: 2
Fore
SplineSet
36 -95 m 1,0,1
 43 -79 43 -79 51.5 -52.5 c 128,-1,2
 60 -26 60 -26 61 0 c 1,3,-1
 15 0 l 1,4,-1
 15 144 l 1,5,-1
 134 144 l 1,6,-1
 134 38 l 2,7,8
 134 -10 134 -10 123 -43 c 128,-1,9
 112 -76 112 -76 103 -95 c 1,10,-1
 36 -95 l 1,0,1
EndSplineSet
Validated: 1
EndChar

StartChar: hyphen
Encoding: 45 45 17
Width: 183
GlyphClass: 2
Flags: W
LayerCount: 2
Fore
SplineSet
168 359 m 1,0,-1
 168 238 l 1,1,-1
 15 238 l 1,2,-1
 15 359 l 1,3,-1
 168 359 l 1,0,-1
EndSplineSet
Validated: 1
Substitution2: "'case' Case-Sensitive Forms in Latin lookup 25 subtable" hyphen.uc
EndChar

StartChar: period
Encoding: 46 46 18
Width: 149
GlyphClass: 2
Flags: W
LayerCount: 2
Fore
SplineSet
134 0 m 1,0,-1
 15 0 l 1,1,-1
 15 144 l 1,2,-1
 134 144 l 1,3,-1
 134 0 l 1,0,-1
EndSplineSet
Validated: 1
EndChar

StartChar: slash
Encoding: 47 47 19
Width: 219
GlyphClass: 2
Flags: W
LayerCount: 2
Fore
SplineSet
87 -131 m 1,0,-1
 -8 -131 l 1,1,-1
 123 808 l 1,2,-1
 217 808 l 1,3,-1
 87 -131 l 1,0,-1
EndSplineSet
Validated: 1
Substitution2: "Single Substitution lookup 32 subtable" fraction
Substitution2: "'case' Case-Sensitive Forms in Latin lookup 25 subtable" slash.uc
EndChar

StartChar: zero
Encoding: 48 48 20
Width: 374
GlyphClass: 2
Flags: W
LayerCount: 2
Fore
SplineSet
356 165 m 2,0,1
 356 84 356 84 315.5 36.5 c 128,-1,2
 275 -11 275 -11 200 -11 c 2,3,-1
 170 -11 l 2,4,5
 92 -11 92 -11 55 36.5 c 128,-1,6
 18 84 18 84 18 165 c 2,7,-1
 18 563 l 2,8,9
 18 605 18 605 26.5 640 c 128,-1,10
 35 675 35 675 53 700 c 128,-1,11
 71 725 71 725 100 739 c 128,-1,12
 129 753 129 753 171 753 c 2,13,-1
 201 753 l 2,14,15
 244 753 244 753 273.5 739 c 128,-1,16
 303 725 303 725 321.5 700.5 c 128,-1,17
 340 676 340 676 348 641 c 128,-1,18
 356 606 356 606 356 564 c 2,19,-1
 356 165 l 2,0,1
216 577 m 2,20,21
 216 600 216 600 210 611.5 c 128,-1,22
 204 623 204 623 186 623 c 0,23,24
 169 623 169 623 162.5 611.5 c 128,-1,25
 156 600 156 600 156 577 c 2,26,-1
 156 165 l 2,27,28
 156 148 156 148 161.5 135 c 128,-1,29
 167 122 167 122 185 122 c 0,30,31
 204 122 204 122 210 133.5 c 128,-1,32
 216 145 216 145 216 165 c 2,33,-1
 216 577 l 2,20,21
EndSplineSet
Validated: 1
Substitution2: "Single Substitution lookup 33 subtable" zero.den
Substitution2: "Single Substitution lookup 32 subtable" zero.num
Substitution2: "'sups' Superscript in Latin lookup 20 subtable" zero.sup
Substitution2: "'sinf' Scientific Inferiors in Latin lookup 19 subtable" zero.sub
Substitution2: "'numr' Numerators in Latin lookup 18 subtable" zero.num
Substitution2: "'dnom' Denominators in Latin lookup 17 subtable" zero.den
EndChar

StartChar: one
Encoding: 49 49 21
Width: 243
GlyphClass: 2
Flags: W
LayerCount: 2
Fore
SplineSet
9 547 m 1,0,-1
 9 661 l 1,1,2
 38 661 38 661 56.5 667.5 c 128,-1,3
 75 674 75 674 86 685 c 128,-1,4
 97 696 97 696 102 711.5 c 128,-1,5
 107 727 107 727 109 744 c 1,6,-1
 220 744 l 1,7,-1
 220 0 l 1,8,-1
 87 0 l 1,9,-1
 87 547 l 1,10,-1
 9 547 l 1,0,-1
EndSplineSet
Validated: 1
Substitution2: "Single Substitution lookup 33 subtable" one.den
Substitution2: "Single Substitution lookup 32 subtable" one.num
Substitution2: "'sups' Superscript in Latin lookup 20 subtable" one.sup
Substitution2: "'sinf' Scientific Inferiors in Latin lookup 19 subtable" one.sub
Substitution2: "'numr' Numerators in Latin lookup 18 subtable" one.num
Substitution2: "'dnom' Denominators in Latin lookup 17 subtable" one.den
EndChar

StartChar: two
Encoding: 50 50 22
Width: 363
GlyphClass: 2
Flags: W
LayerCount: 2
Fore
SplineSet
177 632 m 0,0,1
 163 632 163 632 157.5 624 c 128,-1,2
 152 616 152 616 152 598 c 2,3,-1
 152 483 l 1,4,-1
 27 483 l 1,5,-1
 27 614 l 2,6,7
 27 640 27 640 34 665 c 128,-1,8
 41 690 41 690 57 709.5 c 128,-1,9
 73 729 73 729 99 741 c 128,-1,10
 125 753 125 753 163 753 c 2,11,-1
 190 753 l 2,12,13
 262 753 262 753 301.5 717.5 c 128,-1,14
 341 682 341 682 341 610 c 2,15,-1
 341 568 l 2,16,17
 341 538 341 538 339.5 514 c 128,-1,18
 338 490 338 490 332 467.5 c 128,-1,19
 326 445 326 445 313 421 c 128,-1,20
 300 397 300 397 276 366 c 0,21,22
 259 343 259 343 240 318.5 c 128,-1,23
 221 294 221 294 203 271 c 0,24,25
 171 229 171 229 155 204 c 128,-1,26
 139 179 139 179 132 164 c 128,-1,27
 125 149 125 149 125 142 c 128,-1,28
 125 135 125 135 125 129 c 1,29,-1
 218 129 l 1,30,-1
 218 256 l 1,31,-1
 348 256 l 1,32,-1
 348 0 l 1,33,-1
 11 0 l 1,34,-1
 11 76 l 2,35,36
 11 110 11 110 14 136.5 c 128,-1,37
 17 163 17 163 26 191.5 c 128,-1,38
 35 220 35 220 53 254.5 c 128,-1,39
 71 289 71 289 101 339 c 2,40,-1
 165 445 l 2,41,42
 178 467 178 467 185.5 483 c 128,-1,43
 193 499 193 499 196.5 511 c 128,-1,44
 200 523 200 523 201 533 c 128,-1,45
 202 543 202 543 202 553 c 2,46,-1
 202 598 l 2,47,48
 202 632 202 632 177 632 c 0,0,1
EndSplineSet
Validated: 1
Substitution2: "Single Substitution lookup 33 subtable" two.den
Substitution2: "Single Substitution lookup 32 subtable" two.num
Substitution2: "'sups' Superscript in Latin lookup 20 subtable" two.sup
Substitution2: "'sinf' Scientific Inferiors in Latin lookup 19 subtable" two.sub
Substitution2: "'numr' Numerators in Latin lookup 18 subtable" two.num
Substitution2: "'dnom' Denominators in Latin lookup 17 subtable" two.den
EndChar

StartChar: three
Encoding: 51 51 23
Width: 350
GlyphClass: 2
Flags: W
LayerCount: 2
Fore
SplineSet
21 515 m 1,0,-1
 21 611 l 2,1,2
 21 636 21 636 27.5 661.5 c 128,-1,3
 34 687 34 687 49.5 707.5 c 128,-1,4
 65 728 65 728 90 740.5 c 128,-1,5
 115 753 115 753 153 753 c 2,6,-1
 181 753 l 2,7,8
 257 753 257 753 292 713.5 c 128,-1,9
 327 674 327 674 327 610 c 2,10,-1
 327 527 l 2,11,12
 327 473 327 473 312 448.5 c 128,-1,13
 297 424 297 424 279 414 c 1,14,15
 334 396 334 396 334 329 c 2,16,-1
 334 143 l 2,17,18
 334 71 334 71 294.5 30 c 128,-1,19
 255 -11 255 -11 186 -11 c 2,20,-1
 158 -11 l 2,21,22
 117 -11 117 -11 89 0.5 c 128,-1,23
 61 12 61 12 44 30.5 c 128,-1,24
 27 49 27 49 20 73 c 128,-1,25
 13 97 13 97 13 123 c 2,26,-1
 13 273 l 1,27,-1
 143 273 l 1,28,-1
 143 155 l 2,29,30
 143 120 143 120 171 120 c 0,31,32
 198 120 198 120 198 155 c 2,33,-1
 198 300 l 2,34,35
 198 316 198 316 194 323 c 128,-1,36
 190 330 190 330 173 330 c 2,37,-1
 104 330 l 1,38,-1
 104 463 l 1,39,-1
 166 463 l 2,40,41
 183 463 183 463 188.5 470.5 c 128,-1,42
 194 478 194 478 194 496 c 2,43,-1
 194 598 l 2,44,45
 194 618 194 618 188 625 c 128,-1,46
 182 632 182 632 168 632 c 0,47,48
 155 632 155 632 149 625 c 128,-1,49
 143 618 143 618 143 598 c 2,50,-1
 143 515 l 1,51,-1
 21 515 l 1,0,-1
EndSplineSet
Validated: 1
Substitution2: "Single Substitution lookup 33 subtable" three.den
Substitution2: "Single Substitution lookup 32 subtable" three.num
Substitution2: "'sups' Superscript in Latin lookup 20 subtable" three.sup
Substitution2: "'sinf' Scientific Inferiors in Latin lookup 19 subtable" three.sub
Substitution2: "'numr' Numerators in Latin lookup 18 subtable" three.num
Substitution2: "'dnom' Denominators in Latin lookup 17 subtable" three.den
EndChar

StartChar: four
Encoding: 52 52 24
Width: 367
GlyphClass: 2
Flags: W
LayerCount: 2
Fore
SplineSet
161 474 m 1,0,1
 155 456 155 456 147.5 433 c 128,-1,2
 140 410 140 410 132 386 c 128,-1,3
 124 362 124 362 116 338 c 128,-1,4
 108 314 108 314 100 293 c 1,5,-1
 161 293 l 1,6,-1
 161 474 l 1,0,1
7 279 m 1,7,8
 22 320 22 320 45 383 c 128,-1,9
 68 446 68 446 92 514 c 128,-1,10
 116 582 116 582 138 645 c 128,-1,11
 160 708 160 708 174 749 c 1,12,-1
 291 749 l 1,13,-1
 291 293 l 1,14,-1
 360 293 l 1,15,-1
 360 166 l 1,16,-1
 291 166 l 1,17,-1
 291 0 l 1,18,-1
 161 0 l 1,19,-1
 161 166 l 1,20,-1
 7 166 l 1,21,-1
 7 279 l 1,7,8
EndSplineSet
Validated: 1
Substitution2: "Single Substitution lookup 33 subtable" four.den
Substitution2: "Single Substitution lookup 32 subtable" four.num
Substitution2: "'sups' Superscript in Latin lookup 20 subtable" four.sup
Substitution2: "'sinf' Scientific Inferiors in Latin lookup 19 subtable" four.sub
Substitution2: "'numr' Numerators in Latin lookup 18 subtable" four.num
Substitution2: "'dnom' Denominators in Latin lookup 17 subtable" four.den
EndChar

StartChar: five
Encoding: 53 53 25
Width: 353
GlyphClass: 2
Flags: W
LayerCount: 2
Fore
SplineSet
22 331 m 1,0,-1
 22 744 l 1,1,-1
 327 744 l 1,2,-1
 327 615 l 1,3,-1
 150 615 l 1,4,-1
 150 468 l 1,5,6
 165 494 165 494 187.5 516 c 128,-1,7
 210 538 210 538 241 538 c 2,8,-1
 253 538 l 2,9,10
 276 538 276 538 292 529.5 c 128,-1,11
 308 521 308 521 317.5 507 c 128,-1,12
 327 493 327 493 331.5 475.5 c 128,-1,13
 336 458 336 458 336 441 c 2,14,-1
 336 134 l 2,15,16
 336 106 336 106 327.5 80 c 128,-1,17
 319 54 319 54 302 33.5 c 128,-1,18
 285 13 285 13 258.5 1 c 128,-1,19
 232 -11 232 -11 195 -11 c 2,20,-1
 155 -11 l 2,21,22
 113 -11 113 -11 86 1.5 c 128,-1,23
 59 14 59 14 43 33.5 c 128,-1,24
 27 53 27 53 20.5 76.5 c 128,-1,25
 14 100 14 100 14 121 c 2,26,-1
 14 273 l 1,27,-1
 147 273 l 1,28,-1
 147 150 l 2,29,30
 147 134 147 134 152 124.5 c 128,-1,31
 157 115 157 115 172 115 c 0,32,33
 186 115 186 115 191.5 125 c 128,-1,34
 197 135 197 135 197 150 c 2,35,-1
 197 375 l 2,36,37
 197 389 197 389 194 400.5 c 128,-1,38
 191 412 191 412 174 412 c 0,39,40
 159 412 159 412 156 400 c 128,-1,41
 153 388 153 388 153 376 c 2,42,-1
 153 331 l 1,43,-1
 22 331 l 1,0,-1
EndSplineSet
Validated: 1
Substitution2: "Single Substitution lookup 33 subtable" five.den
Substitution2: "Single Substitution lookup 32 subtable" five.num
Substitution2: "'sups' Superscript in Latin lookup 20 subtable" five.sup
Substitution2: "'sinf' Scientific Inferiors in Latin lookup 19 subtable" five.sub
Substitution2: "'numr' Numerators in Latin lookup 18 subtable" five.num
Substitution2: "'dnom' Denominators in Latin lookup 17 subtable" five.den
EndChar

StartChar: six
Encoding: 54 54 26
Width: 372
GlyphClass: 2
Flags: W
LayerCount: 2
Fore
SplineSet
266 479 m 2,0,1
 290 479 290 479 307.5 470 c 128,-1,2
 325 461 325 461 335.5 447.5 c 128,-1,3
 346 434 346 434 351 417 c 128,-1,4
 356 400 356 400 356 385 c 2,5,-1
 356 139 l 2,6,7
 356 111 356 111 346.5 84.5 c 128,-1,8
 337 58 337 58 317.5 37 c 128,-1,9
 298 16 298 16 269.5 3 c 128,-1,10
 241 -10 241 -10 204 -10 c 2,11,-1
 174 -10 l 2,12,13
 134 -10 134 -10 104.5 1.5 c 128,-1,14
 75 13 75 13 56 33 c 128,-1,15
 37 53 37 53 27.5 79.5 c 128,-1,16
 18 106 18 106 18 135 c 2,17,-1
 18 596 l 2,18,19
 18 666 18 666 55 710 c 128,-1,20
 92 754 92 754 172 754 c 2,21,-1
 200 754 l 2,22,23
 236 754 236 754 262.5 744 c 128,-1,24
 289 734 289 734 306.5 716.5 c 128,-1,25
 324 699 324 699 333 677 c 128,-1,26
 342 655 342 655 342 631 c 2,27,-1
 342 519 l 1,28,-1
 205 519 l 1,29,-1
 205 602 l 2,30,31
 205 616 205 616 200.5 623.5 c 128,-1,32
 196 631 196 631 181 631 c 0,33,34
 167 631 167 631 161.5 622 c 128,-1,35
 156 613 156 613 156 602 c 2,36,-1
 156 413 l 1,37,38
 163 421 163 421 172.5 432.5 c 128,-1,39
 182 444 182 444 195 454.5 c 128,-1,40
 208 465 208 465 223.5 472 c 128,-1,41
 239 479 239 479 258 479 c 2,42,-1
 266 479 l 2,0,1
187 116 m 256,43,44
 207 116 207 116 212 128.5 c 128,-1,45
 217 141 217 141 217 155 c 2,46,-1
 217 326 l 2,47,48
 217 346 217 346 210 354.5 c 128,-1,49
 203 363 203 363 187 363 c 0,50,51
 156 363 156 363 156 327 c 2,52,-1
 156 155 l 2,53,54
 156 140 156 140 161.5 128 c 128,-1,55
 167 116 167 116 187 116 c 256,43,44
EndSplineSet
Validated: 1
Substitution2: "Single Substitution lookup 33 subtable" six.den
Substitution2: "Single Substitution lookup 32 subtable" six.num
Substitution2: "'sups' Superscript in Latin lookup 20 subtable" six.sup
Substitution2: "'sinf' Scientific Inferiors in Latin lookup 19 subtable" six.sub
Substitution2: "'numr' Numerators in Latin lookup 18 subtable" six.num
Substitution2: "'dnom' Denominators in Latin lookup 17 subtable" six.den
EndChar

StartChar: seven
Encoding: 55 55 27
Width: 329
GlyphClass: 2
Flags: W
LayerCount: 2
Fore
SplineSet
319 744 m 1,0,-1
 319 624 l 2,1,2
 316 605 316 605 314 592 c 128,-1,3
 312 579 312 579 309.5 566.5 c 128,-1,4
 307 554 307 554 304.5 539.5 c 128,-1,5
 302 525 302 525 298 504.5 c 128,-1,6
 294 484 294 484 288.5 454.5 c 128,-1,7
 283 425 283 425 275 382 c 0,8,9
 258 285 258 285 250.5 208.5 c 128,-1,10
 243 132 243 132 243 89 c 2,11,-1
 243 0 l 1,12,-1
 83 0 l 1,13,-1
 83 76 l 2,14,15
 83 98 83 98 85 122.5 c 128,-1,16
 87 147 87 147 93 178 c 128,-1,17
 99 209 99 209 109.5 249 c 128,-1,18
 120 289 120 289 137 341 c 0,19,20
 164 423 164 423 179.5 473 c 128,-1,21
 195 523 195 523 202.5 553 c 128,-1,22
 210 583 210 583 212 598 c 128,-1,23
 214 613 214 613 214 624 c 1,24,-1
 135 624 l 1,25,-1
 135 515 l 1,26,-1
 13 515 l 1,27,-1
 13 744 l 1,28,-1
 319 744 l 1,0,-1
EndSplineSet
Validated: 1
Substitution2: "Single Substitution lookup 33 subtable" seven.den
Substitution2: "Single Substitution lookup 32 subtable" seven.num
Substitution2: "'sups' Superscript in Latin lookup 20 subtable" seven.sup
Substitution2: "'sinf' Scientific Inferiors in Latin lookup 19 subtable" seven.sub
Substitution2: "'numr' Numerators in Latin lookup 18 subtable" seven.num
Substitution2: "'dnom' Denominators in Latin lookup 17 subtable" seven.den
EndChar

StartChar: eight
Encoding: 56 56 28
Width: 363
GlyphClass: 2
Flags: W
LayerCount: 2
Fore
SplineSet
340 505 m 2,0,1
 340 466 340 466 323.5 441.5 c 128,-1,2
 307 417 307 417 288 406 c 1,3,4
 315 393 315 393 331 367 c 128,-1,5
 347 341 347 341 347 301 c 2,6,-1
 347 143 l 2,7,8
 347 76 347 76 310 33 c 128,-1,9
 273 -10 273 -10 195 -11 c 2,10,-1
 167 -11 l 2,11,12
 89 -11 89 -11 52.5 30 c 128,-1,13
 16 71 16 71 16 144 c 2,14,-1
 16 301 l 2,15,16
 16 340 16 340 31.5 365.5 c 128,-1,17
 47 391 47 391 75 406 c 1,18,19
 54 417 54 417 38.5 441.5 c 128,-1,20
 23 466 23 466 23 505 c 2,21,-1
 23 614 l 2,22,23
 23 640 23 640 30.5 665 c 128,-1,24
 38 690 38 690 55 709.5 c 128,-1,25
 72 729 72 729 99.5 741 c 128,-1,26
 127 753 127 753 168 753 c 2,27,-1
 191 753 l 2,28,29
 230 753 230 753 258 742 c 128,-1,30
 286 731 286 731 304.5 712 c 128,-1,31
 323 693 323 693 331.5 667.5 c 128,-1,32
 340 642 340 642 340 612 c 2,33,-1
 340 505 l 2,0,1
209 295 m 2,34,35
 209 313 209 313 203 322.5 c 128,-1,36
 197 332 197 332 181 332 c 0,37,38
 166 332 166 332 160 323.5 c 128,-1,39
 154 315 154 315 154 295 c 2,40,-1
 154 149 l 2,41,42
 154 135 154 135 160.5 125.5 c 128,-1,43
 167 116 167 116 181 116 c 0,44,45
 209 116 209 116 209 149 c 2,46,-1
 209 295 l 2,34,35
207 604 m 2,47,48
 207 636 207 636 181 636 c 0,49,50
 167 636 167 636 161.5 627 c 128,-1,51
 156 618 156 618 156 604 c 2,52,-1
 156 487 l 2,53,54
 156 473 156 473 162 464 c 128,-1,55
 168 455 168 455 182 455 c 0,56,57
 207 455 207 455 207 486 c 2,58,-1
 207 604 l 2,47,48
EndSplineSet
Validated: 1
Substitution2: "Single Substitution lookup 33 subtable" eight.den
Substitution2: "Single Substitution lookup 32 subtable" eight.num
Substitution2: "'sups' Superscript in Latin lookup 20 subtable" eight.sup
Substitution2: "'sinf' Scientific Inferiors in Latin lookup 19 subtable" eight.sub
Substitution2: "'numr' Numerators in Latin lookup 18 subtable" eight.num
Substitution2: "'dnom' Denominators in Latin lookup 17 subtable" eight.den
EndChar

StartChar: nine
Encoding: 57 57 29
Width: 372
GlyphClass: 2
Flags: W
LayerCount: 2
Fore
SplineSet
109 263 m 2,0,1
 85 263 85 263 67 273 c 128,-1,2
 49 283 49 283 38 299.5 c 128,-1,3
 27 316 27 316 21.5 336 c 128,-1,4
 16 356 16 356 16 376 c 2,5,-1
 16 608 l 2,6,7
 16 634 16 634 24 660 c 128,-1,8
 32 686 32 686 49.5 706.5 c 128,-1,9
 67 727 67 727 95 740 c 128,-1,10
 123 753 123 753 163 753 c 2,11,-1
 193 753 l 2,12,13
 235 753 235 753 265.5 741.5 c 128,-1,14
 296 730 296 730 315.5 710.5 c 128,-1,15
 335 691 335 691 344.5 665 c 128,-1,16
 354 639 354 639 354 611 c 2,17,-1
 354 131 l 2,18,19
 354 102 354 102 345.5 76 c 128,-1,20
 337 50 337 50 319 30.5 c 128,-1,21
 301 11 301 11 273 0 c 128,-1,22
 245 -11 245 -11 206 -11 c 2,23,-1
 176 -11 l 2,24,25
 97 -11 97 -11 63.5 22 c 128,-1,26
 30 55 30 55 30 105 c 2,27,-1
 30 223 l 1,28,-1
 167 223 l 1,29,-1
 167 140 l 2,30,31
 167 127 167 127 171.5 119 c 128,-1,32
 176 111 176 111 192 111 c 0,33,34
 206 111 206 111 210.5 120 c 128,-1,35
 215 129 215 129 215 140 c 2,36,-1
 215 329 l 1,37,38
 209 321 209 321 199.5 309.5 c 128,-1,39
 190 298 190 298 177.5 287.5 c 128,-1,40
 165 277 165 277 150 270 c 128,-1,41
 135 263 135 263 117 263 c 2,42,-1
 109 263 l 2,0,1
184 627 m 0,43,44
 164 627 164 627 159 614 c 128,-1,45
 154 601 154 601 154 587 c 2,46,-1
 154 416 l 2,47,48
 154 378 154 378 184 378 c 0,49,50
 215 378 215 378 215 415 c 2,51,-1
 215 587 l 2,52,53
 215 603 215 603 210 615 c 128,-1,54
 205 627 205 627 184 627 c 0,43,44
EndSplineSet
Validated: 1
Substitution2: "Single Substitution lookup 33 subtable" nine.den
Substitution2: "Single Substitution lookup 32 subtable" nine.num
Substitution2: "'sups' Superscript in Latin lookup 20 subtable" nine.sup
Substitution2: "'sinf' Scientific Inferiors in Latin lookup 19 subtable" nine.sub
Substitution2: "'numr' Numerators in Latin lookup 18 subtable" nine.num
Substitution2: "'dnom' Denominators in Latin lookup 17 subtable" nine.den
EndChar

StartChar: colon
Encoding: 58 58 30
Width: 153
GlyphClass: 2
Flags: W
LayerCount: 2
Fore
SplineSet
136 0 m 1,0,-1
 17 0 l 1,1,-1
 17 144 l 1,2,-1
 136 144 l 1,3,-1
 136 0 l 1,0,-1
136 295 m 1,4,-1
 17 295 l 1,5,-1
 17 437 l 1,6,-1
 136 437 l 1,7,-1
 136 295 l 1,4,-1
EndSplineSet
Validated: 1
EndChar

StartChar: semicolon
Encoding: 59 59 31
Width: 153
GlyphClass: 2
Flags: W
LayerCount: 2
Fore
SplineSet
38 -96 m 1,0,1
 45 -80 45 -80 53.5 -53 c 128,-1,2
 62 -26 62 -26 63 0 c 1,3,-1
 17 0 l 1,4,-1
 17 144 l 1,5,-1
 136 144 l 1,6,-1
 136 38 l 2,7,8
 136 -10 136 -10 125 -43.5 c 128,-1,9
 114 -77 114 -77 105 -96 c 1,10,-1
 38 -96 l 1,0,1
136 295 m 1,11,-1
 17 295 l 1,12,-1
 17 437 l 1,13,-1
 136 437 l 1,14,-1
 136 295 l 1,11,-1
EndSplineSet
Validated: 1
EndChar

StartChar: less
Encoding: 60 60 32
Width: 290
GlyphClass: 2
Flags: W
LayerCount: 2
Fore
SplineSet
12 344 m 1,0,-1
 275 449 l 1,1,-1
 275 355 l 1,2,-1
 120 300 l 1,3,-1
 275 247 l 1,4,-1
 275 152 l 1,5,-1
 12 257 l 1,6,-1
 12 344 l 1,0,-1
EndSplineSet
Validated: 1
Substitution2: "'case' Case-Sensitive Forms in Latin lookup 25 subtable" less.uc
EndChar

StartChar: equal
Encoding: 61 61 33
Width: 335
GlyphClass: 2
Flags: W
LayerCount: 2
Fore
SplineSet
318 287 m 1,0,-1
 318 204 l 1,1,-1
 17 204 l 1,2,-1
 17 287 l 1,3,-1
 318 287 l 1,0,-1
318 398 m 1,4,-1
 318 314 l 1,5,-1
 17 314 l 1,6,-1
 17 398 l 1,7,-1
 318 398 l 1,4,-1
EndSplineSet
Validated: 1
Substitution2: "'case' Case-Sensitive Forms in Latin lookup 25 subtable" equal.uc
EndChar

StartChar: greater
Encoding: 62 62 34
Width: 289
GlyphClass: 2
Flags: W
LayerCount: 2
Fore
SplineSet
15 449 m 1,0,-1
 277 344 l 1,1,-1
 277 257 l 1,2,-1
 15 152 l 1,3,-1
 15 247 l 1,4,-1
 169 301 l 1,5,-1
 15 355 l 1,6,-1
 15 449 l 1,0,-1
EndSplineSet
Validated: 1
Substitution2: "'case' Case-Sensitive Forms in Latin lookup 25 subtable" greater.uc
EndChar

StartChar: question
Encoding: 63 63 35
Width: 333
GlyphClass: 2
Flags: W
LayerCount: 2
Fore
SplineSet
97 167 m 1,0,-1
 97 295 l 2,1,2
 97 313 97 313 98 326.5 c 128,-1,3
 99 340 99 340 103 352 c 128,-1,4
 107 364 107 364 113.5 377 c 128,-1,5
 120 390 120 390 131 407 c 2,6,-1
 166 463 l 2,7,8
 180 486 180 486 183.5 504.5 c 128,-1,9
 187 523 187 523 187 548 c 2,10,-1
 187 597 l 2,11,12
 187 617 187 617 181.5 624.5 c 128,-1,13
 176 632 176 632 162 632 c 0,14,15
 147 632 147 632 142 624 c 128,-1,16
 137 616 137 616 137 597 c 2,17,-1
 137 483 l 1,18,-1
 13 483 l 1,19,-1
 13 601 l 2,20,21
 13 632 13 632 18 659.5 c 128,-1,22
 23 687 23 687 38 708 c 128,-1,23
 53 729 53 729 79.5 741 c 128,-1,24
 106 753 106 753 149 753 c 2,25,-1
 176 753 l 2,26,27
 257 753 257 753 288.5 713.5 c 128,-1,28
 320 674 320 674 320 608 c 2,29,-1
 320 556 l 2,30,31
 320 511 320 511 311.5 479 c 128,-1,32
 303 447 303 447 275 411 c 2,33,-1
 226 344 l 2,34,35
 218 333 218 333 213.5 325.5 c 128,-1,36
 209 318 209 318 206 309 c 128,-1,37
 203 300 203 300 202 288.5 c 128,-1,38
 201 277 201 277 201 259 c 2,39,-1
 201 167 l 1,40,-1
 97 167 l 1,0,-1
209 0 m 1,41,-1
 90 0 l 1,42,-1
 90 144 l 1,43,-1
 209 144 l 1,44,-1
 209 0 l 1,41,-1
EndSplineSet
Validated: 1
EndChar

StartChar: at
Encoding: 64 64 36
Width: 583
GlyphClass: 2
Flags: W
LayerCount: 2
Fore
SplineSet
507 -34 m 1,0,1
 499 -46 499 -46 482.5 -64 c 128,-1,2
 466 -82 466 -82 440.5 -99 c 128,-1,3
 415 -116 415 -116 379.5 -128 c 128,-1,4
 344 -140 344 -140 299 -140 c 2,5,-1
 289 -140 l 2,6,7
 261 -140 261 -140 230 -135.5 c 128,-1,8
 199 -131 199 -131 169 -117.5 c 128,-1,9
 139 -104 139 -104 111.5 -78 c 128,-1,10
 84 -52 84 -52 63 -9.5 c 128,-1,11
 42 33 42 33 29.5 95.5 c 128,-1,12
 17 158 17 158 17 245 c 2,13,-1
 17 356 l 2,14,15
 17 534 17 534 87.5 632 c 128,-1,16
 158 730 158 730 294 730 c 2,17,-1
 312 730 l 2,18,19
 438 730 438 730 502 655.5 c 128,-1,20
 566 581 566 581 566 425 c 2,21,-1
 566 321 l 2,22,23
 566 237 566 237 555.5 182.5 c 128,-1,24
 545 128 545 128 526.5 96 c 128,-1,25
 508 64 508 64 483 51 c 128,-1,26
 458 38 458 38 430 38 c 2,27,-1
 423 38 l 2,28,29
 381 38 381 38 357.5 55.5 c 128,-1,30
 334 73 334 73 321 105 c 1,31,32
 302 70 302 70 279 54 c 128,-1,33
 256 38 256 38 230 38 c 2,34,-1
 225 38 l 2,35,36
 211 38 211 38 196.5 45.5 c 128,-1,37
 182 53 182 53 170.5 67 c 128,-1,38
 159 81 159 81 152.5 102.5 c 128,-1,39
 146 124 146 124 147 153 c 2,40,-1
 160 446 l 2,41,42
 161 465 161 465 166.5 482.5 c 128,-1,43
 172 500 172 500 181.5 513 c 128,-1,44
 191 526 191 526 205 534 c 128,-1,45
 219 542 219 542 237 542 c 2,46,-1
 243 542 l 2,47,48
 266 542 266 542 285 526.5 c 128,-1,49
 304 511 304 511 319 488 c 1,50,-1
 321 538 l 1,51,-1
 444 538 l 1,52,-1
 422 136 l 2,53,54
 422 128 422 128 424 123 c 128,-1,55
 426 118 426 118 435 118 c 0,56,57
 455 118 455 118 468 166.5 c 128,-1,58
 481 215 481 215 481 318 c 2,59,-1
 481 423 l 2,60,61
 481 489 481 489 469.5 533.5 c 128,-1,62
 458 578 458 578 436 604.5 c 128,-1,63
 414 631 414 631 382.5 642 c 128,-1,64
 351 653 351 653 312 653 c 2,65,-1
 294 653 l 2,66,67
 206 653 206 653 156 581 c 128,-1,68
 106 509 106 509 105 354 c 2,69,-1
 105 247 l 2,70,71
 105 141 105 141 124 80 c 128,-1,72
 143 19 143 19 171 -12.5 c 128,-1,73
 199 -44 199 -44 231 -52.5 c 128,-1,74
 263 -61 263 -61 289 -61 c 2,75,-1
 299 -61 l 2,76,77
 332 -61 332 -61 358 -51 c 128,-1,78
 384 -41 384 -41 404 -27.5 c 128,-1,79
 424 -14 424 -14 437 0.5 c 128,-1,80
 450 15 450 15 457 25 c 1,81,-1
 507 -34 l 1,0,1
316 415 m 2,82,83
 317 434 317 434 313.5 441 c 128,-1,84
 310 448 310 448 299 448 c 256,85,86
 288 448 288 448 285 439.5 c 128,-1,87
 282 431 282 431 281 415 c 2,88,-1
 268 165 l 2,89,90
 267 146 267 146 270 138.5 c 128,-1,91
 273 131 273 131 284 131 c 0,92,93
 301 131 301 131 303 166 c 2,94,-1
 316 415 l 2,82,83
EndSplineSet
Validated: 33
Substitution2: "'case' Case-Sensitive Forms in Latin lookup 25 subtable" at.uc
EndChar

StartChar: A
Encoding: 65 65 37
Width: 349
GlyphClass: 2
Flags: W
LayerCount: 2
Fore
SplineSet
208 125 m 1,0,-1
 128 125 l 1,1,-1
 116 0 l 1,2,-1
 -2 0 l 1,3,-1
 92 744 l 1,4,-1
 250 744 l 1,5,-1
 351 0 l 1,6,-1
 222 0 l 1,7,-1
 208 125 l 1,0,-1
141 253 m 1,8,-1
 195 253 l 1,9,-1
 167 508 l 1,10,-1
 141 253 l 1,8,-1
EndSplineSet
Validated: 1
EndChar

StartChar: B
Encoding: 66 66 38
Width: 376
GlyphClass: 2
Flags: W
LayerCount: 2
Fore
SplineSet
21 744 m 1,0,-1
 222 744 l 2,1,2
 289 744 289 744 320 714.5 c 128,-1,3
 351 685 351 685 351 611 c 2,4,-1
 351 512 l 2,5,6
 351 489 351 489 345 471 c 128,-1,7
 339 453 339 453 329.5 440 c 128,-1,8
 320 427 320 427 309 419 c 128,-1,9
 298 411 298 411 288 408 c 1,10,11
 302 404 302 404 315.5 396.5 c 128,-1,12
 329 389 329 389 339.5 375.5 c 128,-1,13
 350 362 350 362 356 341.5 c 128,-1,14
 362 321 362 321 362 291 c 2,15,-1
 362 167 l 2,16,17
 362 79 362 79 331.5 39.5 c 128,-1,18
 301 0 301 0 240 0 c 2,19,-1
 21 0 l 1,20,-1
 21 744 l 1,0,-1
154 333 m 1,21,-1
 154 118 l 1,22,-1
 191 118 l 2,23,24
 208 118 208 118 216.5 126.5 c 128,-1,25
 225 135 225 135 225 167 c 2,26,-1
 225 288 l 2,27,28
 225 311 225 311 217 322 c 128,-1,29
 209 333 209 333 186 333 c 2,30,-1
 154 333 l 1,21,-1
154 630 m 1,31,-1
 154 453 l 1,32,-1
 184 453 l 2,33,34
 201 453 201 453 210.5 462 c 128,-1,35
 220 471 220 471 220 497 c 2,36,-1
 220 590 l 2,37,38
 220 610 220 610 212.5 620 c 128,-1,39
 205 630 205 630 186 630 c 2,40,-1
 154 630 l 1,31,-1
EndSplineSet
Validated: 1
EndChar

StartChar: C
Encoding: 67 67 39
Width: 372
GlyphClass: 2
Flags: W
LayerCount: 2
Fore
SplineSet
224 164 m 2,0,-1
 224 328 l 1,1,-1
 356 328 l 1,2,-1
 356 160 l 2,3,4
 356 127 356 127 348.5 96 c 128,-1,5
 341 65 341 65 323 41 c 128,-1,6
 305 17 305 17 275.5 2.5 c 128,-1,7
 246 -12 246 -12 202 -12 c 2,8,-1
 175 -12 l 2,9,10
 127 -12 127 -12 96.5 2.5 c 128,-1,11
 66 17 66 17 48.5 41 c 128,-1,12
 31 65 31 65 24.5 97 c 128,-1,13
 18 129 18 129 18 164 c 2,14,-1
 18 584 l 2,15,16
 18 618 18 618 26 648.5 c 128,-1,17
 34 679 34 679 52.5 702 c 128,-1,18
 71 725 71 725 101 739 c 128,-1,19
 131 753 131 753 175 753 c 2,20,-1
 202 753 l 2,21,22
 250 753 250 753 280 739.5 c 128,-1,23
 310 726 310 726 327 703 c 128,-1,24
 344 680 344 680 350 650.5 c 128,-1,25
 356 621 356 621 356 589 c 2,26,-1
 356 464 l 1,27,-1
 224 464 l 1,28,-1
 224 584 l 2,29,30
 224 605 224 605 216.5 616 c 128,-1,31
 209 627 209 627 190 627 c 256,32,33
 171 627 171 627 164 616.5 c 128,-1,34
 157 606 157 606 157 584 c 2,35,-1
 157 164 l 2,36,37
 157 119 157 119 191 119 c 0,38,39
 209 119 209 119 216.5 131.5 c 128,-1,40
 224 144 224 144 224 164 c 2,0,-1
EndSplineSet
Validated: 1
EndChar

StartChar: D
Encoding: 68 68 40
Width: 374
GlyphClass: 2
Flags: W
LayerCount: 2
Fore
SplineSet
21 744 m 1,0,-1
 210 744 l 2,1,2
 285 744 285 744 320 707 c 128,-1,3
 355 670 355 670 355 585 c 2,4,-1
 355 165 l 2,5,6
 355 85 355 85 323 42.5 c 128,-1,7
 291 0 291 0 210 0 c 2,8,-1
 21 0 l 1,9,-1
 21 744 l 1,0,-1
154 124 m 1,10,-1
 180 124 l 2,11,12
 203 124 203 124 211 136.5 c 128,-1,13
 219 149 219 149 219 176 c 2,14,-1
 219 576 l 2,15,16
 219 603 219 603 211 614.5 c 128,-1,17
 203 626 203 626 184 626 c 2,18,-1
 154 626 l 1,19,-1
 154 124 l 1,10,-1
EndSplineSet
Validated: 1
EndChar

StartChar: E
Encoding: 69 69 41
Width: 315
GlyphClass: 2
Flags: W
LayerCount: 2
Fore
SplineSet
299 744 m 1,0,-1
 299 613 l 1,1,-1
 154 613 l 1,2,-1
 154 451 l 1,3,-1
 268 451 l 1,4,-1
 268 317 l 1,5,-1
 154 317 l 1,6,-1
 154 134 l 1,7,-1
 306 134 l 1,8,-1
 306 0 l 1,9,-1
 21 0 l 1,10,-1
 21 744 l 1,11,-1
 299 744 l 1,0,-1
EndSplineSet
Validated: 1
Substitution2: "'ss03' Style Set 3 in Latin lookup 23 subtable" E.alt
EndChar

StartChar: F
Encoding: 70 70 42
Width: 316
GlyphClass: 2
Flags: W
LayerCount: 2
Fore
SplineSet
21 744 m 1,0,-1
 306 744 l 1,1,-1
 306 614 l 1,2,-1
 154 614 l 1,3,-1
 154 452 l 1,4,-1
 266 452 l 1,5,-1
 266 318 l 1,6,-1
 154 318 l 1,7,-1
 154 0 l 1,8,-1
 21 0 l 1,9,-1
 21 744 l 1,0,-1
EndSplineSet
Validated: 1
Substitution2: "'ss03' Style Set 3 in Latin lookup 23 subtable" F.alt
EndChar

StartChar: G
Encoding: 71 71 43
Width: 378
GlyphClass: 2
Flags: W
LayerCount: 2
Fore
SplineSet
139 -10 m 2,0,1
 110 -10 110 -10 87.5 1.5 c 128,-1,2
 65 13 65 13 49.5 33 c 128,-1,3
 34 53 34 53 26 79.5 c 128,-1,4
 18 106 18 106 18 136 c 2,5,-1
 18 579 l 2,6,7
 18 613 18 613 26 644.5 c 128,-1,8
 34 676 34 676 52 700 c 128,-1,9
 70 724 70 724 99.5 738.5 c 128,-1,10
 129 753 129 753 173 753 c 2,11,-1
 200 753 l 2,12,13
 249 753 249 753 279.5 738.5 c 128,-1,14
 310 724 310 724 326.5 700 c 128,-1,15
 343 676 343 676 348.5 644.5 c 128,-1,16
 354 613 354 613 354 580 c 2,17,-1
 354 498 l 1,18,-1
 224 498 l 1,19,-1
 224 581 l 2,20,21
 224 604 224 604 217 616 c 128,-1,22
 210 628 210 628 190 628 c 0,23,24
 157 628 157 628 157 581 c 2,25,-1
 157 167 l 2,26,27
 157 119 157 119 193 119 c 0,28,29
 232 119 232 119 232 165 c 2,30,-1
 232 325 l 1,31,-1
 183 325 l 1,32,-1
 183 450 l 1,33,-1
 360 450 l 1,34,-1
 360 0 l 1,35,-1
 279 0 l 1,36,37
 276 13 276 13 270.5 33.5 c 128,-1,38
 265 54 265 54 259 71 c 1,39,40
 254 62 254 62 245.5 48 c 128,-1,41
 237 34 237 34 224 21 c 128,-1,42
 211 8 211 8 192.5 -1 c 128,-1,43
 174 -10 174 -10 149 -10 c 2,44,-1
 139 -10 l 2,0,1
EndSplineSet
Validated: 1
EndChar

StartChar: H
Encoding: 72 72 44
Width: 378
GlyphClass: 2
Flags: W
LayerCount: 2
Fore
SplineSet
154 0 m 1,0,-1
 21 0 l 1,1,-1
 21 744 l 1,2,-1
 154 744 l 1,3,-1
 154 460 l 1,4,-1
 224 460 l 1,5,-1
 224 744 l 1,6,-1
 357 744 l 1,7,-1
 357 0 l 1,8,-1
 224 0 l 1,9,-1
 224 314 l 1,10,-1
 154 314 l 1,11,-1
 154 0 l 1,0,-1
EndSplineSet
Validated: 1
EndChar

StartChar: I
Encoding: 73 73 45
Width: 175
GlyphClass: 2
Flags: W
LayerCount: 2
Fore
SplineSet
154 0 m 1,0,-1
 21 0 l 1,1,-1
 21 744 l 1,2,-1
 154 744 l 1,3,-1
 154 0 l 1,0,-1
EndSplineSet
Validated: 1
EndChar

StartChar: J
Encoding: 74 74 46
Width: 354
GlyphClass: 2
Flags: W
LayerCount: 2
Fore
SplineSet
141 327 m 1,0,-1
 141 155 l 2,1,2
 141 122 141 122 167 122 c 2,3,-1
 171 122 l 2,4,5
 185 122 185 122 190.5 131.5 c 128,-1,6
 196 141 196 141 196 155 c 2,7,-1
 196 744 l 1,8,-1
 334 744 l 1,9,-1
 334 151 l 2,10,11
 334 73 334 73 296.5 32.5 c 128,-1,12
 259 -8 259 -8 193 -8 c 2,13,-1
 149 -8 l 2,14,15
 83 -8 83 -8 48 25.5 c 128,-1,16
 13 59 13 59 13 137 c 2,17,-1
 13 327 l 1,18,-1
 141 327 l 1,0,-1
EndSplineSet
Validated: 1
Substitution2: "'salt' Stylistic Alternatives in Latin lookup 29 subtable" J.alt
Substitution2: "'ss02' Style Set 2 in Latin lookup 22 subtable" J.alt
EndChar

StartChar: K
Encoding: 75 75 47
Width: 376
GlyphClass: 2
Flags: W
LayerCount: 2
Fore
SplineSet
154 0 m 1,0,-1
 21 0 l 1,1,-1
 21 744 l 1,2,-1
 154 744 l 1,3,-1
 154 458 l 1,4,-1
 241 744 l 1,5,-1
 372 744 l 1,6,-1
 267 406 l 1,7,-1
 383 0 l 1,8,-1
 243 0 l 1,9,-1
 154 315 l 1,10,-1
 154 0 l 1,0,-1
EndSplineSet
Validated: 1
EndChar

StartChar: L
Encoding: 76 76 48
Width: 304
GlyphClass: 2
Flags: W
LayerCount: 2
Fore
SplineSet
154 744 m 1,0,-1
 154 134 l 1,1,-1
 295 134 l 1,2,-1
 295 0 l 1,3,-1
 21 0 l 1,4,-1
 21 744 l 1,5,-1
 154 744 l 1,0,-1
EndSplineSet
Validated: 1
EndChar

StartChar: M
Encoding: 77 77 49
Width: 461
GlyphClass: 2
Flags: W
LayerCount: 2
Fore
SplineSet
21 744 m 1,0,-1
 185 744 l 1,1,-1
 236 368 l 1,2,-1
 287 744 l 1,3,-1
 440 744 l 1,4,-1
 440 0 l 1,5,-1
 320 0 l 1,6,-1
 320 440 l 1,7,-1
 254 0 l 1,8,-1
 204 0 l 1,9,-1
 137 440 l 1,10,-1
 137 0 l 1,11,-1
 21 0 l 1,12,-1
 21 744 l 1,0,-1
EndSplineSet
Validated: 1
EndChar

StartChar: N
Encoding: 78 78 50
Width: 376
GlyphClass: 2
Flags: W
LayerCount: 2
Fore
SplineSet
146 744 m 1,0,-1
 237 364 l 1,1,-1
 237 744 l 1,2,-1
 355 744 l 1,3,-1
 355 0 l 1,4,-1
 242 0 l 1,5,-1
 139 408 l 1,6,-1
 139 0 l 1,7,-1
 21 0 l 1,8,-1
 21 744 l 1,9,-1
 146 744 l 1,0,-1
EndSplineSet
Validated: 1
EndChar

StartChar: O
Encoding: 79 79 51
Width: 385
GlyphClass: 2
Flags: W
LayerCount: 2
Fore
SplineSet
367 170 m 2,0,1
 367 88 367 88 325.5 38.5 c 128,-1,2
 284 -11 284 -11 209 -11 c 2,3,-1
 179 -11 l 2,4,5
 100 -11 100 -11 59 35.5 c 128,-1,6
 18 82 18 82 18 170 c 2,7,-1
 18 563 l 2,8,9
 18 606 18 606 27 641 c 128,-1,10
 36 676 36 676 55 701 c 128,-1,11
 74 726 74 726 104.5 739.5 c 128,-1,12
 135 753 135 753 178 753 c 2,13,-1
 208 753 l 2,14,15
 252 753 252 753 282.5 739.5 c 128,-1,16
 313 726 313 726 331.5 701 c 128,-1,17
 350 676 350 676 358.5 641.5 c 128,-1,18
 367 607 367 607 367 564 c 2,19,-1
 367 170 l 2,0,1
228 574 m 2,20,21
 228 623 228 623 193 623 c 0,22,23
 173 623 173 623 165 611 c 128,-1,24
 157 599 157 599 157 574 c 2,25,-1
 157 166 l 2,26,27
 157 149 157 149 165 135.5 c 128,-1,28
 173 122 173 122 194 122 c 0,29,30
 214 122 214 122 221 135.5 c 128,-1,31
 228 149 228 149 228 166 c 2,32,-1
 228 574 l 2,20,21
EndSplineSet
Validated: 1
EndChar

StartChar: P
Encoding: 80 80 52
Width: 361
GlyphClass: 2
Flags: W
LayerCount: 2
Fore
SplineSet
154 298 m 1,0,-1
 154 0 l 1,1,-1
 21 0 l 1,2,-1
 21 744 l 1,3,-1
 210 744 l 2,4,5
 252 744 252 744 279 734 c 128,-1,6
 306 724 306 724 321 705 c 128,-1,7
 336 686 336 686 341.5 658.5 c 128,-1,8
 347 631 347 631 347 597 c 2,9,-1
 347 448 l 2,10,11
 347 379 347 379 317 338.5 c 128,-1,12
 287 298 287 298 217 298 c 2,13,-1
 154 298 l 1,0,-1
154 419 m 1,14,-1
 179 419 l 2,15,16
 202 419 202 419 207.5 431.5 c 128,-1,17
 213 444 213 444 213 461 c 2,18,-1
 213 585 l 2,19,20
 213 605 213 605 207.5 617 c 128,-1,21
 202 629 202 629 179 629 c 2,22,-1
 154 629 l 1,23,-1
 154 419 l 1,14,-1
EndSplineSet
Validated: 1
EndChar

StartChar: Q
Encoding: 81 81 53
Width: 385
GlyphClass: 2
Flags: W
LayerCount: 2
Fore
SplineSet
367 170 m 2,0,1
 367 100 367 100 337 53.5 c 128,-1,2
 307 7 307 7 250 -6 c 1,3,-1
 314 -155 l 1,4,-1
 148 -155 l 1,5,-1
 148 -9 l 1,6,7
 84 0 84 0 51 46 c 128,-1,8
 18 92 18 92 18 170 c 2,9,-1
 18 563 l 2,10,11
 18 606 18 606 27 641 c 128,-1,12
 36 676 36 676 55 701 c 128,-1,13
 74 726 74 726 104.5 739.5 c 128,-1,14
 135 753 135 753 178 753 c 2,15,-1
 208 753 l 2,16,17
 252 753 252 753 282.5 739.5 c 128,-1,18
 313 726 313 726 331.5 701 c 128,-1,19
 350 676 350 676 358.5 641.5 c 128,-1,20
 367 607 367 607 367 564 c 2,21,-1
 367 170 l 2,0,1
228 574 m 2,22,23
 228 623 228 623 193 623 c 0,24,25
 173 623 173 623 165 611 c 128,-1,26
 157 599 157 599 157 574 c 2,27,-1
 157 166 l 2,28,29
 157 149 157 149 165 135.5 c 128,-1,30
 173 122 173 122 194 122 c 0,31,32
 214 122 214 122 221 135.5 c 128,-1,33
 228 149 228 149 228 166 c 2,34,-1
 228 574 l 2,22,23
EndSplineSet
Validated: 1
EndChar

StartChar: R
Encoding: 82 82 54
Width: 369
GlyphClass: 2
Flags: W
LayerCount: 2
Fore
SplineSet
154 441 m 1,0,-1
 180 441 l 2,1,2
 200 441 200 441 208.5 450.5 c 128,-1,3
 217 460 217 460 217 486 c 2,4,-1
 217 587 l 2,5,6
 217 611 217 611 210.5 620 c 128,-1,7
 204 629 204 629 184 629 c 2,8,-1
 154 629 l 1,9,-1
 154 441 l 1,0,-1
154 0 m 1,10,-1
 21 0 l 1,11,-1
 21 744 l 1,12,-1
 231 744 l 2,13,14
 292 744 292 744 322.5 712 c 128,-1,15
 353 680 353 680 353 620 c 2,16,-1
 353 501 l 2,17,18
 353 478 353 478 347.5 461 c 128,-1,19
 342 444 342 444 333 432 c 128,-1,20
 324 420 324 420 313.5 412.5 c 128,-1,21
 303 405 303 405 294 401 c 1,22,23
 302 398 302 398 312 391.5 c 128,-1,24
 322 385 322 385 330.5 374.5 c 128,-1,25
 339 364 339 364 345 349 c 128,-1,26
 351 334 351 334 351 313 c 2,27,-1
 351 60 l 2,28,29
 351 36 351 36 354.5 24 c 128,-1,30
 358 12 358 12 362 5 c 1,31,-1
 362 0 l 1,32,-1
 229 0 l 1,33,34
 224 6 224 6 220.5 19 c 128,-1,35
 217 32 217 32 217 57 c 2,36,-1
 217 274 l 2,37,38
 217 300 217 300 209.5 309 c 128,-1,39
 202 318 202 318 182 318 c 2,40,-1
 154 318 l 1,41,-1
 154 0 l 1,10,-1
EndSplineSet
Validated: 1
EndChar

StartChar: S
Encoding: 83 83 55
Width: 359
GlyphClass: 2
Flags: W
LayerCount: 2
Fore
SplineSet
195 753 m 2,0,1
 273 753 273 753 305.5 717.5 c 128,-1,2
 338 682 338 682 338 607 c 2,3,-1
 338 507 l 1,4,-1
 210 507 l 1,5,-1
 210 600 l 2,6,7
 210 618 210 618 204.5 628.5 c 128,-1,8
 199 639 199 639 181 639 c 0,9,10
 164 639 164 639 158 628.5 c 128,-1,11
 152 618 152 618 152 599 c 2,12,-1
 152 582 l 2,13,14
 152 556 152 556 160 535 c 128,-1,15
 168 514 168 514 193 486 c 2,16,-1
 269 401 l 2,17,18
 294 373 294 373 310 348.5 c 128,-1,19
 326 324 326 324 335 301.5 c 128,-1,20
 344 279 344 279 347 256.5 c 128,-1,21
 350 234 350 234 350 210 c 2,22,-1
 350 175 l 2,23,24
 350 91 350 91 310.5 41 c 128,-1,25
 271 -9 271 -9 188 -9 c 2,26,-1
 162 -9 l 2,27,28
 86 -9 86 -9 48 30.5 c 128,-1,29
 10 70 10 70 10 145 c 2,30,-1
 10 279 l 1,31,-1
 141 279 l 1,32,-1
 141 160 l 2,33,34
 141 115 141 115 175 115 c 0,35,36
 208 115 208 115 208 169 c 2,37,-1
 208 183 l 2,38,39
 208 202 208 202 207 217 c 128,-1,40
 206 232 206 232 201.5 244.5 c 128,-1,41
 197 257 197 257 188.5 270 c 128,-1,42
 180 283 180 283 165 299 c 2,43,-1
 88 384 l 2,44,45
 46 429 46 429 31.5 474 c 128,-1,46
 17 519 17 519 17 573 c 2,47,-1
 17 605 l 2,48,49
 17 677 17 677 57.5 715 c 128,-1,50
 98 753 98 753 168 753 c 2,51,-1
 195 753 l 2,0,1
EndSplineSet
Validated: 1
EndChar

StartChar: T
Encoding: 84 84 56
Width: 339
GlyphClass: 2
Flags: W
LayerCount: 2
Fore
SplineSet
331 744 m 1,0,-1
 331 613 l 1,1,-1
 236 613 l 1,2,-1
 236 0 l 1,3,-1
 103 0 l 1,4,-1
 103 613 l 1,5,-1
 8 613 l 1,6,-1
 8 744 l 1,7,-1
 331 744 l 1,0,-1
EndSplineSet
Validated: 1
EndChar

StartChar: U
Encoding: 85 85 57
Width: 379
GlyphClass: 2
Flags: W
LayerCount: 2
Fore
SplineSet
20 744 m 1,0,-1
 157 744 l 1,1,-1
 157 168 l 2,2,3
 157 122 157 122 190 122 c 0,4,5
 222 122 222 122 222 168 c 2,6,-1
 222 744 l 1,7,-1
 359 744 l 1,8,-1
 359 173 l 2,9,10
 359 80 359 80 318 34.5 c 128,-1,11
 277 -11 277 -11 205 -11 c 2,12,-1
 172 -11 l 2,13,14
 99 -11 99 -11 59.5 34.5 c 128,-1,15
 20 80 20 80 20 173 c 2,16,-1
 20 744 l 1,0,-1
EndSplineSet
Validated: 1
EndChar

StartChar: V
Encoding: 86 86 58
Width: 361
GlyphClass: 2
Flags: W
LayerCount: 2
Fore
SplineSet
-1 744 m 1,0,-1
 137 744 l 1,1,-1
 186 245 l 1,2,-1
 235 744 l 1,3,-1
 362 744 l 1,4,-1
 267 0 l 1,5,-1
 98 0 l 1,6,-1
 -1 744 l 1,0,-1
EndSplineSet
Validated: 1
EndChar

StartChar: W
Encoding: 87 87 59
Width: 572
GlyphClass: 2
Flags: W
LayerCount: 2
Fore
SplineSet
354 744 m 1,0,-1
 401 272 l 1,1,-1
 445 744 l 1,2,-1
 573 744 l 1,3,-1
 478 0 l 1,4,-1
 327 0 l 1,5,-1
 288 409 l 1,6,-1
 249 0 l 1,7,-1
 92 0 l 1,8,-1
 -1 744 l 1,9,-1
 137 744 l 1,10,-1
 179 267 l 1,11,-1
 227 744 l 1,12,-1
 354 744 l 1,0,-1
EndSplineSet
Validated: 1
EndChar

StartChar: X
Encoding: 88 88 60
Width: 362
GlyphClass: 2
Flags: W
LayerCount: 2
Fore
SplineSet
10 744 m 1,0,-1
 144 744 l 1,1,-1
 185 521 l 1,2,-1
 225 744 l 1,3,-1
 351 744 l 1,4,-1
 272 398 l 1,5,-1
 365 0 l 1,6,-1
 231 0 l 1,7,-1
 180 258 l 1,8,-1
 127 0 l 1,9,-1
 -3 0 l 1,10,-1
 91 398 l 1,11,-1
 10 744 l 1,0,-1
EndSplineSet
Validated: 1
EndChar

StartChar: Y
Encoding: 89 89 61
Width: 331
GlyphClass: 2
Flags: W
LayerCount: 2
Fore
SplineSet
237 293 m 1,0,-1
 237 0 l 1,1,-1
 104 0 l 1,2,-1
 104 288 l 1,3,-1
 -6 744 l 1,4,-1
 127 744 l 1,5,-1
 172 480 l 1,6,-1
 217 744 l 1,7,-1
 337 744 l 1,8,-1
 237 293 l 1,0,-1
EndSplineSet
Validated: 1
EndChar

StartChar: Z
Encoding: 90 90 62
Width: 334
GlyphClass: 2
Flags: W
LayerCount: 2
Fore
SplineSet
314 744 m 1,0,-1
 314 626 l 1,1,-1
 152 130 l 1,2,-1
 325 130 l 1,3,-1
 325 0 l 1,4,-1
 9 0 l 1,5,-1
 9 120 l 1,6,-1
 171 616 l 1,7,-1
 20 616 l 1,8,-1
 20 744 l 1,9,-1
 314 744 l 1,0,-1
EndSplineSet
Validated: 1
EndChar

StartChar: bracketleft
Encoding: 91 91 63
Width: 200
GlyphClass: 2
Flags: W
LayerCount: 2
Fore
SplineSet
194 713 m 1,0,-1
 140 713 l 1,1,-1
 140 -35 l 1,2,-1
 194 -35 l 1,3,-1
 194 -131 l 1,4,-1
 34 -131 l 1,5,-1
 34 808 l 1,6,-1
 194 808 l 1,7,-1
 194 713 l 1,0,-1
EndSplineSet
Validated: 1
Substitution2: "'case' Case-Sensitive Forms in Latin lookup 25 subtable" bracketleft.uc
EndChar

StartChar: backslash
Encoding: 92 92 64
Width: 219
GlyphClass: 2
Flags: W
LayerCount: 2
Fore
SplineSet
2 808 m 1,0,-1
 96 808 l 1,1,-1
 227 -131 l 1,2,-1
 133 -131 l 1,3,-1
 2 808 l 1,0,-1
EndSplineSet
Validated: 1
Substitution2: "'case' Case-Sensitive Forms in Latin lookup 25 subtable" backslash.uc
EndChar

StartChar: bracketright
Encoding: 93 93 65
Width: 200
GlyphClass: 2
Flags: W
LayerCount: 2
Fore
SplineSet
6 -35 m 1,0,-1
 60 -35 l 1,1,-1
 60 713 l 1,2,-1
 6 713 l 1,3,-1
 6 808 l 1,4,-1
 166 808 l 1,5,-1
 166 -131 l 1,6,-1
 6 -131 l 1,7,-1
 6 -35 l 1,0,-1
EndSplineSet
Validated: 1
Substitution2: "'case' Case-Sensitive Forms in Latin lookup 25 subtable" bracketright.uc
EndChar

StartChar: asciicircum
Encoding: 94 94 66
Width: 237
GlyphClass: 2
Flags: W
LayerCount: 2
Fore
SplineSet
235 433 m 1,0,-1
 146 433 l 1,1,-1
 117 597 l 1,2,-1
 90 433 l 1,3,-1
 2 433 l 1,4,-1
 67 744 l 1,5,-1
 169 744 l 1,6,-1
 235 433 l 1,0,-1
EndSplineSet
Validated: 1
EndChar

StartChar: underscore
Encoding: 95 95 67
Width: 333
GlyphClass: 2
Flags: W
LayerCount: 2
Fore
SplineSet
2 -20 m 1,0,-1
 331 -20 l 1,1,-1
 331 -115 l 1,2,-1
 2 -115 l 1,3,-1
 2 -20 l 1,0,-1
EndSplineSet
Validated: 1
EndChar

StartChar: grave
Encoding: 96 96 68
Width: 342
GlyphClass: 2
Flags: W
LayerCount: 2
Fore
SplineSet
244 564 m 1,0,-1
 142 564 l 1,1,-1
 97 700 l 1,2,-1
 203 700 l 1,3,-1
 244 564 l 1,0,-1
EndSplineSet
Validated: 1
EndChar

StartChar: a
Encoding: 97 97 69
Width: 339
GlyphClass: 2
Flags: W
LayerCount: 2
Fore
SplineSet
182 265 m 1,0,1
 177 262 177 262 166.5 255 c 128,-1,2
 156 248 156 248 149 240 c 256,3,4
 142 232 142 232 139.5 223.5 c 128,-1,5
 137 215 137 215 137 199 c 2,6,-1
 137 134 l 2,7,8
 137 119 137 119 141.5 110.5 c 128,-1,9
 146 102 146 102 158 102 c 0,10,11
 182 102 182 102 182 134 c 2,12,-1
 182 265 l 1,0,1
14 205 m 2,13,14
 14 247 14 247 27.5 272 c 128,-1,15
 41 297 41 297 70 315 c 0,16,17
 79 321 79 321 94 328.5 c 128,-1,18
 109 336 109 336 124.5 343.5 c 128,-1,19
 140 351 140 351 154 357.5 c 128,-1,20
 168 364 168 364 174 368 c 0,21,22
 178 370 178 370 180 373.5 c 128,-1,23
 182 377 182 377 182 388 c 2,24,-1
 182 417 l 2,25,26
 182 434 182 434 176.5 440 c 128,-1,27
 171 446 171 446 160 446 c 2,28,-1
 156 446 l 2,29,30
 143 446 143 446 138.5 438.5 c 128,-1,31
 134 431 134 431 134 417 c 2,32,-1
 134 364 l 1,33,-1
 20 364 l 1,34,-1
 20 438 l 2,35,36
 20 456 20 456 25 474.5 c 128,-1,37
 30 493 30 493 44 508.5 c 128,-1,38
 58 524 58 524 82.5 534 c 128,-1,39
 107 544 107 544 146 544 c 2,40,-1
 169 544 l 2,41,42
 209 544 209 544 235.5 535.5 c 128,-1,43
 262 527 262 527 277.5 511 c 128,-1,44
 293 495 293 495 299 473.5 c 128,-1,45
 305 452 305 452 305 426 c 2,46,-1
 305 129 l 2,47,48
 305 121 305 121 308.5 117.5 c 128,-1,49
 312 114 312 114 324 114 c 2,50,-1
 338 114 l 1,51,-1
 338 0 l 1,52,-1
 219 0 l 2,53,54
 200 0 200 0 191 14 c 128,-1,55
 182 28 182 28 182 61 c 1,56,57
 177 51 177 51 169 39.5 c 128,-1,58
 161 28 161 28 149.5 18 c 128,-1,59
 138 8 138 8 123.5 1.5 c 128,-1,60
 109 -5 109 -5 91 -5 c 2,61,-1
 87 -5 l 2,62,63
 69 -5 69 -5 55 3 c 128,-1,64
 41 11 41 11 32 24 c 128,-1,65
 23 37 23 37 18.5 53.5 c 128,-1,66
 14 70 14 70 14 88 c 2,67,-1
 14 205 l 2,13,14
EndSplineSet
Validated: 1
Substitution2: "'salt' Stylistic Alternatives in Latin lookup 29 subtable" a.alt
Substitution2: "'ss04' Style Set 4 in Latin lookup 24 subtable" a.alt2
Substitution2: "'ss01' Style Set 1 in Latin lookup 21 subtable" a.alt
EndChar

StartChar: b
Encoding: 98 98 70
Width: 340
GlyphClass: 2
Flags: W
LayerCount: 2
Fore
SplineSet
146 744 m 1,0,-1
 146 478 l 2,1,2
 149 484 149 484 157 495 c 128,-1,3
 165 506 165 506 177 517 c 128,-1,4
 189 528 189 528 204 536 c 128,-1,5
 219 544 219 544 237 544 c 2,6,-1
 243 544 l 2,7,8
 262 544 262 544 277 536 c 128,-1,9
 292 528 292 528 302.5 514.5 c 128,-1,10
 313 501 313 501 318 484 c 128,-1,11
 323 467 323 467 323 449 c 2,12,-1
 323 111 l 2,13,14
 323 89 323 89 315.5 67.5 c 128,-1,15
 308 46 308 46 295 29 c 128,-1,16
 282 12 282 12 264 1.5 c 128,-1,17
 246 -9 246 -9 224 -9 c 2,18,-1
 222 -9 l 2,19,20
 201 -9 201 -9 186 -1.5 c 128,-1,21
 171 6 171 6 159 17.5 c 128,-1,22
 147 29 147 29 138 43.5 c 128,-1,23
 129 58 129 58 121 72 c 1,24,25
 119 64 119 64 117 52.5 c 128,-1,26
 115 41 115 41 113 30 c 128,-1,27
 111 19 111 19 109.5 10.5 c 128,-1,28
 108 2 108 2 108 0 c 2,29,-1
 18 0 l 1,30,-1
 18 744 l 1,31,-1
 146 744 l 1,0,-1
146 137 m 2,32,33
 146 122 146 122 151.5 112 c 128,-1,34
 157 102 157 102 170 102 c 256,35,36
 183 102 183 102 188.5 111.5 c 128,-1,37
 194 121 194 121 194 135 c 2,38,-1
 194 399 l 2,39,40
 194 420 194 420 187.5 427 c 128,-1,41
 181 434 181 434 169 434 c 0,42,43
 155 434 155 434 150.5 423.5 c 128,-1,44
 146 413 146 413 146 399 c 2,45,-1
 146 137 l 2,32,33
EndSplineSet
Validated: 1
EndChar

StartChar: c
Encoding: 99 99 71
Width: 322
GlyphClass: 2
Flags: W
LayerCount: 2
Fore
SplineSet
309 241 m 1,0,-1
 309 125 l 2,1,2
 309 97 309 97 301.5 72.5 c 128,-1,3
 294 48 294 48 278 29.5 c 128,-1,4
 262 11 262 11 237 0 c 128,-1,5
 212 -11 212 -11 177 -11 c 2,6,-1
 156 -11 l 2,7,8
 81 -11 81 -11 48 29 c 128,-1,9
 15 69 15 69 15 129 c 2,10,-1
 15 400 l 2,11,12
 15 467 15 467 47.5 507.5 c 128,-1,13
 80 548 80 548 154 548 c 2,14,-1
 179 548 l 2,15,16
 216 548 216 548 241 538 c 128,-1,17
 266 528 266 528 281 510.5 c 128,-1,18
 296 493 296 493 302.5 469.5 c 128,-1,19
 309 446 309 446 309 418 c 2,20,-1
 309 329 l 1,21,-1
 191 329 l 1,22,-1
 191 405 l 2,23,24
 191 422 191 422 186.5 432.5 c 128,-1,25
 182 443 182 443 167 443 c 0,26,27
 153 443 153 443 148.5 433.5 c 128,-1,28
 144 424 144 424 144 406 c 2,29,-1
 144 135 l 2,30,31
 144 120 144 120 148 111 c 128,-1,32
 152 102 152 102 166 102 c 256,33,34
 180 102 180 102 185 110.5 c 128,-1,35
 190 119 190 119 190 133 c 2,36,-1
 190 241 l 1,37,-1
 309 241 l 1,0,-1
EndSplineSet
Validated: 1
EndChar

StartChar: d
Encoding: 100 100 72
Width: 344
GlyphClass: 2
Flags: W
LayerCount: 2
Fore
SplineSet
326 744 m 1,0,-1
 326 0 l 1,1,-1
 198 0 l 1,2,-1
 198 60 l 1,3,4
 193 51 193 51 185 38.5 c 128,-1,5
 177 26 177 26 166 15 c 128,-1,6
 155 4 155 4 141 -3.5 c 128,-1,7
 127 -11 127 -11 109 -11 c 2,8,-1
 107 -11 l 2,9,10
 87 -11 87 -11 70.5 -2 c 128,-1,11
 54 7 54 7 42 23 c 128,-1,12
 30 39 30 39 23.5 60 c 128,-1,13
 17 81 17 81 17 104 c 2,14,-1
 17 437 l 2,15,16
 17 456 17 456 22 475 c 128,-1,17
 27 494 27 494 37 509.5 c 128,-1,18
 47 525 47 525 62 534.5 c 128,-1,19
 77 544 77 544 97 544 c 2,20,-1
 102 544 l 2,21,22
 121 544 121 544 136 537 c 128,-1,23
 151 530 151 530 163 520 c 128,-1,24
 175 510 175 510 183.5 498.5 c 128,-1,25
 192 487 192 487 198 478 c 1,26,-1
 198 744 l 1,27,-1
 326 744 l 1,0,-1
198 392 m 2,28,29
 198 411 198 411 192.5 422.5 c 128,-1,30
 187 434 187 434 171 434 c 0,31,32
 146 434 146 434 146 397 c 2,33,-1
 146 138 l 2,34,35
 146 121 146 121 151.5 111 c 128,-1,36
 157 101 157 101 171 101 c 0,37,38
 186 101 186 101 192 112 c 128,-1,39
 198 123 198 123 198 143 c 2,40,-1
 198 392 l 2,28,29
EndSplineSet
Validated: 1
EndChar

StartChar: e
Encoding: 101 101 73
Width: 323
GlyphClass: 2
Flags: W
LayerCount: 2
Fore
SplineSet
174 548 m 2,0,1
 309 548 309 548 309 411 c 2,2,-1
 309 252 l 1,3,-1
 138 252 l 1,4,-1
 138 135 l 2,5,6
 138 119 138 119 143.5 110.5 c 128,-1,7
 149 102 149 102 163 102 c 0,8,9
 176 102 176 102 181 111 c 128,-1,10
 186 120 186 120 186 135 c 2,11,-1
 186 215 l 1,12,-1
 309 215 l 1,13,-1
 309 117 l 2,14,15
 309 54 309 54 270 22 c 128,-1,16
 231 -10 231 -10 174 -10 c 2,17,-1
 150 -10 l 2,18,19
 90 -10 90 -10 52.5 22 c 128,-1,20
 15 54 15 54 15 117 c 2,21,-1
 15 413 l 2,22,23
 15 440 15 440 22.5 464.5 c 128,-1,24
 30 489 30 489 46 507.5 c 128,-1,25
 62 526 62 526 88 537 c 128,-1,26
 114 548 114 548 150 548 c 2,27,-1
 174 548 l 2,0,1
138 348 m 1,28,-1
 190 348 l 1,29,-1
 190 413 l 2,30,31
 190 430 190 430 185 439.5 c 128,-1,32
 180 449 180 449 164 449 c 0,33,34
 147 449 147 449 142.5 439.5 c 128,-1,35
 138 430 138 430 138 413 c 2,36,-1
 138 348 l 1,28,-1
EndSplineSet
Validated: 1
EndChar

StartChar: f
Encoding: 102 102 74
Width: 274
GlyphClass: 2
Flags: W
LayerCount: 2
Fore
SplineSet
265 631 m 1,0,-1
 216 631 l 2,1,2
 203 631 203 631 199.5 625.5 c 128,-1,3
 196 620 196 620 196 608 c 2,4,-1
 196 538 l 1,5,-1
 265 538 l 1,6,-1
 265 419 l 1,7,-1
 196 419 l 1,8,-1
 196 0 l 1,9,-1
 69 0 l 1,10,-1
 69 419 l 1,11,-1
 6 419 l 1,12,-1
 6 538 l 1,13,-1
 69 538 l 1,14,-1
 69 670 l 2,15,16
 69 697 69 697 88 720.5 c 128,-1,17
 107 744 107 744 151 744 c 2,18,-1
 265 744 l 1,19,-1
 265 631 l 1,0,-1
EndSplineSet
Validated: 1
Substitution2: "Single Substitution lookup 33 subtable" f.short
EndChar

StartChar: g
Encoding: 103 103 75
Width: 342
GlyphClass: 2
Flags: W
LayerCount: 2
Fore
SplineSet
196 60 m 1,0,1
 181 32 181 32 160 11 c 128,-1,2
 139 -10 139 -10 109 -10 c 0,3,4
 70 -10 70 -10 43.5 18.5 c 128,-1,5
 17 47 17 47 17 95 c 2,6,-1
 17 416 l 2,7,8
 17 473 17 473 38.5 507 c 128,-1,9
 60 541 60 541 102 541 c 2,10,-1
 103 541 l 2,11,12
 137 541 137 541 159 521 c 128,-1,13
 181 501 181 501 198 473 c 1,14,-1
 198 538 l 1,15,-1
 324 538 l 1,16,-1
 324 -74 l 2,17,18
 324 -95 324 -95 318 -116.5 c 128,-1,19
 312 -138 312 -138 296 -155.5 c 128,-1,20
 280 -173 280 -173 252 -184 c 128,-1,21
 224 -195 224 -195 179 -195 c 2,22,-1
 161 -195 l 2,23,24
 120 -195 120 -195 93 -187.5 c 128,-1,25
 66 -180 66 -180 50 -166.5 c 128,-1,26
 34 -153 34 -153 28 -135.5 c 128,-1,27
 22 -118 22 -118 22 -97 c 2,28,-1
 22 -25 l 1,29,-1
 145 -25 l 1,30,-1
 145 -69 l 2,31,32
 145 -80 145 -80 149 -86 c 128,-1,33
 153 -92 153 -92 167 -92 c 2,34,-1
 172 -92 l 2,35,36
 186 -92 186 -92 191 -85.5 c 128,-1,37
 196 -79 196 -79 196 -65 c 2,38,-1
 196 60 l 1,0,1
196 399 m 2,39,40
 196 412 196 412 191.5 422.5 c 128,-1,41
 187 433 187 433 171 433 c 0,42,43
 157 433 157 433 152 423.5 c 128,-1,44
 147 414 147 414 147 400 c 2,45,-1
 147 128 l 2,46,47
 147 114 147 114 152 105 c 128,-1,48
 157 96 157 96 171 96 c 0,49,50
 183 96 183 96 189.5 105.5 c 128,-1,51
 196 115 196 115 196 129 c 2,52,-1
 196 399 l 2,39,40
EndSplineSet
Validated: 1
EndChar

StartChar: h
Encoding: 104 104 76
Width: 344
GlyphClass: 2
Flags: W
LayerCount: 2
Fore
SplineSet
18 744 m 1,0,-1
 146 744 l 1,1,-1
 146 476 l 1,2,3
 160 498 160 498 184 519 c 128,-1,4
 208 540 208 540 242 540 c 2,5,-1
 247 540 l 2,6,7
 284 540 284 540 305 516 c 128,-1,8
 326 492 326 492 326 456 c 2,9,-1
 326 0 l 1,10,-1
 197 0 l 1,11,-1
 197 398 l 2,12,13
 197 410 197 410 192 419 c 128,-1,14
 187 428 187 428 172 428 c 0,15,16
 156 428 156 428 151 418.5 c 128,-1,17
 146 409 146 409 146 394 c 2,18,-1
 146 0 l 1,19,-1
 18 0 l 1,20,-1
 18 744 l 1,0,-1
EndSplineSet
Validated: 1
EndChar

StartChar: i
Encoding: 105 105 77
Width: 164
GlyphClass: 2
Flags: W
LayerCount: 2
Fore
SplineSet
146 0 m 1,0,-1
 18 0 l 1,1,-1
 18 538 l 1,2,-1
 146 538 l 1,3,-1
 146 0 l 1,0,-1
146 564 m 1,4,-1
 18 564 l 1,5,-1
 18 690 l 1,6,-1
 146 690 l 1,7,-1
 146 564 l 1,4,-1
EndSplineSet
Validated: 1
Substitution2: "Single Substitution lookup 32 subtable" idotaccent
EndChar

StartChar: j
Encoding: 106 106 78
Width: 165
GlyphClass: 2
Flags: W
LayerCount: 2
Fore
SplineSet
147 564 m 1,0,-1
 19 564 l 1,1,-1
 19 690 l 1,2,-1
 147 690 l 1,3,-1
 147 564 l 1,0,-1
1 -69 m 2,4,5
 11 -69 11 -69 15 -65 c 128,-1,6
 19 -61 19 -61 19 -48 c 2,7,-1
 19 538 l 1,8,-1
 147 538 l 1,9,-1
 147 -116 l 2,10,11
 147 -145 147 -145 127.5 -166.5 c 128,-1,12
 108 -188 108 -188 73 -188 c 2,13,-1
 -51 -188 l 1,14,-1
 -51 -69 l 1,15,-1
 1 -69 l 2,4,5
EndSplineSet
Validated: 1
Substitution2: "Single Substitution lookup 33 subtable" j.short
EndChar

StartChar: k
Encoding: 107 107 79
Width: 346
GlyphClass: 2
Flags: W
LayerCount: 2
Fore
SplineSet
221 538 m 1,0,-1
 343 538 l 1,1,-1
 248 312 l 1,2,-1
 350 0 l 1,3,-1
 223 0 l 1,4,-1
 146 239 l 1,5,-1
 146 0 l 1,6,-1
 18 0 l 1,7,-1
 18 744 l 1,8,-1
 146 744 l 1,9,-1
 146 351 l 1,10,-1
 221 538 l 1,0,-1
EndSplineSet
Validated: 1
EndChar

StartChar: l
Encoding: 108 108 80
Width: 164
GlyphClass: 2
Flags: W
LayerCount: 2
Fore
SplineSet
146 0 m 1,0,-1
 18 0 l 1,1,-1
 18 744 l 1,2,-1
 146 744 l 1,3,-1
 146 0 l 1,0,-1
EndSplineSet
Validated: 1
EndChar

StartChar: m
Encoding: 109 109 81
Width: 516
GlyphClass: 2
Flags: W
LayerCount: 2
Fore
SplineSet
18 538 m 1,0,-1
 145 538 l 1,1,-1
 145 475 l 1,2,3
 151 484 151 484 160.5 496 c 128,-1,4
 170 508 170 508 181.5 518 c 128,-1,5
 193 528 193 528 207 535 c 128,-1,6
 221 542 221 542 237 542 c 2,7,-1
 241 542 l 2,8,9
 274 542 274 542 294 522 c 128,-1,10
 314 502 314 502 320 476 c 1,11,12
 327 487 327 487 337 499 c 128,-1,13
 347 511 347 511 359 520.5 c 128,-1,14
 371 530 371 530 385 536 c 128,-1,15
 399 542 399 542 416 542 c 2,16,-1
 421 542 l 2,17,18
 459 542 459 542 478.5 517 c 128,-1,19
 498 492 498 492 498 456 c 2,20,-1
 498 0 l 1,21,-1
 370 0 l 1,22,-1
 370 392 l 2,23,24
 370 408 370 408 366 418 c 128,-1,25
 362 428 362 428 346 428 c 0,26,27
 332 428 332 428 327.5 420.5 c 128,-1,28
 323 413 323 413 322 400 c 2,29,-1
 322 0 l 1,30,-1
 194 0 l 1,31,-1
 194 392 l 2,32,33
 194 408 194 408 190 418 c 128,-1,34
 186 428 186 428 169 428 c 0,35,36
 155 428 155 428 150.5 418.5 c 128,-1,37
 146 409 146 409 146 392 c 2,38,-1
 146 0 l 1,39,-1
 18 0 l 1,40,-1
 18 538 l 1,0,-1
EndSplineSet
Validated: 1
EndChar

StartChar: n
Encoding: 110 110 82
Width: 344
GlyphClass: 2
Flags: W
LayerCount: 2
Fore
SplineSet
18 538 m 1,0,-1
 145 538 l 1,1,-1
 145 473 l 1,2,3
 163 500 163 500 186 520 c 128,-1,4
 209 540 209 540 242 540 c 2,5,-1
 249 540 l 2,6,7
 271 540 271 540 286 530.5 c 128,-1,8
 301 521 301 521 310 507.5 c 128,-1,9
 319 494 319 494 322.5 478 c 128,-1,10
 326 462 326 462 326 450 c 2,11,-1
 326 0 l 1,12,-1
 197 0 l 1,13,-1
 197 396 l 2,14,15
 197 410 197 410 192 419 c 128,-1,16
 187 428 187 428 172 428 c 0,17,18
 156 428 156 428 151 418.5 c 128,-1,19
 146 409 146 409 146 392 c 2,20,-1
 146 0 l 1,21,-1
 18 0 l 1,22,-1
 18 538 l 1,0,-1
EndSplineSet
Validated: 1
EndChar

StartChar: o
Encoding: 111 111 83
Width: 341
GlyphClass: 2
Flags: W
LayerCount: 2
Fore
SplineSet
15 142 m 2,0,-1
 15 397 l 2,1,2
 15 470 15 470 52 509 c 128,-1,3
 89 548 89 548 155 548 c 2,4,-1
 185 548 l 2,5,6
 251 548 251 548 288.5 509.5 c 128,-1,7
 326 471 326 471 326 399 c 2,8,-1
 326 144 l 2,9,10
 326 111 326 111 316.5 83 c 128,-1,11
 307 55 307 55 288.5 34 c 128,-1,12
 270 13 270 13 244 1.5 c 128,-1,13
 218 -10 218 -10 185 -10 c 2,14,-1
 155 -10 l 2,15,16
 118 -10 118 -10 91.5 1.5 c 128,-1,17
 65 13 65 13 48 33.5 c 128,-1,18
 31 54 31 54 23 82 c 128,-1,19
 15 110 15 110 15 142 c 2,0,-1
144 400 m 2,20,-1
 144 144 l 2,21,22
 144 128 144 128 149 117 c 128,-1,23
 154 106 154 106 170 106 c 0,24,25
 187 106 187 106 192 117.5 c 128,-1,26
 197 129 197 129 197 144 c 2,27,-1
 197 400 l 2,28,29
 197 417 197 417 191.5 427 c 128,-1,30
 186 437 186 437 170 437 c 0,31,32
 155 437 155 437 149.5 427 c 128,-1,33
 144 417 144 417 144 400 c 2,20,-1
EndSplineSet
Validated: 1
EndChar

StartChar: p
Encoding: 112 112 84
Width: 344
GlyphClass: 2
Flags: W
LayerCount: 2
Fore
SplineSet
146 538 m 1,0,-1
 146 479 l 1,1,2
 160 502 160 502 182.5 523 c 128,-1,3
 205 544 205 544 240 544 c 2,4,-1
 242 544 l 2,5,6
 287 544 287 544 307 512 c 128,-1,7
 327 480 327 480 327 429 c 2,8,-1
 327 108 l 2,9,10
 327 54 327 54 300 21.5 c 128,-1,11
 273 -11 273 -11 237 -11 c 2,12,-1
 235 -11 l 2,13,14
 205 -11 205 -11 183.5 6 c 128,-1,15
 162 23 162 23 146 47 c 1,16,-1
 146 -188 l 1,17,-1
 18 -188 l 1,18,-1
 18 538 l 1,19,-1
 146 538 l 1,0,-1
146 130 m 2,20,21
 146 94 146 94 171 94 c 0,22,23
 185 94 185 94 190.5 103.5 c 128,-1,24
 196 113 196 113 196 129 c 2,25,-1
 196 402 l 2,26,27
 196 418 196 418 190.5 427 c 128,-1,28
 185 436 185 436 171 436 c 256,29,30
 157 436 157 436 151.5 426.5 c 128,-1,31
 146 417 146 417 146 402 c 2,32,-1
 146 130 l 2,20,21
EndSplineSet
Validated: 1
EndChar

StartChar: q
Encoding: 113 113 85
Width: 344
GlyphClass: 2
Flags: W
LayerCount: 2
Fore
SplineSet
326 538 m 1,0,-1
 326 -188 l 1,1,-1
 198 -188 l 1,2,-1
 198 59 l 1,3,4
 193 49 193 49 185 37 c 128,-1,5
 177 25 177 25 165.5 14.5 c 128,-1,6
 154 4 154 4 139.5 -3 c 128,-1,7
 125 -10 125 -10 108 -10 c 2,8,-1
 102 -10 l 2,9,10
 82 -10 82 -10 66.5 0 c 128,-1,11
 51 10 51 10 40 25.5 c 128,-1,12
 29 41 29 41 23 61.5 c 128,-1,13
 17 82 17 82 17 103 c 2,14,-1
 17 413 l 2,15,16
 17 438 17 438 22 461.5 c 128,-1,17
 27 485 27 485 38 503.5 c 128,-1,18
 49 522 49 522 68 533 c 128,-1,19
 87 544 87 544 116 544 c 2,20,-1
 124 544 l 2,21,22
 143 544 143 544 157.5 536.5 c 128,-1,23
 172 529 172 529 184 517 c 128,-1,24
 196 505 196 505 205 490 c 128,-1,25
 214 475 214 475 222 460 c 1,26,27
 227 472 227 472 231.5 493.5 c 128,-1,28
 236 515 236 515 238 538 c 1,29,-1
 326 538 l 1,0,-1
198 398 m 2,30,31
 198 434 198 434 171 434 c 0,32,33
 157 434 157 434 152 423.5 c 128,-1,34
 147 413 147 413 147 398 c 2,35,-1
 147 131 l 2,36,37
 147 96 147 96 172 96 c 0,38,39
 186 96 186 96 192 106.5 c 128,-1,40
 198 117 198 117 198 135 c 2,41,-1
 198 398 l 2,30,31
EndSplineSet
Validated: 1
EndChar

StartChar: r
Encoding: 114 114 86
Width: 308
GlyphClass: 2
Flags: W
LayerCount: 2
Fore
SplineSet
145 471 m 2,0,1
 148 479 148 479 154.5 491 c 128,-1,2
 161 503 161 503 171 514 c 128,-1,3
 181 525 181 525 195.5 533 c 128,-1,4
 210 541 210 541 230 541 c 2,5,-1
 236 541 l 2,6,7
 268 541 268 541 282.5 523 c 128,-1,8
 297 505 297 505 297 475 c 2,9,-1
 297 280 l 1,10,-1
 178 280 l 1,11,-1
 178 403 l 2,12,13
 178 417 178 417 175 423 c 128,-1,14
 172 429 172 429 162 429 c 256,15,16
 152 429 152 429 149 422.5 c 128,-1,17
 146 416 146 416 146 403 c 2,18,-1
 146 0 l 1,19,-1
 18 0 l 1,20,-1
 18 538 l 1,21,-1
 145 538 l 1,22,-1
 145 471 l 2,0,1
EndSplineSet
Validated: 1
Substitution2: "'salt' Stylistic Alternatives in Latin lookup 29 subtable" r.alt
Substitution2: "'ss01' Style Set 1 in Latin lookup 21 subtable" r.alt
EndChar

StartChar: s
Encoding: 115 115 87
Width: 302
GlyphClass: 2
Flags: W
LayerCount: 2
Fore
SplineSet
289 446 m 2,0,-1
 289 373 l 1,1,-1
 175 373 l 1,2,-1
 175 429 l 2,3,4
 175 442 175 442 170.5 449.5 c 128,-1,5
 166 457 166 457 154 457 c 0,6,7
 141 457 141 457 137 449 c 128,-1,8
 133 441 133 441 133 429 c 2,9,-1
 133 418 l 2,10,11
 133 400 133 400 137.5 390 c 128,-1,12
 142 380 142 380 156 366 c 2,13,-1
 227 296 l 2,14,15
 248 275 248 275 261 257.5 c 128,-1,16
 274 240 274 240 282 222.5 c 128,-1,17
 290 205 290 205 293 186.5 c 128,-1,18
 296 168 296 168 296 147 c 2,19,-1
 296 129 l 2,20,21
 296 101 296 101 288 76 c 128,-1,22
 280 51 280 51 264 32 c 128,-1,23
 248 13 248 13 222.5 2 c 128,-1,24
 197 -9 197 -9 163 -9 c 2,25,-1
 137 -9 l 2,26,27
 102 -9 102 -9 77.5 0 c 128,-1,28
 53 9 53 9 37 25 c 128,-1,29
 21 41 21 41 14 62.5 c 128,-1,30
 7 84 7 84 7 108 c 2,31,-1
 7 196 l 1,32,-1
 125 196 l 1,33,-1
 125 124 l 2,34,35
 125 94 125 94 148 94 c 2,36,-1
 149 94 l 2,37,38
 170 94 170 94 170 125 c 2,39,-1
 170 137 l 2,40,41
 170 157 170 157 165 172 c 128,-1,42
 160 187 160 187 142 204 c 2,43,-1
 74 269 l 2,44,45
 38 304 38 304 26 336.5 c 128,-1,46
 14 369 14 369 14 411 c 2,47,-1
 14 428 l 2,48,49
 14 482 14 482 45 515 c 128,-1,50
 76 548 76 548 140 548 c 2,51,-1
 167 548 l 2,52,53
 235 548 235 548 262 519.5 c 128,-1,54
 289 491 289 491 289 446 c 2,0,-1
EndSplineSet
Validated: 1
EndChar

StartChar: t
Encoding: 116 116 88
Width: 267
GlyphClass: 2
Flags: W
LayerCount: 2
Fore
SplineSet
128 0 m 2,0,1
 102 0 102 0 84.5 18.5 c 128,-1,2
 67 37 67 37 67 66 c 2,3,-1
 67 419 l 1,4,-1
 6 419 l 1,5,-1
 6 538 l 1,6,-1
 67 538 l 1,7,-1
 67 716 l 1,8,-1
 194 716 l 1,9,-1
 194 538 l 1,10,-1
 256 538 l 1,11,-1
 256 419 l 1,12,-1
 194 419 l 1,13,-1
 194 143 l 2,14,15
 194 132 194 132 197 126.5 c 128,-1,16
 200 121 200 121 213 121 c 2,17,-1
 256 121 l 1,18,-1
 256 0 l 1,19,-1
 128 0 l 2,0,1
EndSplineSet
Validated: 1
EndChar

StartChar: u
Encoding: 117 117 89
Width: 339
GlyphClass: 2
Flags: W
LayerCount: 2
Fore
SplineSet
321 0 m 1,0,-1
 197 0 l 1,1,-1
 197 66 l 1,2,3
 179 39 179 39 157 18.5 c 128,-1,4
 135 -2 135 -2 100 -2 c 2,5,-1
 96 -2 l 2,6,7
 77 -2 77 -2 62.5 6.5 c 128,-1,8
 48 15 48 15 38 28.5 c 128,-1,9
 28 42 28 42 23 58.5 c 128,-1,10
 18 75 18 75 18 91 c 2,11,-1
 18 538 l 1,12,-1
 147 538 l 1,13,-1
 147 143 l 2,14,15
 147 129 147 129 151.5 119.5 c 128,-1,16
 156 110 156 110 169 110 c 0,17,18
 184 110 184 110 189 120 c 128,-1,19
 194 130 194 130 194 146 c 2,20,-1
 194 538 l 1,21,-1
 321 538 l 1,22,-1
 321 0 l 1,0,-1
EndSplineSet
Validated: 1
EndChar

StartChar: v
Encoding: 118 118 90
Width: 313
GlyphClass: 2
Flags: W
LayerCount: 2
Fore
SplineSet
-2 538 m 1,0,-1
 122 538 l 1,1,-1
 157 195 l 1,2,-1
 193 538 l 1,3,-1
 315 538 l 1,4,-1
 227 0 l 1,5,-1
 80 0 l 1,6,-1
 -2 538 l 1,0,-1
EndSplineSet
Validated: 1
EndChar

StartChar: w
Encoding: 119 119 91
Width: 498
GlyphClass: 2
Flags: W
LayerCount: 2
Fore
SplineSet
79 0 m 1,0,-1
 -2 538 l 1,1,-1
 124 538 l 1,2,-1
 159 205 l 1,3,-1
 196 538 l 1,4,-1
 309 538 l 1,5,-1
 345 201 l 1,6,-1
 380 538 l 1,7,-1
 500 538 l 1,8,-1
 418 0 l 1,9,-1
 285 0 l 1,10,-1
 250 292 l 1,11,-1
 216 0 l 1,12,-1
 79 0 l 1,0,-1
EndSplineSet
Validated: 1
EndChar

StartChar: x
Encoding: 120 120 92
Width: 315
GlyphClass: 2
Flags: W
LayerCount: 2
Fore
SplineSet
3 538 m 1,0,-1
 125 538 l 1,1,-1
 160 384 l 1,2,-1
 191 538 l 1,3,-1
 308 538 l 1,4,-1
 240 293 l 1,5,-1
 317 0 l 1,6,-1
 195 0 l 1,7,-1
 157 170 l 1,8,-1
 117 0 l 1,9,-1
 -2 0 l 1,10,-1
 75 289 l 1,11,-1
 3 538 l 1,0,-1
EndSplineSet
Validated: 1
EndChar

StartChar: y
Encoding: 121 121 93
Width: 315
GlyphClass: 2
Flags: W
LayerCount: 2
Fore
SplineSet
-2 538 m 1,0,-1
 124 538 l 1,1,-1
 160 241 l 1,2,-1
 195 538 l 1,3,-1
 318 538 l 1,4,-1
 205 -107 l 2,5,6
 197 -149 197 -149 178.5 -168.5 c 128,-1,7
 160 -188 160 -188 131 -188 c 2,8,-1
 15 -188 l 1,9,-1
 15 -69 l 1,10,-1
 68 -69 l 2,11,12
 81 -69 81 -69 84.5 -62.5 c 128,-1,13
 88 -56 88 -56 90 -42 c 2,14,-1
 92 -21 l 2,15,16
 93 -13 93 -13 93 -7.5 c 128,-1,17
 93 -2 93 -2 91 9 c 2,18,-1
 -2 538 l 1,0,-1
EndSplineSet
Validated: 1
EndChar

StartChar: z
Encoding: 122 122 94
Width: 270
GlyphClass: 2
Flags: W
LayerCount: 2
Fore
SplineSet
257 538 m 1,0,-1
 257 432 l 1,1,-1
 133 114 l 1,2,-1
 264 114 l 1,3,-1
 264 0 l 1,4,-1
 6 0 l 1,5,-1
 6 107 l 1,6,-1
 131 426 l 1,7,-1
 16 426 l 1,8,-1
 16 538 l 1,9,-1
 257 538 l 1,0,-1
EndSplineSet
Validated: 1
EndChar

StartChar: braceleft
Encoding: 123 123 95
Width: 210
GlyphClass: 2
Flags: W
LayerCount: 2
Fore
SplineSet
172 256 m 0,0,1
 172 236 172 236 167.5 202.5 c 128,-1,2
 163 169 163 169 158 133 c 128,-1,3
 153 97 153 97 148.5 64 c 128,-1,4
 144 31 144 31 144 13 c 0,5,6
 144 -10 144 -10 153 -25 c 128,-1,7
 162 -40 162 -40 187 -40 c 2,8,-1
 204 -40 l 1,9,-1
 204 -131 l 1,10,-1
 160 -131 l 2,11,12
 100 -131 100 -131 68 -100.5 c 128,-1,13
 36 -70 36 -70 36 -13 c 0,14,15
 36 6 36 6 41 40 c 128,-1,16
 46 74 46 74 51.5 112.5 c 128,-1,17
 57 151 57 151 62 188.5 c 128,-1,18
 67 226 67 226 67 253 c 0,19,20
 67 270 67 270 60.5 280.5 c 128,-1,21
 54 291 54 291 37 291 c 2,22,-1
 17 291 l 1,23,-1
 17 391 l 1,24,-1
 37 391 l 2,25,26
 54 391 54 391 60.5 399.5 c 128,-1,27
 67 408 67 408 67 425 c 0,28,29
 67 453 67 453 62 490.5 c 128,-1,30
 57 528 57 528 51.5 566.5 c 128,-1,31
 46 605 46 605 41 639.5 c 128,-1,32
 36 674 36 674 36 695 c 0,33,34
 36 752 36 752 68 780 c 128,-1,35
 100 808 100 808 160 808 c 2,36,-1
 204 808 l 1,37,-1
 204 716 l 1,38,-1
 183 716 l 2,39,40
 161 716 161 716 152.5 704.5 c 128,-1,41
 144 693 144 693 144 673 c 0,42,43
 144 656 144 656 148.5 623 c 128,-1,44
 153 590 153 590 158 554 c 128,-1,45
 163 518 163 518 167.5 484.5 c 128,-1,46
 172 451 172 451 172 432 c 0,47,48
 172 397 172 397 162 375 c 128,-1,49
 152 353 152 353 121 341 c 1,50,51
 152 329 152 329 162 307.5 c 128,-1,52
 172 286 172 286 172 256 c 0,0,1
EndSplineSet
Validated: 1
Substitution2: "'case' Case-Sensitive Forms in Latin lookup 25 subtable" braceleft.uc
EndChar

StartChar: bar
Encoding: 124 124 96
Width: 171
GlyphClass: 2
Flags: W
LayerCount: 2
Fore
SplineSet
131 -131 m 1,0,-1
 40 -131 l 1,1,-1
 40 808 l 1,2,-1
 131 808 l 1,3,-1
 131 -131 l 1,0,-1
EndSplineSet
Validated: 1
Substitution2: "'case' Case-Sensitive Forms in Latin lookup 25 subtable" bar.uc
EndChar

StartChar: braceright
Encoding: 125 125 97
Width: 210
GlyphClass: 2
Flags: W
LayerCount: 2
Fore
SplineSet
37 432 m 0,0,1
 37 451 37 451 41.5 484.5 c 128,-1,2
 46 518 46 518 51.5 554 c 128,-1,3
 57 590 57 590 61.5 623 c 128,-1,4
 66 656 66 656 66 673 c 0,5,6
 66 693 66 693 57.5 704.5 c 128,-1,7
 49 716 49 716 27 716 c 2,8,-1
 6 716 l 1,9,-1
 6 808 l 1,10,-1
 50 808 l 2,11,12
 108 808 108 808 141 780 c 128,-1,13
 174 752 174 752 174 695 c 0,14,15
 174 674 174 674 169 639.5 c 128,-1,16
 164 605 164 605 158 566.5 c 128,-1,17
 152 528 152 528 147 490.5 c 128,-1,18
 142 453 142 453 142 425 c 0,19,20
 142 408 142 408 148.5 399.5 c 128,-1,21
 155 391 155 391 172 391 c 2,22,-1
 193 391 l 1,23,-1
 193 291 l 1,24,-1
 172 291 l 2,25,26
 155 291 155 291 148.5 280.5 c 128,-1,27
 142 270 142 270 142 253 c 0,28,29
 142 226 142 226 147 188.5 c 128,-1,30
 152 151 152 151 158 112.5 c 128,-1,31
 164 74 164 74 169 40 c 128,-1,32
 174 6 174 6 174 -13 c 0,33,34
 174 -70 174 -70 142 -100.5 c 128,-1,35
 110 -131 110 -131 50 -131 c 2,36,-1
 6 -131 l 1,37,-1
 6 -40 l 1,38,-1
 22 -40 l 2,39,40
 48 -40 48 -40 57 -25 c 128,-1,41
 66 -10 66 -10 66 13 c 0,42,43
 66 31 66 31 61.5 64 c 128,-1,44
 57 97 57 97 51.5 133 c 128,-1,45
 46 169 46 169 41.5 202.5 c 128,-1,46
 37 236 37 236 37 256 c 0,47,48
 37 286 37 286 47 307.5 c 128,-1,49
 57 329 57 329 88 341 c 1,50,51
 57 353 57 353 47 375 c 128,-1,52
 37 397 37 397 37 432 c 0,0,1
EndSplineSet
Validated: 1
Substitution2: "'case' Case-Sensitive Forms in Latin lookup 25 subtable" braceright.uc
EndChar

StartChar: asciitilde
Encoding: 126 126 98
Width: 284
GlyphClass: 2
Flags: W
LayerCount: 2
Fore
SplineSet
134 345 m 0,0,1
 120 361 120 361 113.5 367.5 c 128,-1,2
 107 374 107 374 102 374 c 0,3,4
 95 374 95 374 95 363 c 2,5,-1
 95 301 l 1,6,-1
 11 301 l 1,7,-1
 11 419 l 2,8,9
 11 447 11 447 27 470.5 c 128,-1,10
 43 494 43 494 78 494 c 0,11,12
 100 494 100 494 116 484 c 128,-1,13
 132 474 132 474 152 452 c 0,14,15
 166 436 166 436 172 430.5 c 128,-1,16
 178 425 178 425 182 425 c 0,17,18
 189 425 189 425 189 435 c 2,19,-1
 189 498 l 1,20,-1
 273 498 l 1,21,-1
 273 379 l 2,22,23
 273 345 273 345 254 324.5 c 128,-1,24
 235 304 235 304 207 304 c 0,25,26
 185 304 185 304 169.5 313 c 128,-1,27
 154 322 154 322 134 345 c 0,0,1
EndSplineSet
Validated: 1
EndChar

StartChar: cent
Encoding: 162 162 100
Width: 327
GlyphClass: 2
Flags: W
LayerCount: 2
Fore
SplineSet
315 125 m 2,0,1
 315 98 315 98 307.5 74 c 128,-1,2
 300 50 300 50 284 31.5 c 128,-1,3
 268 13 268 13 243.5 1.5 c 128,-1,4
 219 -10 219 -10 186 -11 c 1,5,-1
 186 -75 l 1,6,-1
 152 -75 l 1,7,-1
 152 -11 l 1,8,9
 79 -9 79 -9 47 30.5 c 128,-1,10
 15 70 15 70 15 129 c 2,11,-1
 15 400 l 2,12,13
 15 467 15 467 47.5 507 c 128,-1,14
 80 547 80 547 152 548 c 1,15,-1
 152 612 l 1,16,-1
 186 612 l 1,17,-1
 186 548 l 1,18,19
 257 547 257 547 286 510 c 128,-1,20
 315 473 315 473 315 418 c 2,21,-1
 315 330 l 1,22,-1
 207 330 l 1,23,-1
 207 407 l 2,24,25
 207 421 207 421 202.5 431 c 128,-1,26
 198 441 198 441 186 446 c 1,27,-1
 186 96 l 1,28,29
 197 101 197 101 201.5 111.5 c 128,-1,30
 206 122 206 122 206 134 c 2,31,-1
 206 242 l 1,32,-1
 315 242 l 1,33,-1
 315 125 l 2,0,1
132 408 m 2,34,-1
 132 134 l 2,35,36
 132 121 132 121 136.5 110.5 c 128,-1,37
 141 100 141 100 152 95 c 1,38,-1
 152 446 l 1,39,40
 140 442 140 442 136 432 c 128,-1,41
 132 422 132 422 132 408 c 2,34,-1
EndSplineSet
Validated: 1
EndChar

StartChar: sterling
Encoding: 163 163 101
Width: 415
GlyphClass: 2
Flags: W
LayerCount: 2
Fore
SplineSet
207 252 m 0,0,1
 207 204 207 204 192 173.5 c 128,-1,2
 177 143 177 143 151 117 c 1,3,-1
 276 117 l 1,4,-1
 276 249 l 1,5,-1
 400 249 l 1,6,-1
 400 0 l 1,7,-1
 8 0 l 1,8,-1
 8 89 l 1,9,10
 32 106 32 106 47.5 122 c 128,-1,11
 63 138 63 138 71.5 155.5 c 128,-1,12
 80 173 80 173 83 193.5 c 128,-1,13
 86 214 86 214 86 241 c 0,14,15
 86 249 86 249 84.5 267.5 c 128,-1,16
 83 286 83 286 81 310 c 1,17,-1
 8 310 l 1,18,-1
 8 420 l 1,19,-1
 70 420 l 1,20,21
 67 453 67 453 65 480 c 128,-1,22
 63 507 63 507 63 521 c 2,23,-1
 63 590 l 2,24,25
 63 624 63 624 70 654 c 128,-1,26
 77 684 77 684 94.5 706 c 128,-1,27
 112 728 112 728 140.5 740.5 c 128,-1,28
 169 753 169 753 213 753 c 2,29,-1
 243 753 l 2,30,31
 284 753 284 753 310.5 740.5 c 128,-1,32
 337 728 337 728 352.5 708 c 128,-1,33
 368 688 368 688 374 662.5 c 128,-1,34
 380 637 380 637 380 611 c 2,35,-1
 380 483 l 1,36,-1
 257 483 l 1,37,-1
 257 590 l 2,38,39
 257 610 257 610 251.5 621 c 128,-1,40
 246 632 246 632 228 632 c 256,41,42
 210 632 210 632 204 622 c 128,-1,43
 198 612 198 612 198 590 c 2,44,-1
 198 508 l 2,45,46
 198 491 198 491 198.5 468.5 c 128,-1,47
 199 446 199 446 200 420 c 1,48,-1
 326 420 l 1,49,-1
 326 310 l 1,50,-1
 206 310 l 1,51,52
 207 293 207 293 207 278.5 c 128,-1,53
 207 264 207 264 207 252 c 0,0,1
EndSplineSet
Validated: 1
EndChar

StartChar: yen
Encoding: 165 165 102
Width: 358
GlyphClass: 2
Flags: W
LayerCount: 2
Fore
SplineSet
245 0 m 1,0,-1
 112 0 l 1,1,-1
 112 218 l 1,2,-1
 13 218 l 1,3,-1
 13 302 l 1,4,-1
 112 302 l 1,5,-1
 112 328 l 1,6,-1
 13 328 l 1,7,-1
 13 412 l 1,8,-1
 98 412 l 1,9,-1
 2 744 l 1,10,-1
 133 744 l 1,11,-1
 181 503 l 1,12,-1
 226 744 l 1,13,-1
 345 744 l 1,14,-1
 257 412 l 1,15,-1
 345 412 l 1,16,-1
 345 328 l 1,17,-1
 245 328 l 1,18,-1
 245 302 l 1,19,-1
 345 302 l 1,20,-1
 345 218 l 1,21,-1
 245 218 l 1,22,-1
 245 0 l 1,0,-1
EndSplineSet
Validated: 1
EndChar

StartChar: brokenbar
Encoding: 166 166 103
Width: 171
GlyphClass: 2
Flags: W
LayerCount: 2
Fore
SplineSet
131 -131 m 1,0,-1
 40 -131 l 1,1,-1
 40 343 l 1,2,-1
 131 343 l 1,3,-1
 131 -131 l 1,0,-1
131 382 m 1,4,-1
 40 382 l 1,5,-1
 40 808 l 1,6,-1
 131 808 l 1,7,-1
 131 382 l 1,4,-1
EndSplineSet
Validated: 1
EndChar

StartChar: section
Encoding: 167 167 104
Width: 405
GlyphClass: 2
Flags: W
LayerCount: 2
Fore
SplineSet
394 251 m 2,0,1
 394 200 394 200 368.5 175 c 128,-1,2
 343 150 343 150 309 140 c 1,3,4
 339 110 339 110 348 84.5 c 128,-1,5
 357 59 357 59 357 20 c 2,6,-1
 357 -45 l 2,7,8
 357 -114 357 -114 321 -154.5 c 128,-1,9
 285 -195 285 -195 209 -195 c 2,10,-1
 178 -195 l 2,11,12
 41 -195 41 -195 41 -51 c 2,13,-1
 41 53 l 1,14,-1
 169 53 l 1,15,-1
 169 -46 l 2,16,17
 169 -80 169 -80 197 -80 c 0,18,19
 211 -80 211 -80 216.5 -72 c 128,-1,20
 222 -64 222 -64 222 -44 c 2,21,-1
 222 0 l 2,22,23
 222 28 222 28 214.5 45.5 c 128,-1,24
 207 63 207 63 179 87 c 2,25,-1
 91 156 l 2,26,27
 66 175 66 175 50.5 192 c 128,-1,28
 35 209 35 209 26 226.5 c 128,-1,29
 17 244 17 244 14 264.5 c 128,-1,30
 11 285 11 285 11 311 c 2,31,-1
 11 344 l 2,32,33
 11 389 11 389 33 413 c 128,-1,34
 55 437 55 437 93 448 c 1,35,36
 69 475 69 475 60 506.5 c 128,-1,37
 51 538 51 538 51 587 c 2,38,-1
 51 606 l 2,39,40
 51 637 51 637 58.5 663.5 c 128,-1,41
 66 690 66 690 84 710 c 128,-1,42
 102 730 102 730 131 741.5 c 128,-1,43
 160 753 160 753 204 753 c 2,44,-1
 222 753 l 2,45,46
 300 753 300 753 332 718 c 128,-1,47
 364 683 364 683 364 607 c 2,48,-1
 364 528 l 1,49,-1
 238 528 l 1,50,-1
 238 605 l 2,51,52
 238 626 238 626 232 633.5 c 128,-1,53
 226 641 226 641 211 641 c 0,54,55
 195 641 195 641 190 631.5 c 128,-1,56
 185 622 185 622 185 605 c 2,57,-1
 185 588 l 2,58,59
 185 571 185 571 186.5 559 c 128,-1,60
 188 547 188 547 192.5 537.5 c 128,-1,61
 197 528 197 528 204.5 519 c 128,-1,62
 212 510 212 510 225 499 c 0,63,64
 230 495 230 495 241.5 486 c 128,-1,65
 253 477 253 477 266 467 c 128,-1,66
 279 457 279 457 291.5 447 c 128,-1,67
 304 437 304 437 311 431 c 0,68,69
 338 408 338 408 354.5 390 c 128,-1,70
 371 372 371 372 379.5 355 c 128,-1,71
 388 338 388 338 391 319 c 128,-1,72
 394 300 394 300 394 275 c 2,73,-1
 394 251 l 2,0,1
157 379 m 1,74,75
 133 374 133 374 133 346 c 2,76,-1
 133 329 l 2,77,78
 132 308 132 308 140.5 295 c 128,-1,79
 149 282 149 282 175 262 c 2,80,-1
 243 209 l 1,81,82
 254 211 254 211 260.5 218.5 c 128,-1,83
 267 226 267 226 267 249 c 2,84,-1
 267 259 l 2,85,86
 267 269 267 269 265 277 c 128,-1,87
 263 285 263 285 258.5 292.5 c 128,-1,88
 254 300 254 300 245.5 308 c 128,-1,89
 237 316 237 316 224 327 c 2,90,-1
 157 379 l 1,74,75
EndSplineSet
Validated: 33
EndChar

StartChar: dieresis
Encoding: 168 168 105
Width: 342
GlyphClass: 2
Flags: W
LayerCount: 2
Fore
SplineSet
159 564 m 1,0,-1
 59 564 l 1,1,-1
 59 670 l 1,2,-1
 159 670 l 1,3,-1
 159 564 l 1,0,-1
283 564 m 1,4,-1
 183 564 l 1,5,-1
 183 670 l 1,6,-1
 283 670 l 1,7,-1
 283 564 l 1,4,-1
EndSplineSet
Validated: 1
EndChar

StartChar: copyright
Encoding: 169 169 106
Width: 519
GlyphClass: 2
Flags: W
LayerCount: 2
Fore
SplineSet
256 -11 m 2,0,1
 200 -11 200 -11 156 4 c 128,-1,2
 112 19 112 19 81.5 50 c 128,-1,3
 51 81 51 81 35 129 c 128,-1,4
 19 177 19 177 19 244 c 2,5,-1
 19 502 l 2,6,7
 19 628 19 628 82 691.5 c 128,-1,8
 145 755 145 755 257 755 c 2,9,-1
 269 755 l 2,10,11
 381 755 381 755 440.5 693 c 128,-1,12
 500 631 500 631 500 502 c 2,13,-1
 500 244 l 2,14,15
 500 176 500 176 482.5 128 c 128,-1,16
 465 80 465 80 433.5 49 c 128,-1,17
 402 18 402 18 359.5 3.5 c 128,-1,18
 317 -11 317 -11 266 -11 c 2,19,-1
 256 -11 l 2,0,1
258 56 m 2,20,-1
 266 56 l 2,21,22
 309 56 309 56 339 70.5 c 128,-1,23
 369 85 369 85 388 111.5 c 128,-1,24
 407 138 407 138 415.5 175.5 c 128,-1,25
 424 213 424 213 424 259 c 2,26,-1
 424 489 l 2,27,28
 424 532 424 532 416 568.5 c 128,-1,29
 408 605 408 605 390 631.5 c 128,-1,30
 372 658 372 658 342 673 c 128,-1,31
 312 688 312 688 268 688 c 2,32,-1
 258 688 l 2,33,34
 169 688 169 688 133 636 c 128,-1,35
 97 584 97 584 97 489 c 2,36,-1
 97 259 l 2,37,38
 97 163 97 163 134.5 109.5 c 128,-1,39
 172 56 172 56 258 56 c 2,20,-1
264 207 m 256,40,41
 275 207 275 207 278 214.5 c 128,-1,42
 281 222 281 222 281 233 c 2,43,-1
 281 340 l 1,44,-1
 385 340 l 1,45,-1
 385 223 l 2,46,47
 385 174 385 174 354.5 142 c 128,-1,48
 324 110 324 110 273 110 c 2,49,-1
 255 110 l 2,50,51
 195 110 195 110 166.5 144 c 128,-1,52
 138 178 138 178 138 232 c 2,53,-1
 138 508 l 2,54,55
 138 568 138 568 166 602 c 128,-1,56
 194 636 194 636 252 636 c 2,57,-1
 274 636 l 2,58,59
 297 636 297 636 317 630 c 128,-1,60
 337 624 337 624 352 610.5 c 128,-1,61
 367 597 367 597 375.5 575 c 128,-1,62
 384 553 384 553 384 521 c 2,63,-1
 384 439 l 1,64,-1
 280 439 l 1,65,-1
 280 514 l 2,66,67
 280 526 280 526 277.5 533 c 128,-1,68
 275 540 275 540 264 540 c 256,69,70
 253 540 253 540 249.5 533.5 c 128,-1,71
 246 527 246 527 246 514 c 2,72,-1
 246 233 l 2,73,74
 246 222 246 222 249.5 214.5 c 128,-1,75
 253 207 253 207 264 207 c 256,40,41
EndSplineSet
Validated: 1
EndChar

StartChar: ordfeminine
Encoding: 170 170 107
Width: 206
GlyphClass: 2
Flags: W
LayerCount: 2
Fore
SplineSet
185 526 m 2,0,1
 185 518 185 518 193 518 c 2,2,-1
 204 518 l 1,3,-1
 204 451 l 1,4,-1
 133 451 l 2,5,6
 122 451 122 451 116 459 c 128,-1,7
 110 467 110 467 110 488 c 1,8,9
 104 476 104 476 90 462 c 128,-1,10
 76 448 76 448 55 448 c 0,11,12
 32 448 32 448 21 465 c 128,-1,13
 10 482 10 482 10 503 c 2,14,-1
 10 556 l 2,15,16
 10 579 10 579 18.5 593 c 128,-1,17
 27 607 27 607 44 618 c 0,18,19
 49 621 49 621 58 626 c 128,-1,20
 67 631 67 631 76 635.5 c 128,-1,21
 85 640 85 640 93 644 c 128,-1,22
 101 648 101 648 105 650 c 0,23,24
 110 653 110 653 110 662 c 2,25,-1
 110 671 l 2,26,27
 110 687 110 687 98 687 c 2,28,-1
 97 687 l 2,29,30
 89 687 89 687 87 682.5 c 128,-1,31
 85 678 85 678 85 670 c 2,32,-1
 85 650 l 1,33,-1
 13 650 l 1,34,-1
 13 684 l 2,35,36
 13 694 13 694 16 705.5 c 128,-1,37
 19 717 19 717 27.5 726.5 c 128,-1,38
 36 736 36 736 51 742 c 128,-1,39
 66 748 66 748 89 748 c 2,40,-1
 103 748 l 2,41,42
 152 748 152 748 168.5 728.5 c 128,-1,43
 185 709 185 709 185 677 c 2,44,-1
 185 526 l 2,0,1
110 589 m 1,45,46
 99 584 99 584 93 578 c 0,47,48
 86 571 86 571 86 555 c 2,49,-1
 86 527 l 2,50,51
 86 510 86 510 97 510 c 0,52,53
 110 510 110 510 110 528 c 2,54,-1
 110 589 l 1,45,46
EndSplineSet
Validated: 1
Substitution2: "'salt' Stylistic Alternatives in Latin lookup 29 subtable" ordfeminine.alt
Substitution2: "'ss04' Style Set 4 in Latin lookup 24 subtable" ordfeminine.alt2
Substitution2: "'ss01' Style Set 1 in Latin lookup 21 subtable" ordfeminine.alt
EndChar

StartChar: guillemotleft
Encoding: 171 171 108
Width: 273
GlyphClass: 2
Flags: W
LayerCount: 2
Fore
SplineSet
152 119 m 1,0,-1
 60 119 l 1,1,-1
 12 256 l 1,2,-1
 12 316 l 1,3,-1
 60 451 l 1,4,-1
 152 451 l 1,5,-1
 102 286 l 1,6,-1
 152 119 l 1,0,-1
265 119 m 1,7,-1
 172 119 l 1,8,-1
 124 286 l 1,9,-1
 172 451 l 1,10,-1
 266 451 l 1,11,-1
 222 286 l 1,12,-1
 265 119 l 1,7,-1
EndSplineSet
Validated: 1
Substitution2: "'case' Case-Sensitive Forms in Latin lookup 25 subtable" guillemotleft.uc
EndChar

StartChar: registered
Encoding: 174 174 109
Width: 281
GlyphClass: 2
Flags: W
LayerCount: 2
Fore
SplineSet
138 399 m 2,0,1
 81 399 81 399 47 433 c 128,-1,2
 13 467 13 467 13 533 c 2,3,-1
 13 619 l 2,4,5
 13 679 13 679 45.5 714.5 c 128,-1,6
 78 750 78 750 138 750 c 2,7,-1
 147 750 l 2,8,9
 204 750 204 750 236 715 c 128,-1,10
 268 680 268 680 268 620 c 2,11,-1
 268 533 l 2,12,13
 268 502 268 502 258.5 477 c 128,-1,14
 249 452 249 452 232.5 435 c 128,-1,15
 216 418 216 418 193.5 408.5 c 128,-1,16
 171 399 171 399 146 399 c 2,17,-1
 138 399 l 2,0,1
138 436 m 2,18,-1
 146 436 l 2,19,20
 191 436 191 436 208.5 464.5 c 128,-1,21
 226 493 226 493 226 538 c 2,22,-1
 226 615 l 2,23,24
 226 656 226 656 208.5 684.5 c 128,-1,25
 191 713 191 713 147 713 c 2,26,-1
 138 713 l 2,27,28
 92 713 92 713 73.5 688 c 128,-1,29
 55 663 55 663 55 612 c 2,30,-1
 55 538 l 2,31,32
 55 493 55 493 73 464.5 c 128,-1,33
 91 436 91 436 138 436 c 2,18,-1
134 467 m 1,34,-1
 83 467 l 1,35,-1
 83 687 l 1,36,-1
 159 687 l 2,37,38
 199 687 199 687 199 647 c 2,39,-1
 199 617 l 2,40,41
 199 595 199 595 180 585 c 1,42,43
 191 582 191 582 195 574.5 c 128,-1,44
 199 567 199 567 199 556 c 2,45,-1
 199 491 l 2,46,47
 199 478 199 478 202 472 c 2,48,-1
 202 467 l 1,49,-1
 153 467 l 1,50,51
 150 474 150 474 150 487 c 2,52,-1
 150 547 l 2,53,54
 150 554 150 554 148.5 557 c 128,-1,55
 147 560 147 560 140 560 c 2,56,-1
 134 560 l 1,57,-1
 134 467 l 1,34,-1
134 599 m 1,58,-1
 141 599 l 2,59,60
 146 599 146 599 148 601.5 c 128,-1,61
 150 604 150 604 150 612 c 2,62,-1
 150 638 l 2,63,64
 150 650 150 650 141 650 c 2,65,-1
 134 650 l 1,66,-1
 134 599 l 1,58,-1
EndSplineSet
Validated: 1
EndChar

StartChar: macron
Encoding: 175 175 110
Width: 342
GlyphClass: 2
Flags: W
LayerCount: 2
Fore
SplineSet
76 663 m 1,0,-1
 267 663 l 1,1,-1
 267 576 l 1,2,-1
 76 576 l 1,3,-1
 76 663 l 1,0,-1
EndSplineSet
Validated: 1
EndChar

StartChar: degree
Encoding: 176 176 111
Width: 210
GlyphClass: 2
Flags: W
LayerCount: 2
Fore
SplineSet
5 649 m 256,0,1
 5 691 5 691 33 719 c 128,-1,2
 61 747 61 747 106 747 c 0,3,4
 149 747 149 747 177 719 c 128,-1,5
 205 691 205 691 205 649 c 256,6,7
 205 607 205 607 177 579.5 c 128,-1,8
 149 552 149 552 106 552 c 0,9,10
 61 552 61 552 33 579.5 c 128,-1,11
 5 607 5 607 5 649 c 256,0,1
69 650 m 0,12,13
 69 633 69 633 78 622.5 c 128,-1,14
 87 612 87 612 105 612 c 0,15,16
 122 612 122 612 131.5 622.5 c 128,-1,17
 141 633 141 633 141 650 c 0,18,19
 141 666 141 666 131 676.5 c 128,-1,20
 121 687 121 687 105 687 c 0,21,22
 87 687 87 687 78 676 c 128,-1,23
 69 665 69 665 69 650 c 0,12,13
EndSplineSet
Validated: 1
EndChar

StartChar: acute
Encoding: 180 180 112
Width: 342
GlyphClass: 2
Flags: W
LayerCount: 2
Fore
SplineSet
139 700 m 1,0,-1
 244 700 l 1,1,-1
 200 564 l 1,2,-1
 97 564 l 1,3,-1
 139 700 l 1,0,-1
EndSplineSet
Validated: 1
EndChar

StartChar: paragraph
Encoding: 182 182 113
Width: 377
GlyphClass: 2
Flags: W
LayerCount: 2
Fore
SplineSet
124 744 m 2,0,-1
 373 744 l 1,1,-1
 373 646 l 1,2,-1
 334 646 l 1,3,-1
 334 0 l 1,4,-1
 249 0 l 1,5,-1
 249 646 l 1,6,-1
 215 646 l 1,7,-1
 215 0 l 1,8,-1
 130 0 l 1,9,-1
 130 342 l 1,10,-1
 124 342 l 2,11,12
 72 342 72 342 42.5 368 c 128,-1,13
 13 394 13 394 13 445 c 2,14,-1
 13 644 l 2,15,16
 13 690 13 690 43 717 c 128,-1,17
 73 744 73 744 124 744 c 2,0,-1
EndSplineSet
Validated: 1
EndChar

StartChar: periodcentered
Encoding: 183 183 114
Width: 149
GlyphClass: 2
Flags: W
LayerCount: 2
Fore
SplineSet
134 244 m 1,0,-1
 15 244 l 1,1,-1
 15 388 l 1,2,-1
 134 388 l 1,3,-1
 134 244 l 1,0,-1
EndSplineSet
Validated: 1
EndChar

StartChar: cedilla
Encoding: 184 184 115
Width: 342
GlyphClass: 2
Flags: W
LayerCount: 2
Fore
SplineSet
154 -188 m 2,0,-1
 93 -188 l 1,1,-1
 93 -125 l 1,2,-1
 143 -125 l 2,3,4
 165 -125 165 -125 165 -108 c 2,5,-1
 165 -107 l 2,6,7
 165 -92 165 -92 143 -92 c 2,8,-1
 108 -92 l 1,9,-1
 108 0 l 1,10,-1
 168 0 l 1,11,-1
 168 -36 l 1,12,-1
 171 -36 l 2,13,14
 250 -39 250 -39 250 -108 c 2,15,-1
 250 -111 l 2,16,17
 250 -150 250 -150 223 -169 c 128,-1,18
 196 -188 196 -188 154 -188 c 2,0,-1
EndSplineSet
Validated: 1
EndChar

StartChar: ordmasculine
Encoding: 186 186 116
Width: 212
GlyphClass: 2
Flags: W
LayerCount: 2
Fore
SplineSet
97 448 m 2,0,1
 13 448 13 448 13 540 c 2,2,-1
 13 655 l 2,3,4
 13 700 13 700 35 724 c 128,-1,5
 57 748 57 748 97 748 c 2,6,-1
 115 748 l 2,7,8
 153 748 153 748 176 725 c 128,-1,9
 199 702 199 702 199 656 c 2,10,-1
 199 540 l 2,11,12
 199 497 199 497 176 472.5 c 128,-1,13
 153 448 153 448 115 448 c 2,14,-1
 97 448 l 2,0,1
92 535 m 2,15,16
 92 516 92 516 106 516 c 256,17,18
 120 516 120 516 120 535 c 2,19,-1
 120 662 l 2,20,21
 120 681 120 681 106 681 c 256,22,23
 92 681 92 681 92 662 c 2,24,-1
 92 535 l 2,15,16
EndSplineSet
Validated: 1
EndChar

StartChar: guillemotright
Encoding: 187 187 117
Width: 272
GlyphClass: 2
Flags: W
LayerCount: 2
Fore
SplineSet
170 285 m 1,0,-1
 120 451 l 1,1,-1
 213 451 l 1,2,-1
 260 314 l 1,3,-1
 260 255 l 1,4,-1
 212 119 l 1,5,-1
 120 119 l 1,6,-1
 170 285 l 1,0,-1
51 285 m 1,7,-1
 7 451 l 1,8,-1
 100 451 l 1,9,-1
 148 285 l 1,10,-1
 100 119 l 1,11,-1
 7 119 l 1,12,-1
 51 285 l 1,7,-1
EndSplineSet
Validated: 1
Substitution2: "'case' Case-Sensitive Forms in Latin lookup 25 subtable" guillemotright.uc
EndChar

StartChar: AE
Encoding: 198 198 128
Width: 515
GlyphClass: 2
Flags: W
LayerCount: 2
Fore
SplineSet
225 0 m 1,0,-1
 225 131 l 1,1,-1
 144 131 l 1,2,-1
 122 0 l 1,3,-1
 -6 0 l 1,4,-1
 134 744 l 1,5,-1
 496 744 l 1,6,-1
 496 612 l 1,7,-1
 358 612 l 1,8,-1
 358 451 l 1,9,-1
 465 451 l 1,10,-1
 465 316 l 1,11,-1
 358 316 l 1,12,-1
 358 134 l 1,13,-1
 506 134 l 1,14,-1
 506 0 l 1,15,-1
 225 0 l 1,0,-1
225 258 m 1,16,-1
 225 602 l 1,17,-1
 166 258 l 1,18,-1
 225 258 l 1,16,-1
EndSplineSet
Validated: 1
EndChar

StartChar: Eth
Encoding: 208 208 138
Width: 377
GlyphClass: 2
Flags: W
LayerCount: 2
Fore
SplineSet
25 744 m 1,0,-1
 214 744 l 2,1,2
 289 744 289 744 324 707 c 128,-1,3
 359 670 359 670 359 585 c 2,4,-1
 359 165 l 2,5,6
 359 85 359 85 327 42.5 c 128,-1,7
 295 0 295 0 214 0 c 2,8,-1
 25 0 l 1,9,-1
 25 325 l 1,10,-1
 0 325 l 1,11,-1
 0 443 l 1,12,-1
 25 443 l 1,13,-1
 25 744 l 1,0,-1
158 124 m 1,14,-1
 184 124 l 2,15,16
 207 124 207 124 215 136.5 c 128,-1,17
 223 149 223 149 223 176 c 2,18,-1
 223 576 l 2,19,20
 223 603 223 603 215 614.5 c 128,-1,21
 207 626 207 626 188 626 c 2,22,-1
 158 626 l 1,23,-1
 158 443 l 1,24,-1
 201 443 l 1,25,-1
 201 325 l 1,26,-1
 158 325 l 1,27,-1
 158 124 l 1,14,-1
EndSplineSet
Validated: 1
EndChar

StartChar: multiply
Encoding: 215 215 145
Width: 315
GlyphClass: 2
Flags: W
LayerCount: 2
Fore
SplineSet
157 236 m 1,0,-1
 73 149 l 1,1,-1
 10 209 l 1,2,-1
 95 298 l 1,3,-1
 9 386 l 1,4,-1
 74 452 l 1,5,-1
 159 364 l 1,6,-1
 243 452 l 1,7,-1
 306 390 l 1,8,-1
 220 301 l 1,9,-1
 306 214 l 1,10,-1
 243 149 l 1,11,-1
 157 236 l 1,0,-1
EndSplineSet
Validated: 1
Substitution2: "'case' Case-Sensitive Forms in Latin lookup 25 subtable" multiply.uc
EndChar

StartChar: Oslash
Encoding: 216 216 146
Width: 381
GlyphClass: 2
Flags: W
LayerCount: 2
Fore
SplineSet
363 170 m 2,0,1
 363 88 363 88 321.5 38.5 c 128,-1,2
 280 -11 280 -11 205 -11 c 2,3,-1
 180 -11 l 2,4,5
 122 -11 122 -11 84 24 c 1,6,-1
 74 0 l 1,7,-1
 0 0 l 1,8,-1
 33 82 l 1,9,10
 26 100 26 100 22 122 c 128,-1,11
 18 144 18 144 18 170 c 2,12,-1
 18 563 l 2,13,14
 18 606 18 606 27 641 c 128,-1,15
 36 676 36 676 55 701 c 128,-1,16
 74 726 74 726 104.5 739.5 c 128,-1,17
 135 753 135 753 178 753 c 2,18,-1
 203 753 l 2,19,20
 260 753 260 753 296 720 c 1,21,-1
 306 744 l 1,22,-1
 380 744 l 1,23,-1
 347 661 l 1,24,25
 363 625 363 625 363 564 c 2,26,-1
 363 170 l 2,0,1
192 122 m 0,27,28
 214 122 214 122 221 135.5 c 128,-1,29
 228 149 228 149 228 166 c 2,30,-1
 228 394 l 1,31,-1
 153 188 l 1,32,-1
 153 166 l 2,33,34
 153 149 153 149 161 135.5 c 128,-1,35
 169 122 169 122 192 122 c 0,27,28
191 623 m 0,36,37
 170 623 170 623 161.5 611 c 128,-1,38
 153 599 153 599 153 574 c 2,39,-1
 153 350 l 1,40,-1
 228 559 l 1,41,-1
 228 574 l 2,42,43
 228 623 228 623 191 623 c 0,36,37
EndSplineSet
Validated: 1
EndChar

StartChar: Thorn
Encoding: 222 222 152
Width: 366
GlyphClass: 2
Flags: W
LayerCount: 2
Fore
SplineSet
154 188 m 1,0,-1
 154 0 l 1,1,-1
 21 0 l 1,2,-1
 21 744 l 1,3,-1
 154 744 l 1,4,-1
 154 594 l 1,5,-1
 223 594 l 2,6,7
 289 594 289 594 321 563.5 c 128,-1,8
 353 533 353 533 353 461 c 2,9,-1
 353 330 l 2,10,11
 353 255 353 255 318.5 221.5 c 128,-1,12
 284 188 284 188 223 188 c 2,13,-1
 154 188 l 1,0,-1
154 298 m 1,14,-1
 185 298 l 2,15,16
 204 298 204 298 211.5 307.5 c 128,-1,17
 219 317 219 317 219 338 c 2,18,-1
 219 444 l 2,19,20
 219 465 219 465 212 475 c 128,-1,21
 205 485 205 485 184 485 c 2,22,-1
 154 485 l 1,23,-1
 154 298 l 1,14,-1
EndSplineSet
Validated: 1
EndChar

StartChar: germandbls
Encoding: 223 223 153
Width: 342
GlyphClass: 2
Flags: W
LayerCount: 2
Fore
SplineSet
267 443 m 1,0,1
 298 432 298 432 313.5 409.5 c 128,-1,2
 329 387 329 387 329 342 c 2,3,-1
 329 130 l 2,4,5
 329 66 329 66 303.5 33 c 128,-1,6
 278 0 278 0 209 0 c 2,7,-1
 162 0 l 1,8,-1
 162 119 l 1,9,-1
 178 119 l 2,10,11
 197 119 197 119 197 144 c 2,12,-1
 197 324 l 2,13,14
 197 336 197 336 193 342 c 128,-1,15
 189 348 189 348 177 348 c 2,16,-1
 162 348 l 1,17,-1
 162 466 l 1,18,-1
 176 466 l 2,19,20
 184 466 184 466 189.5 472 c 128,-1,21
 195 478 195 478 195 494 c 2,22,-1
 195 604 l 2,23,24
 195 616 195 616 190.5 625 c 128,-1,25
 186 634 186 634 172 634 c 2,26,-1
 166 634 l 2,27,28
 154 634 154 634 149.5 625.5 c 128,-1,29
 145 617 145 617 145 605 c 2,30,-1
 145 0 l 1,31,-1
 18 0 l 1,32,-1
 18 606 l 2,33,34
 18 669 18 669 50.5 706.5 c 128,-1,35
 83 744 83 744 155 744 c 2,36,-1
 182 744 l 2,37,38
 255 744 255 744 286.5 710.5 c 128,-1,39
 318 677 318 677 318 611 c 2,40,-1
 318 525 l 2,41,42
 318 491 318 491 301.5 470 c 128,-1,43
 285 449 285 449 267 443 c 1,0,1
EndSplineSet
Validated: 1
EndChar

StartChar: ae
Encoding: 230 230 160
Width: 489
GlyphClass: 2
Flags: W
LayerCount: 2
Fore
SplineSet
193 63 m 1,0,1
 177 36 177 36 152 15.5 c 128,-1,2
 127 -5 127 -5 92 -5 c 2,3,-1
 88 -5 l 2,4,5
 69 -5 69 -5 55 3 c 128,-1,6
 41 11 41 11 32 24 c 128,-1,7
 23 37 23 37 18.5 53.5 c 128,-1,8
 14 70 14 70 14 88 c 2,9,-1
 14 186 l 2,10,11
 14 228 14 228 27.5 253 c 128,-1,12
 41 278 41 278 70 296 c 0,13,14
 79 302 79 302 94 309.5 c 128,-1,15
 109 317 109 317 124.5 324.5 c 128,-1,16
 140 332 140 332 154 338.5 c 128,-1,17
 168 345 168 345 174 349 c 0,18,19
 178 351 178 351 180 354.5 c 128,-1,20
 182 358 182 358 182 369 c 2,21,-1
 182 417 l 2,22,23
 182 434 182 434 176.5 440 c 128,-1,24
 171 446 171 446 160 446 c 2,25,-1
 156 446 l 2,26,27
 143 446 143 446 138.5 438.5 c 128,-1,28
 134 431 134 431 134 417 c 2,29,-1
 134 345 l 1,30,-1
 20 345 l 1,31,-1
 20 438 l 2,32,33
 20 456 20 456 25 474.5 c 128,-1,34
 30 493 30 493 44 508.5 c 128,-1,35
 58 524 58 524 82.5 534 c 128,-1,36
 107 544 107 544 146 544 c 2,37,-1
 169 544 l 2,38,39
 207 544 207 544 224 534.5 c 128,-1,40
 241 525 241 525 249 517 c 1,41,42
 255 525 255 525 273.5 536.5 c 128,-1,43
 292 548 292 548 329 548 c 2,44,-1
 344 548 l 2,45,46
 407 548 407 548 441.5 514.5 c 128,-1,47
 476 481 476 481 476 401 c 2,48,-1
 476 251 l 1,49,-1
 305 251 l 1,50,-1
 305 134 l 2,51,52
 305 117 305 117 310 109.5 c 128,-1,53
 315 102 315 102 329 102 c 0,54,55
 344 102 344 102 349 111 c 128,-1,56
 354 120 354 120 354 134 c 2,57,-1
 354 214 l 1,58,-1
 476 214 l 1,59,-1
 476 124 l 2,60,61
 476 63 476 63 442 26.5 c 128,-1,62
 408 -10 408 -10 339 -10 c 2,63,-1
 318 -10 l 2,64,65
 287 -10 287 -10 265 -3 c 128,-1,66
 243 4 243 4 228.5 14.5 c 128,-1,67
 214 25 214 25 205.5 38 c 128,-1,68
 197 51 197 51 193 63 c 1,0,1
182 246 m 1,69,70
 177 243 177 243 166.5 236 c 128,-1,71
 156 229 156 229 149 221 c 256,72,73
 142 213 142 213 139.5 204.5 c 128,-1,74
 137 196 137 196 137 180 c 2,75,-1
 137 134 l 2,76,77
 137 119 137 119 141.5 110.5 c 128,-1,78
 146 102 146 102 158 102 c 0,79,80
 182 102 182 102 182 134 c 2,81,-1
 182 246 l 1,69,70
305 347 m 1,82,-1
 357 347 l 1,83,-1
 357 416 l 2,84,85
 357 430 357 430 351.5 439 c 128,-1,86
 346 448 346 448 331 448 c 0,87,88
 305 448 305 448 305 417 c 2,89,-1
 305 347 l 1,82,-1
EndSplineSet
Validated: 1
EndChar

StartChar: icircumflex
Encoding: 238 238 168
Width: 164
GlyphClass: 2
Flags: W
LayerCount: 2
Fore
SplineSet
187 564 m 1,0,-1
 101 564 l 1,1,-1
 82 630 l 1,2,-1
 62 564 l 1,3,-1
 -23 564 l 1,4,-1
 29 700 l 1,5,-1
 135 700 l 1,6,-1
 187 564 l 1,0,-1
146 0 m 1,7,-1
 18 0 l 1,8,-1
 18 538 l 1,9,-1
 146 538 l 1,10,-1
 146 0 l 1,7,-1
EndSplineSet
Validated: 1
EndChar

StartChar: idieresis
Encoding: 239 239 169
Width: 164
GlyphClass: 2
Flags: W
LayerCount: 2
Fore
SplineSet
71 564 m 1,0,-1
 -22 564 l 1,1,-1
 -22 670 l 1,2,-1
 71 670 l 1,3,-1
 71 564 l 1,0,-1
186 564 m 1,4,-1
 93 564 l 1,5,-1
 93 670 l 1,6,-1
 186 670 l 1,7,-1
 186 564 l 1,4,-1
146 0 m 1,8,-1
 18 0 l 1,9,-1
 18 538 l 1,10,-1
 146 538 l 1,11,-1
 146 0 l 1,8,-1
EndSplineSet
Validated: 1
EndChar

StartChar: eth
Encoding: 240 240 170
Width: 341
GlyphClass: 2
Flags: W
LayerCount: 2
Fore
SplineSet
57 635 m 1,0,-1
 115 661 l 1,1,-1
 74 744 l 1,2,-1
 192 744 l 1,3,-1
 212 705 l 1,4,-1
 285 738 l 1,5,-1
 285 652 l 1,6,-1
 247 635 l 1,7,-1
 282 567 l 2,8,9
 295 542 295 542 303.5 522 c 128,-1,10
 312 502 312 502 317 482.5 c 128,-1,11
 322 463 322 463 324 442 c 128,-1,12
 326 421 326 421 326 393 c 2,13,-1
 326 144 l 2,14,15
 326 111 326 111 316.5 83 c 128,-1,16
 307 55 307 55 289 34 c 128,-1,17
 271 13 271 13 245 1.5 c 128,-1,18
 219 -10 219 -10 186 -10 c 2,19,-1
 154 -10 l 2,20,21
 118 -10 118 -10 91.5 1.5 c 128,-1,22
 65 13 65 13 48 33.5 c 128,-1,23
 31 54 31 54 23 82 c 128,-1,24
 15 110 15 110 15 142 c 2,25,-1
 15 429 l 2,26,27
 15 480 15 480 40.5 510 c 128,-1,28
 66 540 66 540 100 540 c 2,29,-1
 102 540 l 2,30,31
 134 540 134 540 158 523 c 128,-1,32
 182 506 182 506 205 479 c 1,33,-1
 149 591 l 1,34,-1
 57 549 l 1,35,-1
 57 635 l 1,0,-1
197 400 m 2,36,37
 197 417 197 417 191.5 427 c 128,-1,38
 186 437 186 437 170 437 c 0,39,40
 155 437 155 437 149.5 427 c 128,-1,41
 144 417 144 417 144 400 c 2,42,-1
 144 144 l 2,43,44
 144 128 144 128 149 117 c 128,-1,45
 154 106 154 106 170 106 c 0,46,47
 187 106 187 106 192 117.5 c 128,-1,48
 197 129 197 129 197 144 c 2,49,-1
 197 400 l 2,36,37
EndSplineSet
Validated: 1
EndChar

StartChar: divide
Encoding: 247 247 177
Width: 343
GlyphClass: 2
Flags: W
LayerCount: 2
Fore
SplineSet
328 346 m 1,0,-1
 328 255 l 1,1,-1
 15 255 l 1,2,-1
 15 346 l 1,3,-1
 328 346 l 1,0,-1
223 375 m 1,4,-1
 120 375 l 1,5,-1
 120 478 l 1,6,-1
 223 478 l 1,7,-1
 223 375 l 1,4,-1
223 120 m 1,8,-1
 120 120 l 1,9,-1
 120 223 l 1,10,-1
 223 223 l 1,11,-1
 223 120 l 1,8,-1
EndSplineSet
Validated: 1
Substitution2: "'case' Case-Sensitive Forms in Latin lookup 25 subtable" divide.uc
EndChar

StartChar: oslash
Encoding: 248 248 178
Width: 336
GlyphClass: 2
Flags: W
LayerCount: 2
Fore
SplineSet
15 142 m 2,0,-1
 15 397 l 2,1,2
 15 470 15 470 52 509 c 128,-1,3
 89 548 89 548 155 548 c 2,4,-1
 181 548 l 2,5,6
 210 548 210 548 231 540 c 128,-1,7
 252 532 252 532 268 519 c 1,8,-1
 278 538 l 1,9,-1
 344 538 l 1,10,-1
 309 469 l 1,11,12
 314 455 314 455 317.5 437 c 128,-1,13
 321 419 321 419 321 399 c 2,14,-1
 321 144 l 2,15,16
 321 111 321 111 311.5 83 c 128,-1,17
 302 55 302 55 284 34 c 128,-1,18
 266 13 266 13 240 1.5 c 128,-1,19
 214 -10 214 -10 181 -10 c 2,20,-1
 155 -10 l 2,21,22
 127 -10 127 -10 105.5 -1 c 128,-1,23
 84 8 84 8 70 20 c 1,24,-1
 60 0 l 1,25,-1
 -7 0 l 1,26,-1
 29 70 l 1,27,28
 21 86 21 86 18 104 c 128,-1,29
 15 122 15 122 15 142 c 2,0,-1
196 401 m 2,30,31
 196 418 196 418 190.5 428 c 128,-1,32
 185 438 185 438 168 438 c 0,33,34
 152 438 152 438 146 428 c 128,-1,35
 140 418 140 418 140 401 c 2,36,-1
 140 264 l 1,37,-1
 196 387 l 1,38,-1
 196 401 l 2,30,31
168 105 m 256,39,40
 185 105 185 105 190.5 116.5 c 128,-1,41
 196 128 196 128 196 143 c 2,42,-1
 196 272 l 1,43,-1
 140 151 l 1,44,-1
 140 143 l 2,45,46
 140 127 140 127 145.5 116 c 128,-1,47
 151 105 151 105 168 105 c 256,39,40
EndSplineSet
Validated: 1
EndChar

StartChar: thorn
Encoding: 254 254 184
Width: 344
GlyphClass: 2
Flags: W
LayerCount: 2
Fore
SplineSet
146 744 m 1,0,-1
 146 478 l 1,1,2
 160 503 160 503 183.5 523.5 c 128,-1,3
 207 544 207 544 243 544 c 2,4,-1
 245 544 l 2,5,6
 287 544 287 544 307 512 c 128,-1,7
 327 480 327 480 327 429 c 2,8,-1
 327 108 l 2,9,10
 327 54 327 54 300 21.5 c 128,-1,11
 273 -11 273 -11 237 -11 c 2,12,-1
 235 -11 l 2,13,14
 205 -11 205 -11 183.5 6 c 128,-1,15
 162 23 162 23 146 47 c 1,16,-1
 146 -188 l 1,17,-1
 18 -188 l 1,18,-1
 18 744 l 1,19,-1
 146 744 l 1,0,-1
146 130 m 2,20,21
 146 94 146 94 171 94 c 0,22,23
 185 94 185 94 190.5 103.5 c 128,-1,24
 196 113 196 113 196 129 c 2,25,-1
 196 402 l 2,26,27
 196 418 196 418 190.5 427 c 128,-1,28
 185 436 185 436 171 436 c 256,29,30
 157 436 157 436 151.5 426.5 c 128,-1,31
 146 417 146 417 146 402 c 2,32,-1
 146 130 l 2,20,21
EndSplineSet
Validated: 1
EndChar

StartChar: Cacute
Encoding: 262 262 192
Width: 372
GlyphClass: 2
Flags: W
LayerCount: 2
Fore
SplineSet
183 885 m 1,0,-1
 289 885 l 1,1,-1
 244 771 l 1,2,-1
 140 771 l 1,3,-1
 183 885 l 1,0,-1
224 164 m 2,4,-1
 224 328 l 1,5,-1
 356 328 l 1,6,-1
 356 160 l 2,7,8
 356 127 356 127 348.5 96 c 128,-1,9
 341 65 341 65 323 41 c 128,-1,10
 305 17 305 17 275.5 2.5 c 128,-1,11
 246 -12 246 -12 202 -12 c 2,12,-1
 175 -12 l 2,13,14
 127 -12 127 -12 96.5 2.5 c 128,-1,15
 66 17 66 17 48.5 41 c 128,-1,16
 31 65 31 65 24.5 97 c 128,-1,17
 18 129 18 129 18 164 c 2,18,-1
 18 584 l 2,19,20
 18 618 18 618 26 648.5 c 128,-1,21
 34 679 34 679 52.5 702 c 128,-1,22
 71 725 71 725 101 739 c 128,-1,23
 131 753 131 753 175 753 c 2,24,-1
 202 753 l 2,25,26
 250 753 250 753 280 739.5 c 128,-1,27
 310 726 310 726 327 703 c 128,-1,28
 344 680 344 680 350 650.5 c 128,-1,29
 356 621 356 621 356 589 c 2,30,-1
 356 464 l 1,31,-1
 224 464 l 1,32,-1
 224 584 l 2,33,34
 224 605 224 605 216.5 616 c 128,-1,35
 209 627 209 627 190 627 c 256,36,37
 171 627 171 627 164 616.5 c 128,-1,38
 157 606 157 606 157 584 c 2,39,-1
 157 164 l 2,40,41
 157 119 157 119 191 119 c 0,42,43
 209 119 209 119 216.5 131.5 c 128,-1,44
 224 144 224 144 224 164 c 2,4,-1
EndSplineSet
Validated: 1
EndChar

StartChar: cacute
Encoding: 263 263 193
Width: 322
GlyphClass: 2
Flags: W
LayerCount: 2
Fore
SplineSet
156 700 m 1,0,-1
 261 700 l 1,1,-1
 217 566 l 1,2,-1
 114 566 l 1,3,-1
 156 700 l 1,0,-1
309 241 m 1,4,-1
 309 125 l 2,5,6
 309 97 309 97 301.5 72.5 c 128,-1,7
 294 48 294 48 278 29.5 c 128,-1,8
 262 11 262 11 237 0 c 128,-1,9
 212 -11 212 -11 177 -11 c 2,10,-1
 156 -11 l 2,11,12
 81 -11 81 -11 48 29 c 128,-1,13
 15 69 15 69 15 129 c 2,14,-1
 15 400 l 2,15,16
 15 467 15 467 47.5 507.5 c 128,-1,17
 80 548 80 548 154 548 c 2,18,-1
 179 548 l 2,19,20
 216 548 216 548 241 538 c 128,-1,21
 266 528 266 528 281 510.5 c 128,-1,22
 296 493 296 493 302.5 469.5 c 128,-1,23
 309 446 309 446 309 418 c 2,24,-1
 309 329 l 1,25,-1
 191 329 l 1,26,-1
 191 405 l 2,27,28
 191 422 191 422 186.5 432.5 c 128,-1,29
 182 443 182 443 167 443 c 0,30,31
 153 443 153 443 148.5 433.5 c 128,-1,32
 144 424 144 424 144 406 c 2,33,-1
 144 135 l 2,34,35
 144 120 144 120 148 111 c 128,-1,36
 152 102 152 102 166 102 c 256,37,38
 180 102 180 102 185 110.5 c 128,-1,39
 190 119 190 119 190 133 c 2,40,-1
 190 241 l 1,41,-1
 309 241 l 1,4,-1
EndSplineSet
Validated: 1
EndChar

StartChar: Ccircumflex
Encoding: 264 264 194
Width: 372
GlyphClass: 2
Flags: W
LayerCount: 2
Fore
SplineSet
307 771 m 1,0,-1
 218 771 l 1,1,-1
 190 817 l 1,2,-1
 163 771 l 1,3,-1
 74 771 l 1,4,-1
 139 885 l 1,5,-1
 241 885 l 1,6,-1
 307 771 l 1,0,-1
224 164 m 2,7,-1
 224 328 l 1,8,-1
 356 328 l 1,9,-1
 356 160 l 2,10,11
 356 127 356 127 348.5 96 c 128,-1,12
 341 65 341 65 323 41 c 128,-1,13
 305 17 305 17 275.5 2.5 c 128,-1,14
 246 -12 246 -12 202 -12 c 2,15,-1
 175 -12 l 2,16,17
 127 -12 127 -12 96.5 2.5 c 128,-1,18
 66 17 66 17 48.5 41 c 128,-1,19
 31 65 31 65 24.5 97 c 128,-1,20
 18 129 18 129 18 164 c 2,21,-1
 18 584 l 2,22,23
 18 618 18 618 26 648.5 c 128,-1,24
 34 679 34 679 52.5 702 c 128,-1,25
 71 725 71 725 101 739 c 128,-1,26
 131 753 131 753 175 753 c 2,27,-1
 202 753 l 2,28,29
 250 753 250 753 280 739.5 c 128,-1,30
 310 726 310 726 327 703 c 128,-1,31
 344 680 344 680 350 650.5 c 128,-1,32
 356 621 356 621 356 589 c 2,33,-1
 356 464 l 1,34,-1
 224 464 l 1,35,-1
 224 584 l 2,36,37
 224 605 224 605 216.5 616 c 128,-1,38
 209 627 209 627 190 627 c 256,39,40
 171 627 171 627 164 616.5 c 128,-1,41
 157 606 157 606 157 584 c 2,42,-1
 157 164 l 2,43,44
 157 119 157 119 191 119 c 0,45,46
 209 119 209 119 216.5 131.5 c 128,-1,47
 224 144 224 144 224 164 c 2,7,-1
EndSplineSet
Validated: 1
EndChar

StartChar: ccircumflex
Encoding: 265 265 195
Width: 322
GlyphClass: 2
Flags: W
LayerCount: 2
Fore
SplineSet
281 566 m 1,0,-1
 190 566 l 1,1,-1
 166 626 l 1,2,-1
 141 566 l 1,3,-1
 52 566 l 1,4,-1
 113 700 l 1,5,-1
 219 700 l 1,6,-1
 281 566 l 1,0,-1
309 241 m 1,7,-1
 309 125 l 2,8,9
 309 97 309 97 301.5 72.5 c 128,-1,10
 294 48 294 48 278 29.5 c 128,-1,11
 262 11 262 11 237 0 c 128,-1,12
 212 -11 212 -11 177 -11 c 2,13,-1
 156 -11 l 2,14,15
 81 -11 81 -11 48 29 c 128,-1,16
 15 69 15 69 15 129 c 2,17,-1
 15 400 l 2,18,19
 15 467 15 467 47.5 507.5 c 128,-1,20
 80 548 80 548 154 548 c 2,21,-1
 179 548 l 2,22,23
 216 548 216 548 241 538 c 128,-1,24
 266 528 266 528 281 510.5 c 128,-1,25
 296 493 296 493 302.5 469.5 c 128,-1,26
 309 446 309 446 309 418 c 2,27,-1
 309 329 l 1,28,-1
 191 329 l 1,29,-1
 191 405 l 2,30,31
 191 422 191 422 186.5 432.5 c 128,-1,32
 182 443 182 443 167 443 c 0,33,34
 153 443 153 443 148.5 433.5 c 128,-1,35
 144 424 144 424 144 406 c 2,36,-1
 144 135 l 2,37,38
 144 120 144 120 148 111 c 128,-1,39
 152 102 152 102 166 102 c 256,40,41
 180 102 180 102 185 110.5 c 128,-1,42
 190 119 190 119 190 133 c 2,43,-1
 190 241 l 1,44,-1
 309 241 l 1,7,-1
EndSplineSet
Validated: 1
EndChar

StartChar: Cdotaccent
Encoding: 266 266 196
Width: 372
GlyphClass: 2
Flags: W
LayerCount: 2
Fore
SplineSet
254 771 m 1,0,-1
 126 771 l 1,1,-1
 126 896 l 1,2,-1
 254 896 l 1,3,-1
 254 771 l 1,0,-1
224 164 m 2,4,-1
 224 328 l 1,5,-1
 356 328 l 1,6,-1
 356 160 l 2,7,8
 356 127 356 127 348.5 96 c 128,-1,9
 341 65 341 65 323 41 c 128,-1,10
 305 17 305 17 275.5 2.5 c 128,-1,11
 246 -12 246 -12 202 -12 c 2,12,-1
 175 -12 l 2,13,14
 127 -12 127 -12 96.5 2.5 c 128,-1,15
 66 17 66 17 48.5 41 c 128,-1,16
 31 65 31 65 24.5 97 c 128,-1,17
 18 129 18 129 18 164 c 2,18,-1
 18 584 l 2,19,20
 18 618 18 618 26 648.5 c 128,-1,21
 34 679 34 679 52.5 702 c 128,-1,22
 71 725 71 725 101 739 c 128,-1,23
 131 753 131 753 175 753 c 2,24,-1
 202 753 l 2,25,26
 250 753 250 753 280 739.5 c 128,-1,27
 310 726 310 726 327 703 c 128,-1,28
 344 680 344 680 350 650.5 c 128,-1,29
 356 621 356 621 356 589 c 2,30,-1
 356 464 l 1,31,-1
 224 464 l 1,32,-1
 224 584 l 2,33,34
 224 605 224 605 216.5 616 c 128,-1,35
 209 627 209 627 190 627 c 256,36,37
 171 627 171 627 164 616.5 c 128,-1,38
 157 606 157 606 157 584 c 2,39,-1
 157 164 l 2,40,41
 157 119 157 119 191 119 c 0,42,43
 209 119 209 119 216.5 131.5 c 128,-1,44
 224 144 224 144 224 164 c 2,4,-1
EndSplineSet
Validated: 1
EndChar

StartChar: cdotaccent
Encoding: 267 267 197
Width: 322
GlyphClass: 2
Flags: W
LayerCount: 2
Fore
SplineSet
230 566 m 1,0,-1
 102 566 l 1,1,-1
 102 690 l 1,2,-1
 230 690 l 1,3,-1
 230 566 l 1,0,-1
309 241 m 1,4,-1
 309 125 l 2,5,6
 309 97 309 97 301.5 72.5 c 128,-1,7
 294 48 294 48 278 29.5 c 128,-1,8
 262 11 262 11 237 0 c 128,-1,9
 212 -11 212 -11 177 -11 c 2,10,-1
 156 -11 l 2,11,12
 81 -11 81 -11 48 29 c 128,-1,13
 15 69 15 69 15 129 c 2,14,-1
 15 400 l 2,15,16
 15 467 15 467 47.5 507.5 c 128,-1,17
 80 548 80 548 154 548 c 2,18,-1
 179 548 l 2,19,20
 216 548 216 548 241 538 c 128,-1,21
 266 528 266 528 281 510.5 c 128,-1,22
 296 493 296 493 302.5 469.5 c 128,-1,23
 309 446 309 446 309 418 c 2,24,-1
 309 329 l 1,25,-1
 191 329 l 1,26,-1
 191 405 l 2,27,28
 191 422 191 422 186.5 432.5 c 128,-1,29
 182 443 182 443 167 443 c 0,30,31
 153 443 153 443 148.5 433.5 c 128,-1,32
 144 424 144 424 144 406 c 2,33,-1
 144 135 l 2,34,35
 144 120 144 120 148 111 c 128,-1,36
 152 102 152 102 166 102 c 256,37,38
 180 102 180 102 185 110.5 c 128,-1,39
 190 119 190 119 190 133 c 2,40,-1
 190 241 l 1,41,-1
 309 241 l 1,4,-1
EndSplineSet
Validated: 1
EndChar

StartChar: Ccaron
Encoding: 268 268 198
Width: 372
GlyphClass: 2
Flags: W
LayerCount: 2
Fore
SplineSet
73 885 m 1,0,-1
 163 885 l 1,1,-1
 190 837 l 1,2,-1
 217 885 l 1,3,-1
 306 885 l 1,4,-1
 240 771 l 1,5,-1
 139 771 l 1,6,-1
 73 885 l 1,0,-1
224 164 m 2,7,-1
 224 328 l 1,8,-1
 356 328 l 1,9,-1
 356 160 l 2,10,11
 356 127 356 127 348.5 96 c 128,-1,12
 341 65 341 65 323 41 c 128,-1,13
 305 17 305 17 275.5 2.5 c 128,-1,14
 246 -12 246 -12 202 -12 c 2,15,-1
 175 -12 l 2,16,17
 127 -12 127 -12 96.5 2.5 c 128,-1,18
 66 17 66 17 48.5 41 c 128,-1,19
 31 65 31 65 24.5 97 c 128,-1,20
 18 129 18 129 18 164 c 2,21,-1
 18 584 l 2,22,23
 18 618 18 618 26 648.5 c 128,-1,24
 34 679 34 679 52.5 702 c 128,-1,25
 71 725 71 725 101 739 c 128,-1,26
 131 753 131 753 175 753 c 2,27,-1
 202 753 l 2,28,29
 250 753 250 753 280 739.5 c 128,-1,30
 310 726 310 726 327 703 c 128,-1,31
 344 680 344 680 350 650.5 c 128,-1,32
 356 621 356 621 356 589 c 2,33,-1
 356 464 l 1,34,-1
 224 464 l 1,35,-1
 224 584 l 2,36,37
 224 605 224 605 216.5 616 c 128,-1,38
 209 627 209 627 190 627 c 256,39,40
 171 627 171 627 164 616.5 c 128,-1,41
 157 606 157 606 157 584 c 2,42,-1
 157 164 l 2,43,44
 157 119 157 119 191 119 c 0,45,46
 209 119 209 119 216.5 131.5 c 128,-1,47
 224 144 224 144 224 164 c 2,7,-1
EndSplineSet
Validated: 1
EndChar

StartChar: ccaron
Encoding: 269 269 199
Width: 322
GlyphClass: 2
Flags: W
LayerCount: 2
Fore
SplineSet
53 700 m 1,0,-1
 144 700 l 1,1,-1
 168 638 l 1,2,-1
 193 700 l 1,3,-1
 282 700 l 1,4,-1
 221 566 l 1,5,-1
 114 566 l 1,6,-1
 53 700 l 1,0,-1
309 241 m 1,7,-1
 309 125 l 2,8,9
 309 97 309 97 301.5 72.5 c 128,-1,10
 294 48 294 48 278 29.5 c 128,-1,11
 262 11 262 11 237 0 c 128,-1,12
 212 -11 212 -11 177 -11 c 2,13,-1
 156 -11 l 2,14,15
 81 -11 81 -11 48 29 c 128,-1,16
 15 69 15 69 15 129 c 2,17,-1
 15 400 l 2,18,19
 15 467 15 467 47.5 507.5 c 128,-1,20
 80 548 80 548 154 548 c 2,21,-1
 179 548 l 2,22,23
 216 548 216 548 241 538 c 128,-1,24
 266 528 266 528 281 510.5 c 128,-1,25
 296 493 296 493 302.5 469.5 c 128,-1,26
 309 446 309 446 309 418 c 2,27,-1
 309 329 l 1,28,-1
 191 329 l 1,29,-1
 191 405 l 2,30,31
 191 422 191 422 186.5 432.5 c 128,-1,32
 182 443 182 443 167 443 c 0,33,34
 153 443 153 443 148.5 433.5 c 128,-1,35
 144 424 144 424 144 406 c 2,36,-1
 144 135 l 2,37,38
 144 120 144 120 148 111 c 128,-1,39
 152 102 152 102 166 102 c 256,40,41
 180 102 180 102 185 110.5 c 128,-1,42
 190 119 190 119 190 133 c 2,43,-1
 190 241 l 1,44,-1
 309 241 l 1,7,-1
EndSplineSet
Validated: 1
EndChar

StartChar: dcroat
Encoding: 273 273 203
Width: 344
GlyphClass: 2
Flags: W
LayerCount: 2
Fore
SplineSet
123 674 m 1,0,-1
 358 674 l 1,1,-1
 358 583 l 1,2,-1
 123 583 l 1,3,-1
 123 674 l 1,0,-1
326 744 m 1,4,-1
 326 0 l 1,5,-1
 198 0 l 1,6,-1
 198 60 l 1,7,8
 193 51 193 51 185 38.5 c 128,-1,9
 177 26 177 26 166 15 c 128,-1,10
 155 4 155 4 141 -3.5 c 128,-1,11
 127 -11 127 -11 109 -11 c 2,12,-1
 107 -11 l 2,13,14
 87 -11 87 -11 70.5 -2 c 128,-1,15
 54 7 54 7 42 23 c 128,-1,16
 30 39 30 39 23.5 60 c 128,-1,17
 17 81 17 81 17 104 c 2,18,-1
 17 437 l 2,19,20
 17 456 17 456 22 475 c 128,-1,21
 27 494 27 494 37 509.5 c 128,-1,22
 47 525 47 525 62 534.5 c 128,-1,23
 77 544 77 544 97 544 c 2,24,-1
 102 544 l 2,25,26
 121 544 121 544 136 537 c 128,-1,27
 151 530 151 530 163 520 c 128,-1,28
 175 510 175 510 183.5 498.5 c 128,-1,29
 192 487 192 487 198 478 c 1,30,-1
 198 744 l 1,31,-1
 326 744 l 1,4,-1
198 392 m 2,32,33
 198 411 198 411 192.5 422.5 c 128,-1,34
 187 434 187 434 171 434 c 0,35,36
 146 434 146 434 146 397 c 2,37,-1
 146 138 l 2,38,39
 146 121 146 121 151.5 111 c 128,-1,40
 157 101 157 101 171 101 c 0,41,42
 186 101 186 101 192 112 c 128,-1,43
 198 123 198 123 198 143 c 2,44,-1
 198 392 l 2,32,33
EndSplineSet
Validated: 5
EndChar

StartChar: edotaccent
Encoding: 279 279 209
Width: 323
GlyphClass: 2
Flags: W
LayerCount: 2
Fore
SplineSet
226 566 m 1,0,-1
 98 566 l 1,1,-1
 98 690 l 1,2,-1
 226 690 l 1,3,-1
 226 566 l 1,0,-1
174 548 m 2,4,5
 309 548 309 548 309 411 c 2,6,-1
 309 252 l 1,7,-1
 138 252 l 1,8,-1
 138 135 l 2,9,10
 138 119 138 119 143.5 110.5 c 128,-1,11
 149 102 149 102 163 102 c 0,12,13
 176 102 176 102 181 111 c 128,-1,14
 186 120 186 120 186 135 c 2,15,-1
 186 215 l 1,16,-1
 309 215 l 1,17,-1
 309 117 l 2,18,19
 309 54 309 54 270 22 c 128,-1,20
 231 -10 231 -10 174 -10 c 2,21,-1
 150 -10 l 2,22,23
 90 -10 90 -10 52.5 22 c 128,-1,24
 15 54 15 54 15 117 c 2,25,-1
 15 413 l 2,26,27
 15 440 15 440 22.5 464.5 c 128,-1,28
 30 489 30 489 46 507.5 c 128,-1,29
 62 526 62 526 88 537 c 128,-1,30
 114 548 114 548 150 548 c 2,31,-1
 174 548 l 2,4,5
138 348 m 1,32,-1
 190 348 l 1,33,-1
 190 413 l 2,34,35
 190 430 190 430 185 439.5 c 128,-1,36
 180 449 180 449 164 449 c 0,37,38
 147 449 147 449 142.5 439.5 c 128,-1,39
 138 430 138 430 138 413 c 2,40,-1
 138 348 l 1,32,-1
EndSplineSet
Validated: 1
EndChar

StartChar: eogonek
Encoding: 281 281 211
Width: 323
GlyphClass: 2
Flags: W
LayerCount: 2
Fore
SplineSet
256 -1 m 0,0,1
 233 -30 233 -30 223 -47.5 c 128,-1,2
 213 -65 213 -65 213 -84 c 2,3,-1
 213 -88 l 2,4,5
 213 -108 213 -108 239 -108 c 2,6,-1
 257 -108 l 1,7,-1
 257 -188 l 1,8,-1
 199 -188 l 2,9,10
 167 -188 167 -188 144 -172 c 128,-1,11
 121 -156 121 -156 121 -124 c 2,12,-1
 121 -109 l 2,13,14
 121 -83 121 -83 138.5 -59 c 128,-1,15
 156 -35 156 -35 186 -9 c 1,16,17
 182 -10 182 -10 174 -10 c 2,18,-1
 150 -10 l 2,19,20
 90 -10 90 -10 52.5 22 c 128,-1,21
 15 54 15 54 15 117 c 2,22,-1
 15 413 l 2,23,24
 15 440 15 440 22.5 464.5 c 128,-1,25
 30 489 30 489 46 507.5 c 128,-1,26
 62 526 62 526 88 537 c 128,-1,27
 114 548 114 548 150 548 c 2,28,-1
 174 548 l 2,29,30
 309 548 309 548 309 411 c 2,31,-1
 309 252 l 1,32,-1
 138 252 l 1,33,-1
 138 135 l 2,34,35
 138 119 138 119 143.5 110.5 c 128,-1,36
 149 102 149 102 163 102 c 0,37,38
 176 102 176 102 181 111 c 128,-1,39
 186 120 186 120 186 135 c 2,40,-1
 186 215 l 1,41,-1
 309 215 l 1,42,-1
 309 121 l 2,43,44
 309 99 309 99 305 82.5 c 128,-1,45
 301 66 301 66 294.5 52.5 c 128,-1,46
 288 39 288 39 278 26.5 c 128,-1,47
 268 14 268 14 256 -1 c 0,0,1
138 348 m 1,48,-1
 190 348 l 1,49,-1
 190 413 l 2,50,51
 190 430 190 430 185 439.5 c 128,-1,52
 180 449 180 449 164 449 c 0,53,54
 147 449 147 449 142.5 439.5 c 128,-1,55
 138 430 138 430 138 413 c 2,56,-1
 138 348 l 1,48,-1
EndSplineSet
Validated: 1
EndChar

StartChar: ecaron
Encoding: 283 283 213
Width: 323
GlyphClass: 2
Flags: W
LayerCount: 2
Fore
SplineSet
49 700 m 1,0,-1
 140 700 l 1,1,-1
 164 638 l 1,2,-1
 189 700 l 1,3,-1
 278 700 l 1,4,-1
 217 566 l 1,5,-1
 110 566 l 1,6,-1
 49 700 l 1,0,-1
174 548 m 2,7,8
 309 548 309 548 309 411 c 2,9,-1
 309 252 l 1,10,-1
 138 252 l 1,11,-1
 138 135 l 2,12,13
 138 119 138 119 143.5 110.5 c 128,-1,14
 149 102 149 102 163 102 c 0,15,16
 176 102 176 102 181 111 c 128,-1,17
 186 120 186 120 186 135 c 2,18,-1
 186 215 l 1,19,-1
 309 215 l 1,20,-1
 309 117 l 2,21,22
 309 54 309 54 270 22 c 128,-1,23
 231 -10 231 -10 174 -10 c 2,24,-1
 150 -10 l 2,25,26
 90 -10 90 -10 52.5 22 c 128,-1,27
 15 54 15 54 15 117 c 2,28,-1
 15 413 l 2,29,30
 15 440 15 440 22.5 464.5 c 128,-1,31
 30 489 30 489 46 507.5 c 128,-1,32
 62 526 62 526 88 537 c 128,-1,33
 114 548 114 548 150 548 c 2,34,-1
 174 548 l 2,7,8
138 348 m 1,35,-1
 190 348 l 1,36,-1
 190 413 l 2,37,38
 190 430 190 430 185 439.5 c 128,-1,39
 180 449 180 449 164 449 c 0,40,41
 147 449 147 449 142.5 439.5 c 128,-1,42
 138 430 138 430 138 413 c 2,43,-1
 138 348 l 1,35,-1
EndSplineSet
Validated: 1
EndChar

StartChar: Gcircumflex
Encoding: 284 284 214
Width: 378
GlyphClass: 2
Flags: W
LayerCount: 2
Fore
SplineSet
306 771 m 1,0,-1
 217 771 l 1,1,-1
 189 817 l 1,2,-1
 162 771 l 1,3,-1
 73 771 l 1,4,-1
 138 885 l 1,5,-1
 240 885 l 1,6,-1
 306 771 l 1,0,-1
139 -10 m 2,7,8
 110 -10 110 -10 87.5 1.5 c 128,-1,9
 65 13 65 13 49.5 33 c 128,-1,10
 34 53 34 53 26 79.5 c 128,-1,11
 18 106 18 106 18 136 c 2,12,-1
 18 579 l 2,13,14
 18 613 18 613 26 644.5 c 128,-1,15
 34 676 34 676 52 700 c 128,-1,16
 70 724 70 724 99.5 738.5 c 128,-1,17
 129 753 129 753 173 753 c 2,18,-1
 200 753 l 2,19,20
 249 753 249 753 279.5 738.5 c 128,-1,21
 310 724 310 724 326.5 700 c 128,-1,22
 343 676 343 676 348.5 644.5 c 128,-1,23
 354 613 354 613 354 580 c 2,24,-1
 354 498 l 1,25,-1
 224 498 l 1,26,-1
 224 581 l 2,27,28
 224 604 224 604 217 616 c 128,-1,29
 210 628 210 628 190 628 c 0,30,31
 157 628 157 628 157 581 c 2,32,-1
 157 167 l 2,33,34
 157 119 157 119 193 119 c 0,35,36
 232 119 232 119 232 165 c 2,37,-1
 232 325 l 1,38,-1
 183 325 l 1,39,-1
 183 450 l 1,40,-1
 360 450 l 1,41,-1
 360 0 l 1,42,-1
 279 0 l 1,43,44
 276 13 276 13 270.5 33.5 c 128,-1,45
 265 54 265 54 259 71 c 1,46,47
 254 62 254 62 245.5 48 c 128,-1,48
 237 34 237 34 224 21 c 128,-1,49
 211 8 211 8 192.5 -1 c 128,-1,50
 174 -10 174 -10 149 -10 c 2,51,-1
 139 -10 l 2,7,8
EndSplineSet
Validated: 1
EndChar

StartChar: Gdotaccent
Encoding: 288 288 218
Width: 378
GlyphClass: 2
Flags: W
LayerCount: 2
Fore
SplineSet
256 771 m 1,0,-1
 128 771 l 1,1,-1
 128 896 l 1,2,-1
 256 896 l 1,3,-1
 256 771 l 1,0,-1
139 -10 m 2,4,5
 110 -10 110 -10 87.5 1.5 c 128,-1,6
 65 13 65 13 49.5 33 c 128,-1,7
 34 53 34 53 26 79.5 c 128,-1,8
 18 106 18 106 18 136 c 2,9,-1
 18 579 l 2,10,11
 18 613 18 613 26 644.5 c 128,-1,12
 34 676 34 676 52 700 c 128,-1,13
 70 724 70 724 99.5 738.5 c 128,-1,14
 129 753 129 753 173 753 c 2,15,-1
 200 753 l 2,16,17
 249 753 249 753 279.5 738.5 c 128,-1,18
 310 724 310 724 326.5 700 c 128,-1,19
 343 676 343 676 348.5 644.5 c 128,-1,20
 354 613 354 613 354 580 c 2,21,-1
 354 498 l 1,22,-1
 224 498 l 1,23,-1
 224 581 l 2,24,25
 224 604 224 604 217 616 c 128,-1,26
 210 628 210 628 190 628 c 0,27,28
 157 628 157 628 157 581 c 2,29,-1
 157 167 l 2,30,31
 157 119 157 119 193 119 c 0,32,33
 232 119 232 119 232 165 c 2,34,-1
 232 325 l 1,35,-1
 183 325 l 1,36,-1
 183 450 l 1,37,-1
 360 450 l 1,38,-1
 360 0 l 1,39,-1
 279 0 l 1,40,41
 276 13 276 13 270.5 33.5 c 128,-1,42
 265 54 265 54 259 71 c 1,43,44
 254 62 254 62 245.5 48 c 128,-1,45
 237 34 237 34 224 21 c 128,-1,46
 211 8 211 8 192.5 -1 c 128,-1,47
 174 -10 174 -10 149 -10 c 2,48,-1
 139 -10 l 2,4,5
EndSplineSet
Validated: 1
EndChar

StartChar: Hbar
Encoding: 294 294 224
Width: 378
GlyphClass: 2
Flags: W
LayerCount: 2
Fore
SplineSet
-4 651 m 1,0,-1
 383 651 l 1,1,-1
 383 550 l 1,2,-1
 -4 550 l 1,3,-1
 -4 651 l 1,0,-1
154 0 m 1,4,-1
 21 0 l 1,5,-1
 21 744 l 1,6,-1
 154 744 l 1,7,-1
 154 460 l 1,8,-1
 224 460 l 1,9,-1
 224 744 l 1,10,-1
 357 744 l 1,11,-1
 357 0 l 1,12,-1
 224 0 l 1,13,-1
 224 314 l 1,14,-1
 154 314 l 1,15,-1
 154 0 l 1,4,-1
EndSplineSet
Validated: 5
EndChar

StartChar: hbar
Encoding: 295 295 225
Width: 344
GlyphClass: 2
Flags: W
LayerCount: 2
Fore
SplineSet
-14 674 m 1,0,-1
 221 674 l 1,1,-1
 221 583 l 1,2,-1
 -14 583 l 1,3,-1
 -14 674 l 1,0,-1
18 744 m 1,4,-1
 146 744 l 1,5,-1
 146 476 l 1,6,7
 160 498 160 498 184 519 c 128,-1,8
 208 540 208 540 242 540 c 2,9,-1
 247 540 l 2,10,11
 284 540 284 540 305 516 c 128,-1,12
 326 492 326 492 326 456 c 2,13,-1
 326 0 l 1,14,-1
 197 0 l 1,15,-1
 197 398 l 2,16,17
 197 410 197 410 192 419 c 128,-1,18
 187 428 187 428 172 428 c 0,19,20
 156 428 156 428 151 418.5 c 128,-1,21
 146 409 146 409 146 394 c 2,22,-1
 146 0 l 1,23,-1
 18 0 l 1,24,-1
 18 744 l 1,4,-1
EndSplineSet
Validated: 5
EndChar

StartChar: itilde
Encoding: 297 297 227
Width: 164
GlyphClass: 2
Flags: W
LayerCount: 2
Fore
SplineSet
180 678 m 1,0,-1
 180 612 l 2,1,2
 180 589 180 589 167 576.5 c 128,-1,3
 154 564 154 564 137 564 c 0,4,5
 121 564 121 564 109 569 c 128,-1,6
 97 574 97 574 78 584 c 0,7,8
 69 589 69 589 65.5 590.5 c 128,-1,9
 62 592 62 592 59 592 c 0,10,11
 54 592 54 592 54 581 c 2,12,-1
 54 563 l 1,13,-1
 -14 563 l 1,14,-1
 -14 620 l 2,15,16
 -14 650 -14 650 -1 663 c 128,-1,17
 12 676 12 676 30 676 c 0,18,19
 45 676 45 676 58 671.5 c 128,-1,20
 71 667 71 667 89 658 c 0,21,22
 98 653 98 653 101.5 652 c 128,-1,23
 105 651 105 651 107 651 c 0,24,25
 112 651 112 651 112 661 c 2,26,-1
 112 678 l 1,27,-1
 180 678 l 1,0,-1
147 0 m 1,28,-1
 19 0 l 1,29,-1
 19 538 l 1,30,-1
 147 538 l 1,31,-1
 147 0 l 1,28,-1
EndSplineSet
Validated: 1
EndChar

StartChar: imacron
Encoding: 299 299 229
Width: 164
GlyphClass: 2
Flags: W
LayerCount: 2
Fore
SplineSet
-4 664 m 1,0,-1
 168 664 l 1,1,-1
 168 576 l 1,2,-1
 -4 576 l 1,3,-1
 -4 664 l 1,0,-1
146 0 m 1,4,-1
 18 0 l 1,5,-1
 18 538 l 1,6,-1
 146 538 l 1,7,-1
 146 0 l 1,4,-1
EndSplineSet
Validated: 1
EndChar

StartChar: ibreve
Encoding: 301 301 231
Width: 164
GlyphClass: 2
Flags: W
LayerCount: 2
Fore
SplineSet
85 563 m 2,0,-1
 81 563 l 2,1,2
 27 563 27 563 6.5 590 c 128,-1,3
 -14 617 -14 617 -14 657 c 2,4,-1
 -14 680 l 1,5,-1
 66 680 l 1,6,-1
 66 664 l 2,7,8
 66 641 66 641 83 641 c 256,9,10
 100 641 100 641 100 664 c 2,11,-1
 100 680 l 1,12,-1
 178 680 l 1,13,-1
 178 657 l 2,14,15
 178 617 178 617 156.5 590 c 128,-1,16
 135 563 135 563 85 563 c 2,0,-1
146 0 m 1,17,-1
 18 0 l 1,18,-1
 18 538 l 1,19,-1
 146 538 l 1,20,-1
 146 0 l 1,17,-1
EndSplineSet
Validated: 1
EndChar

StartChar: dotlessi
Encoding: 305 305 235
Width: 164
GlyphClass: 2
Flags: W
LayerCount: 2
Fore
SplineSet
146 0 m 1,0,-1
 18 0 l 1,1,-1
 18 538 l 1,2,-1
 146 538 l 1,3,-1
 146 0 l 1,0,-1
EndSplineSet
Validated: 1
EndChar

StartChar: jcircumflex
Encoding: 309 309 239
Width: 165
GlyphClass: 2
Flags: W
LayerCount: 2
Fore
SplineSet
186 564 m 1,0,-1
 100 564 l 1,1,-1
 81 630 l 1,2,-1
 61 564 l 1,3,-1
 -24 564 l 1,4,-1
 28 700 l 1,5,-1
 134 700 l 1,6,-1
 186 564 l 1,0,-1
1 -69 m 2,7,8
 11 -69 11 -69 15 -65 c 128,-1,9
 19 -61 19 -61 19 -48 c 2,10,-1
 19 538 l 1,11,-1
 147 538 l 1,12,-1
 147 -116 l 2,13,14
 147 -145 147 -145 127.5 -166.5 c 128,-1,15
 108 -188 108 -188 73 -188 c 2,16,-1
 -51 -188 l 1,17,-1
 -51 -69 l 1,18,-1
 1 -69 l 2,7,8
EndSplineSet
Validated: 1
EndChar

StartChar: Ldot
Encoding: 319 319 248
Width: 311
GlyphClass: 2
Flags: W
LayerCount: 2
Fore
SplineSet
299 314 m 1,0,-1
 181 314 l 1,1,-1
 181 458 l 1,2,-1
 299 458 l 1,3,-1
 299 314 l 1,0,-1
154 744 m 1,4,-1
 154 134 l 1,5,-1
 295 134 l 1,6,-1
 295 0 l 1,7,-1
 21 0 l 1,8,-1
 21 744 l 1,9,-1
 154 744 l 1,4,-1
EndSplineSet
Validated: 1
EndChar

StartChar: ldot
Encoding: 320 320 249
Width: 291
GlyphClass: 2
Flags: W
LayerCount: 2
Fore
SplineSet
285 314 m 1,0,-1
 167 314 l 1,1,-1
 167 458 l 1,2,-1
 285 458 l 1,3,-1
 285 314 l 1,0,-1
146 0 m 1,4,-1
 18 0 l 1,5,-1
 18 744 l 1,6,-1
 146 744 l 1,7,-1
 146 0 l 1,4,-1
EndSplineSet
Validated: 1
EndChar

StartChar: Lslash
Encoding: 321 321 250
Width: 320
GlyphClass: 2
Flags: W
LayerCount: 2
Fore
SplineSet
169 744 m 1,0,-1
 169 440 l 1,1,-1
 264 507 l 1,2,-1
 264 397 l 1,3,-1
 169 332 l 1,4,-1
 169 134 l 1,5,-1
 310 134 l 1,6,-1
 310 0 l 1,7,-1
 36 0 l 1,8,-1
 36 241 l 1,9,-1
 3 219 l 1,10,-1
 3 325 l 1,11,-1
 36 348 l 1,12,-1
 36 744 l 1,13,-1
 169 744 l 1,0,-1
EndSplineSet
Validated: 1
EndChar

StartChar: lslash
Encoding: 322 322 251
Width: 189
GlyphClass: 2
Flags: W
LayerCount: 2
Fore
SplineSet
158 0 m 1,0,-1
 30 0 l 1,1,-1
 30 331 l 1,2,-1
 3 312 l 1,3,-1
 3 412 l 1,4,-1
 30 431 l 1,5,-1
 30 744 l 1,6,-1
 158 744 l 1,7,-1
 158 522 l 1,8,-1
 186 542 l 1,9,-1
 186 440 l 1,10,-1
 158 420 l 1,11,-1
 158 0 l 1,0,-1
EndSplineSet
Validated: 1
EndChar

StartChar: Eng
Encoding: 330 330 259
Width: 376
GlyphClass: 2
Flags: W
LayerCount: 2
Fore
SplineSet
276 -188 m 2,0,-1
 180 -188 l 1,1,-1
 180 -71 l 1,2,-1
 219 -71 l 2,3,4
 242 -71 242 -71 242 -44 c 2,5,-1
 242 0 l 1,6,-1
 139 412 l 1,7,-1
 139 0 l 1,8,-1
 21 0 l 1,9,-1
 21 744 l 1,10,-1
 146 744 l 1,11,-1
 239 340 l 1,12,-1
 239 744 l 1,13,-1
 355 744 l 1,14,-1
 355 -101 l 2,15,16
 355 -146 355 -146 333.5 -167 c 128,-1,17
 312 -188 312 -188 276 -188 c 2,0,-1
EndSplineSet
Validated: 1
EndChar

StartChar: eng
Encoding: 331 331 260
Width: 344
GlyphClass: 2
Flags: W
LayerCount: 2
Fore
SplineSet
197 396 m 2,0,1
 197 410 197 410 192 419 c 128,-1,2
 187 428 187 428 172 428 c 0,3,4
 156 428 156 428 151 418.5 c 128,-1,5
 146 409 146 409 146 392 c 2,6,-1
 146 0 l 1,7,-1
 18 0 l 1,8,-1
 18 538 l 1,9,-1
 142 538 l 1,10,-1
 142 470 l 1,11,12
 162 500 162 500 185 520 c 128,-1,13
 208 540 208 540 239 540 c 2,14,-1
 251 540 l 2,15,16
 273 540 273 540 287.5 530.5 c 128,-1,17
 302 521 302 521 310.5 507.5 c 128,-1,18
 319 494 319 494 322.5 478 c 128,-1,19
 326 462 326 462 326 450 c 2,20,-1
 326 -116 l 2,21,22
 326 -145 326 -145 306.5 -166.5 c 128,-1,23
 287 -188 287 -188 252 -188 c 2,24,-1
 157 -188 l 1,25,-1
 157 -69 l 1,26,-1
 179 -69 l 2,27,28
 189 -69 189 -69 193 -65 c 128,-1,29
 197 -61 197 -61 197 -48 c 2,30,-1
 197 396 l 2,0,1
EndSplineSet
Validated: 1
EndChar

StartChar: Ohungarumlaut
Encoding: 336 336 265
Width: 385
GlyphClass: 2
Flags: W
LayerCount: 2
Fore
SplineSet
119 885 m 1,0,-1
 209 885 l 1,1,-1
 182 771 l 1,2,-1
 95 771 l 1,3,-1
 119 885 l 1,0,-1
232 885 m 1,4,-1
 321 885 l 1,5,-1
 292 771 l 1,6,-1
 206 771 l 1,7,-1
 232 885 l 1,4,-1
367 170 m 2,8,9
 367 88 367 88 325.5 38.5 c 128,-1,10
 284 -11 284 -11 209 -11 c 2,11,-1
 179 -11 l 2,12,13
 100 -11 100 -11 59 35.5 c 128,-1,14
 18 82 18 82 18 170 c 2,15,-1
 18 563 l 2,16,17
 18 606 18 606 27 641 c 128,-1,18
 36 676 36 676 55 701 c 128,-1,19
 74 726 74 726 104.5 739.5 c 128,-1,20
 135 753 135 753 178 753 c 2,21,-1
 208 753 l 2,22,23
 252 753 252 753 282.5 739.5 c 128,-1,24
 313 726 313 726 331.5 701 c 128,-1,25
 350 676 350 676 358.5 641.5 c 128,-1,26
 367 607 367 607 367 564 c 2,27,-1
 367 170 l 2,8,9
228 574 m 2,28,29
 228 623 228 623 193 623 c 0,30,31
 173 623 173 623 165 611 c 128,-1,32
 157 599 157 599 157 574 c 2,33,-1
 157 166 l 2,34,35
 157 149 157 149 165 135.5 c 128,-1,36
 173 122 173 122 194 122 c 0,37,38
 214 122 214 122 221 135.5 c 128,-1,39
 228 149 228 149 228 166 c 2,40,-1
 228 574 l 2,28,29
EndSplineSet
Validated: 1
EndChar

StartChar: ohungarumlaut
Encoding: 337 337 266
Width: 341
GlyphClass: 2
Flags: W
LayerCount: 2
Fore
SplineSet
104 700 m 1,0,-1
 192 700 l 1,1,-1
 166 566 l 1,2,-1
 80 566 l 1,3,-1
 104 700 l 1,0,-1
214 700 m 1,4,-1
 302 700 l 1,5,-1
 274 566 l 1,6,-1
 189 566 l 1,7,-1
 214 700 l 1,4,-1
15 142 m 2,8,-1
 15 397 l 2,9,10
 15 470 15 470 52 509 c 128,-1,11
 89 548 89 548 155 548 c 2,12,-1
 185 548 l 2,13,14
 251 548 251 548 288.5 509.5 c 128,-1,15
 326 471 326 471 326 399 c 2,16,-1
 326 144 l 2,17,18
 326 111 326 111 316.5 83 c 128,-1,19
 307 55 307 55 288.5 34 c 128,-1,20
 270 13 270 13 244 1.5 c 128,-1,21
 218 -10 218 -10 185 -10 c 2,22,-1
 155 -10 l 2,23,24
 118 -10 118 -10 91.5 1.5 c 128,-1,25
 65 13 65 13 48 33.5 c 128,-1,26
 31 54 31 54 23 82 c 128,-1,27
 15 110 15 110 15 142 c 2,8,-1
144 400 m 2,28,-1
 144 144 l 2,29,30
 144 128 144 128 149 117 c 128,-1,31
 154 106 154 106 170 106 c 0,32,33
 187 106 187 106 192 117.5 c 128,-1,34
 197 129 197 129 197 144 c 2,35,-1
 197 400 l 2,36,37
 197 417 197 417 191.5 427 c 128,-1,38
 186 437 186 437 170 437 c 0,39,40
 155 437 155 437 149.5 427 c 128,-1,41
 144 417 144 417 144 400 c 2,28,-1
EndSplineSet
Validated: 1
EndChar

StartChar: OE
Encoding: 338 338 267
Width: 518
GlyphClass: 2
Flags: W
LayerCount: 2
Fore
SplineSet
18 571 m 2,0,1
 18 610 18 610 25 643 c 128,-1,2
 32 676 32 676 47 700 c 128,-1,3
 62 724 62 724 85 737.5 c 128,-1,4
 108 751 108 751 140 751 c 0,5,6
 161 751 161 751 176 746 c 128,-1,7
 191 741 191 741 202 733.5 c 128,-1,8
 213 726 213 726 220.5 717 c 128,-1,9
 228 708 228 708 233 701 c 1,10,-1
 233 744 l 1,11,-1
 499 744 l 1,12,-1
 499 612 l 1,13,-1
 361 612 l 1,14,-1
 361 451 l 1,15,-1
 468 451 l 1,16,-1
 468 316 l 1,17,-1
 361 316 l 1,18,-1
 361 134 l 1,19,-1
 509 134 l 1,20,-1
 509 0 l 1,21,-1
 233 0 l 1,22,-1
 233 45 l 1,23,24
 221 23 221 23 197.5 6.5 c 128,-1,25
 174 -10 174 -10 136 -10 c 0,26,27
 82 -10 82 -10 50 34 c 128,-1,28
 18 78 18 78 18 172 c 2,29,-1
 18 571 l 2,0,1
228 569 m 2,30,31
 228 594 228 594 220.5 608.5 c 128,-1,32
 213 623 213 623 193 623 c 256,33,34
 173 623 173 623 165 608.5 c 128,-1,35
 157 594 157 594 157 569 c 2,36,-1
 157 176 l 2,37,38
 157 150 157 150 165 136 c 128,-1,39
 173 122 173 122 193 122 c 256,40,41
 213 122 213 122 220.5 136.5 c 128,-1,42
 228 151 228 151 228 176 c 2,43,-1
 228 569 l 2,30,31
EndSplineSet
Validated: 1
EndChar

StartChar: oe
Encoding: 339 339 268
Width: 505
GlyphClass: 2
Flags: W
LayerCount: 2
Fore
SplineSet
320 252 m 1,0,-1
 320 134 l 2,1,2
 320 118 320 118 325.5 110 c 128,-1,3
 331 102 331 102 345 102 c 0,4,5
 369 102 369 102 369 134 c 2,6,-1
 369 215 l 1,7,-1
 491 215 l 1,8,-1
 491 116 l 2,9,10
 491 53 491 53 452 20.5 c 128,-1,11
 413 -12 413 -12 356 -12 c 2,12,-1
 329 -12 l 2,13,14
 305 -12 305 -12 283 -1 c 128,-1,15
 261 10 261 10 252 21 c 1,16,17
 242 11 242 11 224 0.5 c 128,-1,18
 206 -10 206 -10 177 -10 c 2,19,-1
 153 -10 l 2,20,21
 117 -10 117 -10 90.5 1.5 c 128,-1,22
 64 13 64 13 47.5 33.5 c 128,-1,23
 31 54 31 54 23 82 c 128,-1,24
 15 110 15 110 15 142 c 2,25,-1
 15 397 l 2,26,27
 15 470 15 470 50.5 509 c 128,-1,28
 86 548 86 548 152 548 c 2,29,-1
 178 548 l 2,30,31
 205 548 205 548 226.5 538 c 128,-1,32
 248 528 248 528 257 517 c 1,33,34
 266 528 266 528 286.5 538 c 128,-1,35
 307 548 307 548 333 548 c 2,36,-1
 360 548 l 2,37,38
 423 548 423 548 457 513.5 c 128,-1,39
 491 479 491 479 491 410 c 2,40,-1
 491 252 l 1,41,-1
 320 252 l 1,0,-1
144 144 m 2,42,43
 144 128 144 128 149 117 c 128,-1,44
 154 106 154 106 170 106 c 0,45,46
 187 106 187 106 192 117.5 c 128,-1,47
 197 129 197 129 197 144 c 2,48,-1
 197 400 l 2,49,50
 197 417 197 417 191.5 427 c 128,-1,51
 186 437 186 437 170 437 c 0,52,53
 155 437 155 437 149.5 427 c 128,-1,54
 144 417 144 417 144 400 c 2,55,-1
 144 144 l 2,42,43
320 348 m 1,56,-1
 372 348 l 1,57,-1
 372 412 l 2,58,59
 372 429 372 429 367.5 438.5 c 128,-1,60
 363 448 363 448 346 448 c 256,61,62
 329 448 329 448 324.5 438.5 c 128,-1,63
 320 429 320 429 320 412 c 2,64,-1
 320 348 l 1,56,-1
EndSplineSet
Validated: 1
EndChar

StartChar: Sacute
Encoding: 346 346 275
Width: 359
GlyphClass: 2
Flags: W
LayerCount: 2
Fore
SplineSet
173 885 m 1,0,-1
 279 885 l 1,1,-1
 234 771 l 1,2,-1
 130 771 l 1,3,-1
 173 885 l 1,0,-1
195 753 m 2,4,5
 273 753 273 753 305.5 717.5 c 128,-1,6
 338 682 338 682 338 607 c 2,7,-1
 338 507 l 1,8,-1
 210 507 l 1,9,-1
 210 600 l 2,10,11
 210 618 210 618 204.5 628.5 c 128,-1,12
 199 639 199 639 181 639 c 0,13,14
 164 639 164 639 158 628.5 c 128,-1,15
 152 618 152 618 152 599 c 2,16,-1
 152 582 l 2,17,18
 152 556 152 556 160 535 c 128,-1,19
 168 514 168 514 193 486 c 2,20,-1
 269 401 l 2,21,22
 294 373 294 373 310 348.5 c 128,-1,23
 326 324 326 324 335 301.5 c 128,-1,24
 344 279 344 279 347 256.5 c 128,-1,25
 350 234 350 234 350 210 c 2,26,-1
 350 175 l 2,27,28
 350 91 350 91 310.5 41 c 128,-1,29
 271 -9 271 -9 188 -9 c 2,30,-1
 162 -9 l 2,31,32
 86 -9 86 -9 48 30.5 c 128,-1,33
 10 70 10 70 10 145 c 2,34,-1
 10 279 l 1,35,-1
 141 279 l 1,36,-1
 141 160 l 2,37,38
 141 115 141 115 175 115 c 0,39,40
 208 115 208 115 208 169 c 2,41,-1
 208 183 l 2,42,43
 208 202 208 202 207 217 c 128,-1,44
 206 232 206 232 201.5 244.5 c 128,-1,45
 197 257 197 257 188.5 270 c 128,-1,46
 180 283 180 283 165 299 c 2,47,-1
 88 384 l 2,48,49
 46 429 46 429 31.5 474 c 128,-1,50
 17 519 17 519 17 573 c 2,51,-1
 17 605 l 2,52,53
 17 677 17 677 57.5 715 c 128,-1,54
 98 753 98 753 168 753 c 2,55,-1
 195 753 l 2,4,5
EndSplineSet
Validated: 1
EndChar

StartChar: sacute
Encoding: 347 347 276
Width: 302
GlyphClass: 2
Flags: W
LayerCount: 2
Fore
SplineSet
145 700 m 1,0,-1
 250 700 l 1,1,-1
 206 566 l 1,2,-1
 103 566 l 1,3,-1
 145 700 l 1,0,-1
289 446 m 2,4,-1
 289 373 l 1,5,-1
 175 373 l 1,6,-1
 175 429 l 2,7,8
 175 442 175 442 170.5 449.5 c 128,-1,9
 166 457 166 457 154 457 c 0,10,11
 141 457 141 457 137 449 c 128,-1,12
 133 441 133 441 133 429 c 2,13,-1
 133 418 l 2,14,15
 133 400 133 400 137.5 390 c 128,-1,16
 142 380 142 380 156 366 c 2,17,-1
 227 296 l 2,18,19
 248 275 248 275 261 257.5 c 128,-1,20
 274 240 274 240 282 222.5 c 128,-1,21
 290 205 290 205 293 186.5 c 128,-1,22
 296 168 296 168 296 147 c 2,23,-1
 296 129 l 2,24,25
 296 101 296 101 288 76 c 128,-1,26
 280 51 280 51 264 32 c 128,-1,27
 248 13 248 13 222.5 2 c 128,-1,28
 197 -9 197 -9 163 -9 c 2,29,-1
 137 -9 l 2,30,31
 102 -9 102 -9 77.5 0 c 128,-1,32
 53 9 53 9 37 25 c 128,-1,33
 21 41 21 41 14 62.5 c 128,-1,34
 7 84 7 84 7 108 c 2,35,-1
 7 196 l 1,36,-1
 125 196 l 1,37,-1
 125 124 l 2,38,39
 125 94 125 94 148 94 c 2,40,-1
 149 94 l 2,41,42
 170 94 170 94 170 125 c 2,43,-1
 170 137 l 2,44,45
 170 157 170 157 165 172 c 128,-1,46
 160 187 160 187 142 204 c 2,47,-1
 74 269 l 2,48,49
 38 304 38 304 26 336.5 c 128,-1,50
 14 369 14 369 14 411 c 2,51,-1
 14 428 l 2,52,53
 14 482 14 482 45 515 c 128,-1,54
 76 548 76 548 140 548 c 2,55,-1
 167 548 l 2,56,57
 235 548 235 548 262 519.5 c 128,-1,58
 289 491 289 491 289 446 c 2,4,-1
EndSplineSet
Validated: 1
EndChar

StartChar: Scircumflex
Encoding: 348 348 277
Width: 359
GlyphClass: 2
Flags: W
LayerCount: 2
Fore
SplineSet
300 771 m 1,0,-1
 211 771 l 1,1,-1
 183 817 l 1,2,-1
 156 771 l 1,3,-1
 67 771 l 1,4,-1
 132 885 l 1,5,-1
 234 885 l 1,6,-1
 300 771 l 1,0,-1
195 753 m 2,7,8
 273 753 273 753 305.5 717.5 c 128,-1,9
 338 682 338 682 338 607 c 2,10,-1
 338 507 l 1,11,-1
 210 507 l 1,12,-1
 210 600 l 2,13,14
 210 618 210 618 204.5 628.5 c 128,-1,15
 199 639 199 639 181 639 c 0,16,17
 164 639 164 639 158 628.5 c 128,-1,18
 152 618 152 618 152 599 c 2,19,-1
 152 582 l 2,20,21
 152 556 152 556 160 535 c 128,-1,22
 168 514 168 514 193 486 c 2,23,-1
 269 401 l 2,24,25
 294 373 294 373 310 348.5 c 128,-1,26
 326 324 326 324 335 301.5 c 128,-1,27
 344 279 344 279 347 256.5 c 128,-1,28
 350 234 350 234 350 210 c 2,29,-1
 350 175 l 2,30,31
 350 91 350 91 310.5 41 c 128,-1,32
 271 -9 271 -9 188 -9 c 2,33,-1
 162 -9 l 2,34,35
 86 -9 86 -9 48 30.5 c 128,-1,36
 10 70 10 70 10 145 c 2,37,-1
 10 279 l 1,38,-1
 141 279 l 1,39,-1
 141 160 l 2,40,41
 141 115 141 115 175 115 c 0,42,43
 208 115 208 115 208 169 c 2,44,-1
 208 183 l 2,45,46
 208 202 208 202 207 217 c 128,-1,47
 206 232 206 232 201.5 244.5 c 128,-1,48
 197 257 197 257 188.5 270 c 128,-1,49
 180 283 180 283 165 299 c 2,50,-1
 88 384 l 2,51,52
 46 429 46 429 31.5 474 c 128,-1,53
 17 519 17 519 17 573 c 2,54,-1
 17 605 l 2,55,56
 17 677 17 677 57.5 715 c 128,-1,57
 98 753 98 753 168 753 c 2,58,-1
 195 753 l 2,7,8
EndSplineSet
Validated: 1
EndChar

StartChar: scircumflex
Encoding: 349 349 278
Width: 302
GlyphClass: 2
Flags: W
LayerCount: 2
Fore
SplineSet
270 566 m 1,0,-1
 179 566 l 1,1,-1
 155 626 l 1,2,-1
 130 566 l 1,3,-1
 41 566 l 1,4,-1
 102 700 l 1,5,-1
 208 700 l 1,6,-1
 270 566 l 1,0,-1
289 446 m 2,7,-1
 289 373 l 1,8,-1
 175 373 l 1,9,-1
 175 429 l 2,10,11
 175 442 175 442 170.5 449.5 c 128,-1,12
 166 457 166 457 154 457 c 0,13,14
 141 457 141 457 137 449 c 128,-1,15
 133 441 133 441 133 429 c 2,16,-1
 133 418 l 2,17,18
 133 400 133 400 137.5 390 c 128,-1,19
 142 380 142 380 156 366 c 2,20,-1
 227 296 l 2,21,22
 248 275 248 275 261 257.5 c 128,-1,23
 274 240 274 240 282 222.5 c 128,-1,24
 290 205 290 205 293 186.5 c 128,-1,25
 296 168 296 168 296 147 c 2,26,-1
 296 129 l 2,27,28
 296 101 296 101 288 76 c 128,-1,29
 280 51 280 51 264 32 c 128,-1,30
 248 13 248 13 222.5 2 c 128,-1,31
 197 -9 197 -9 163 -9 c 2,32,-1
 137 -9 l 2,33,34
 102 -9 102 -9 77.5 0 c 128,-1,35
 53 9 53 9 37 25 c 128,-1,36
 21 41 21 41 14 62.5 c 128,-1,37
 7 84 7 84 7 108 c 2,38,-1
 7 196 l 1,39,-1
 125 196 l 1,40,-1
 125 124 l 2,41,42
 125 94 125 94 148 94 c 2,43,-1
 149 94 l 2,44,45
 170 94 170 94 170 125 c 2,46,-1
 170 137 l 2,47,48
 170 157 170 157 165 172 c 128,-1,49
 160 187 160 187 142 204 c 2,50,-1
 74 269 l 2,51,52
 38 304 38 304 26 336.5 c 128,-1,53
 14 369 14 369 14 411 c 2,54,-1
 14 428 l 2,55,56
 14 482 14 482 45 515 c 128,-1,57
 76 548 76 548 140 548 c 2,58,-1
 167 548 l 2,59,60
 235 548 235 548 262 519.5 c 128,-1,61
 289 491 289 491 289 446 c 2,7,-1
EndSplineSet
Validated: 1
EndChar

StartChar: Tbar
Encoding: 358 358 287
Width: 339
GlyphClass: 2
Flags: W
LayerCount: 2
Fore
SplineSet
35 349 m 1,0,-1
 35 463 l 1,1,-1
 304 463 l 1,2,-1
 304 349 l 1,3,-1
 35 349 l 1,0,-1
331 744 m 1,4,-1
 331 613 l 1,5,-1
 236 613 l 1,6,-1
 236 0 l 1,7,-1
 103 0 l 1,8,-1
 103 613 l 1,9,-1
 8 613 l 1,10,-1
 8 744 l 1,11,-1
 331 744 l 1,4,-1
EndSplineSet
Validated: 5
EndChar

StartChar: tbar
Encoding: 359 359 288
Width: 267
GlyphClass: 2
Flags: W
LayerCount: 2
Fore
SplineSet
128 0 m 2,0,1
 102 0 102 0 84.5 18.5 c 128,-1,2
 67 37 67 37 67 66 c 2,3,-1
 67 235 l 1,4,-1
 6 235 l 1,5,-1
 6 339 l 1,6,-1
 67 339 l 1,7,-1
 67 419 l 1,8,-1
 6 419 l 1,9,-1
 6 538 l 1,10,-1
 67 538 l 1,11,-1
 67 716 l 1,12,-1
 194 716 l 1,13,-1
 194 538 l 1,14,-1
 256 538 l 1,15,-1
 256 419 l 1,16,-1
 194 419 l 1,17,-1
 194 339 l 1,18,-1
 256 339 l 1,19,-1
 256 235 l 1,20,-1
 194 235 l 1,21,-1
 194 143 l 2,22,23
 194 132 194 132 197 126.5 c 128,-1,24
 200 121 200 121 213 121 c 2,25,-1
 256 121 l 1,26,-1
 256 0 l 1,27,-1
 128 0 l 2,0,1
EndSplineSet
Validated: 1
EndChar

StartChar: Uogonek
Encoding: 370 370 299
Width: 379
GlyphClass: 2
Flags: W
LayerCount: 2
Fore
SplineSet
153 -109 m 1,0,1
 153 -83 153 -83 170.5 -58.5 c 128,-1,2
 188 -34 188 -34 217 -11 c 1,3,-1
 205 -11 l 1,4,-1
 172 -11 l 2,5,6
 99 -11 99 -11 59.5 35 c 128,-1,7
 20 81 20 81 20 173 c 2,8,-1
 20 744 l 1,9,-1
 157 744 l 1,10,-1
 157 168 l 2,11,12
 157 122 157 122 190 122 c 0,13,14
 222 122 222 122 222 168 c 2,15,-1
 222 744 l 1,16,-1
 359 744 l 1,17,-1
 359 173 l 2,18,19
 359 135 359 135 352.5 108.5 c 128,-1,20
 346 82 346 82 336 62.5 c 128,-1,21
 326 43 326 43 313.5 28 c 128,-1,22
 301 13 301 13 290 0 c 0,23,24
 264 -30 264 -30 254.5 -48 c 128,-1,25
 245 -66 245 -66 245 -84 c 2,26,-1
 245 -88 l 2,27,28
 245 -108 245 -108 271 -108 c 2,29,-1
 289 -108 l 1,30,-1
 289 -188 l 1,31,-1
 231 -188 l 2,32,33
 199 -188 199 -188 176 -172 c 128,-1,34
 153 -156 153 -156 153 -124 c 2,35,-1
 153 -109 l 1,36,-1
 153 -109 l 1,0,1
EndSplineSet
Validated: 5
EndChar

StartChar: uni0192
Encoding: 402 402 312
Width: 276
GlyphClass: 2
Flags: W
LayerCount: 2
Fore
SplineSet
64 362 m 1,0,-1
 6 362 l 1,1,-1
 6 481 l 1,2,-1
 69 481 l 1,3,-1
 78 656 l 2,4,5
 80 698 80 698 103 721 c 128,-1,6
 126 744 126 744 183 744 c 2,7,-1
 266 744 l 1,8,-1
 266 631 l 1,9,-1
 229 631 l 2,10,11
 215 631 215 631 210 625.5 c 128,-1,12
 205 620 205 620 203 604 c 2,13,-1
 197 481 l 1,14,-1
 266 481 l 1,15,-1
 266 362 l 1,16,-1
 191 362 l 1,17,-1
 165 -188 l 1,18,-1
 38 -188 l 1,19,-1
 64 362 l 1,0,-1
EndSplineSet
Validated: 1
EndChar

StartChar: Oslashacute
Encoding: 510 510 317
Width: 381
GlyphClass: 2
Flags: W
LayerCount: 2
Fore
SplineSet
180 885 m 1,0,-1
 286 885 l 1,1,-1
 241 771 l 1,2,-1
 137 771 l 1,3,-1
 180 885 l 1,0,-1
363 170 m 2,4,5
 363 88 363 88 321.5 38.5 c 128,-1,6
 280 -11 280 -11 205 -11 c 2,7,-1
 180 -11 l 2,8,9
 122 -11 122 -11 84 24 c 1,10,-1
 74 0 l 1,11,-1
 0 0 l 1,12,-1
 33 82 l 1,13,14
 26 100 26 100 22 122 c 128,-1,15
 18 144 18 144 18 170 c 2,16,-1
 18 563 l 2,17,18
 18 606 18 606 27 641 c 128,-1,19
 36 676 36 676 55 701 c 128,-1,20
 74 726 74 726 104.5 739.5 c 128,-1,21
 135 753 135 753 178 753 c 2,22,-1
 203 753 l 2,23,24
 260 753 260 753 296 720 c 1,25,-1
 306 744 l 1,26,-1
 380 744 l 1,27,-1
 347 661 l 1,28,29
 363 625 363 625 363 564 c 2,30,-1
 363 170 l 2,4,5
192 122 m 0,31,32
 214 122 214 122 221 135.5 c 128,-1,33
 228 149 228 149 228 166 c 2,34,-1
 228 394 l 1,35,-1
 153 188 l 1,36,-1
 153 166 l 2,37,38
 153 149 153 149 161 135.5 c 128,-1,39
 169 122 169 122 192 122 c 0,31,32
191 623 m 0,40,41
 170 623 170 623 161.5 611 c 128,-1,42
 153 599 153 599 153 574 c 2,43,-1
 153 350 l 1,44,-1
 228 559 l 1,45,-1
 228 574 l 2,46,47
 228 623 228 623 191 623 c 0,40,41
EndSplineSet
Validated: 1
EndChar

StartChar: oslashacute
Encoding: 511 511 318
Width: 336
GlyphClass: 2
Flags: W
LayerCount: 2
Fore
SplineSet
158 700 m 1,0,-1
 263 700 l 1,1,-1
 219 566 l 1,2,-1
 116 566 l 1,3,-1
 158 700 l 1,0,-1
15 142 m 2,4,-1
 15 397 l 2,5,6
 15 470 15 470 52 509 c 128,-1,7
 89 548 89 548 155 548 c 2,8,-1
 181 548 l 2,9,10
 210 548 210 548 231 540 c 128,-1,11
 252 532 252 532 268 519 c 1,12,-1
 278 538 l 1,13,-1
 344 538 l 1,14,-1
 309 469 l 1,15,16
 314 455 314 455 317.5 437 c 128,-1,17
 321 419 321 419 321 399 c 2,18,-1
 321 144 l 2,19,20
 321 111 321 111 311.5 83 c 128,-1,21
 302 55 302 55 284 34 c 128,-1,22
 266 13 266 13 240 1.5 c 128,-1,23
 214 -10 214 -10 181 -10 c 2,24,-1
 155 -10 l 2,25,26
 127 -10 127 -10 105.5 -1 c 128,-1,27
 84 8 84 8 70 20 c 1,28,-1
 60 0 l 1,29,-1
 -7 0 l 1,30,-1
 29 70 l 1,31,32
 21 86 21 86 18 104 c 128,-1,33
 15 122 15 122 15 142 c 2,4,-1
196 401 m 2,34,35
 196 418 196 418 190.5 428 c 128,-1,36
 185 438 185 438 168 438 c 0,37,38
 152 438 152 438 146 428 c 128,-1,39
 140 418 140 418 140 401 c 2,40,-1
 140 264 l 1,41,-1
 196 387 l 1,42,-1
 196 401 l 2,34,35
168 105 m 256,43,44
 185 105 185 105 190.5 116.5 c 128,-1,45
 196 128 196 128 196 143 c 2,46,-1
 196 272 l 1,47,-1
 140 151 l 1,48,-1
 140 143 l 2,49,50
 140 127 140 127 145.5 116 c 128,-1,51
 151 105 151 105 168 105 c 256,43,44
EndSplineSet
Validated: 1
EndChar

StartChar: uni0237
Encoding: 567 567 323
Width: 165
GlyphClass: 2
Flags: W
LayerCount: 2
Fore
SplineSet
1 -69 m 2,0,1
 11 -69 11 -69 15 -65 c 128,-1,2
 19 -61 19 -61 19 -48 c 2,3,-1
 19 538 l 1,4,-1
 147 538 l 1,5,-1
 147 -116 l 2,6,7
 147 -145 147 -145 127.5 -166.5 c 128,-1,8
 108 -188 108 -188 73 -188 c 2,9,-1
 -51 -188 l 1,10,-1
 -51 -69 l 1,11,-1
 1 -69 l 2,0,1
EndSplineSet
Validated: 1
EndChar

StartChar: circumflex
Encoding: 710 710 324
Width: 342
GlyphClass: 2
Flags: W
LayerCount: 2
Fore
SplineSet
286 564 m 1,0,-1
 195 564 l 1,1,-1
 171 626 l 1,2,-1
 146 564 l 1,3,-1
 57 564 l 1,4,-1
 118 700 l 1,5,-1
 224 700 l 1,6,-1
 286 564 l 1,0,-1
EndSplineSet
Validated: 1
EndChar

StartChar: caron
Encoding: 711 711 325
Width: 342
GlyphClass: 2
Flags: W
LayerCount: 2
Fore
SplineSet
57 700 m 1,0,-1
 148 700 l 1,1,-1
 172 638 l 1,2,-1
 197 700 l 1,3,-1
 286 700 l 1,4,-1
 224 564 l 1,5,-1
 119 564 l 1,6,-1
 57 700 l 1,0,-1
EndSplineSet
Validated: 1
EndChar

StartChar: breve
Encoding: 728 728 326
Width: 342
GlyphClass: 2
Flags: W
LayerCount: 2
Fore
SplineSet
174 563 m 2,0,-1
 171 563 l 2,1,2
 123 563 123 563 93 590.5 c 128,-1,3
 63 618 63 618 63 672 c 2,4,-1
 63 680 l 1,5,-1
 148 680 l 1,6,-1
 148 674 l 2,7,8
 148 641 148 641 172 641 c 2,9,-1
 173 641 l 2,10,11
 197 641 197 641 197 674 c 2,12,-1
 197 680 l 1,13,-1
 280 680 l 1,14,-1
 280 672 l 2,15,16
 280 618 280 618 248.5 590.5 c 128,-1,17
 217 563 217 563 174 563 c 2,0,-1
EndSplineSet
Validated: 1
EndChar

StartChar: dotaccent
Encoding: 729 729 327
Width: 342
GlyphClass: 2
Flags: W
LayerCount: 2
Fore
SplineSet
235 564 m 1,0,-1
 107 564 l 1,1,-1
 107 690 l 1,2,-1
 235 690 l 1,3,-1
 235 564 l 1,0,-1
EndSplineSet
Validated: 1
EndChar

StartChar: ring
Encoding: 730 730 328
Width: 342
GlyphClass: 2
Flags: W
LayerCount: 2
Fore
SplineSet
171 608 m 256,0,1
 186 608 186 608 194.5 617.5 c 128,-1,2
 203 627 203 627 203 641 c 256,3,4
 203 655 203 655 194.5 664.5 c 128,-1,5
 186 674 186 674 171 674 c 256,6,7
 156 674 156 674 147.5 664.5 c 128,-1,8
 139 655 139 655 139 641 c 256,9,10
 139 627 139 627 147.5 617.5 c 128,-1,11
 156 608 156 608 171 608 c 256,0,1
171 562 m 256,12,13
 136 562 136 562 113.5 584 c 128,-1,14
 91 606 91 606 91 641 c 256,15,16
 91 676 91 676 113.5 698 c 128,-1,17
 136 720 136 720 171 720 c 256,18,19
 206 720 206 720 228.5 698 c 128,-1,20
 251 676 251 676 251 641 c 256,21,22
 251 606 251 606 228.5 584 c 128,-1,23
 206 562 206 562 171 562 c 256,12,13
EndSplineSet
Validated: 1
EndChar

StartChar: ogonek
Encoding: 731 731 329
Width: 342
GlyphClass: 2
Flags: W
LayerCount: 2
Fore
SplineSet
102 -109 m 2,0,1
 102 -81 102 -81 122.5 -55 c 128,-1,2
 143 -29 143 -29 176 0 c 1,3,-1
 238 0 l 1,4,5
 213 -31 213 -31 203.5 -48.5 c 128,-1,6
 194 -66 194 -66 194 -84 c 2,7,-1
 194 -88 l 2,8,9
 194 -108 194 -108 220 -108 c 2,10,-1
 238 -108 l 1,11,-1
 238 -188 l 1,12,-1
 180 -188 l 2,13,14
 148 -188 148 -188 125 -172 c 128,-1,15
 102 -156 102 -156 102 -124 c 2,16,-1
 102 -109 l 2,0,1
EndSplineSet
Validated: 1
EndChar

StartChar: tilde
Encoding: 732 732 330
Width: 342
GlyphClass: 2
Flags: W
LayerCount: 2
Fore
SplineSet
279 678 m 1,0,-1
 279 622 l 2,1,2
 279 597 279 597 264.5 580 c 128,-1,3
 250 563 250 563 225 563 c 0,4,5
 208 563 208 563 197 567 c 128,-1,6
 186 571 186 571 165 582 c 0,7,8
 154 587 154 587 150 589 c 128,-1,9
 146 591 146 591 142 591 c 0,10,11
 137 591 137 591 136 587.5 c 128,-1,12
 135 584 135 584 135 579 c 2,13,-1
 135 563 l 1,14,-1
 63 563 l 1,15,-1
 63 610 l 2,16,17
 63 640 63 640 77.5 659 c 128,-1,18
 92 678 92 678 118 678 c 0,19,20
 135 678 135 678 146 673.5 c 128,-1,21
 157 669 157 669 177 660 c 0,22,23
 188 655 188 655 192 653.5 c 128,-1,24
 196 652 196 652 200 652 c 0,25,26
 206 652 206 652 206 662 c 2,27,-1
 206 678 l 1,28,-1
 279 678 l 1,0,-1
EndSplineSet
Validated: 1
EndChar

StartChar: hungarumlaut
Encoding: 733 733 331
Width: 342
GlyphClass: 2
Flags: W
LayerCount: 2
Fore
SplineSet
84 700 m 1,0,-1
 172 700 l 1,1,-1
 146 564 l 1,2,-1
 60 564 l 1,3,-1
 84 700 l 1,0,-1
194 700 m 1,4,-1
 282 700 l 1,5,-1
 254 564 l 1,6,-1
 169 564 l 1,7,-1
 194 700 l 1,4,-1
EndSplineSet
Validated: 1
EndChar

StartChar: endash
Encoding: 8211 8211 341
Width: 338
GlyphClass: 2
Flags: W
LayerCount: 2
Fore
SplineSet
323 345 m 1,0,-1
 323 255 l 1,1,-1
 15 255 l 1,2,-1
 15 345 l 1,3,-1
 323 345 l 1,0,-1
EndSplineSet
Validated: 1
Substitution2: "'case' Case-Sensitive Forms in Latin lookup 25 subtable" endash.uc
EndChar

StartChar: emdash
Encoding: 8212 8212 342
Width: 510
GlyphClass: 2
Flags: W
LayerCount: 2
Fore
SplineSet
495 345 m 1,0,-1
 495 255 l 1,1,-1
 15 255 l 1,2,-1
 15 345 l 1,3,-1
 495 345 l 1,0,-1
EndSplineSet
Validated: 1
Substitution2: "'case' Case-Sensitive Forms in Latin lookup 25 subtable" emdash.uc
EndChar

StartChar: quoteleft
Encoding: 8216 8216 343
Width: 139
GlyphClass: 2
Flags: W
LayerCount: 2
Fore
SplineSet
101 744 m 1,0,1
 94 723 94 723 88.5 697.5 c 128,-1,2
 83 672 83 672 82 652 c 1,3,-1
 125 652 l 1,4,-1
 125 524 l 1,5,-1
 14 524 l 1,6,-1
 14 627 l 2,7,8
 14 665 14 665 22.5 696.5 c 128,-1,9
 31 728 31 728 38 744 c 1,10,-1
 101 744 l 1,0,1
EndSplineSet
Validated: 1
EndChar

StartChar: quoteright
Encoding: 8217 8217 344
Width: 139
GlyphClass: 2
Flags: W
LayerCount: 2
Fore
SplineSet
38 524 m 1,0,1
 45 545 45 545 50.5 570.5 c 128,-1,2
 56 596 56 596 57 616 c 1,3,-1
 14 616 l 1,4,-1
 14 744 l 1,5,-1
 125 744 l 1,6,-1
 125 641 l 2,7,8
 125 603 125 603 116.5 571.5 c 128,-1,9
 108 540 108 540 101 524 c 1,10,-1
 38 524 l 1,0,1
EndSplineSet
Validated: 1
EndChar

StartChar: quotesinglbase
Encoding: 8218 8218 345
Width: 139
GlyphClass: 2
Flags: W
LayerCount: 2
Fore
SplineSet
101 -92 m 1,0,-1
 38 -92 l 1,1,2
 45 -71 45 -71 50.5 -45.5 c 128,-1,3
 56 -20 56 -20 57 0 c 1,4,-1
 14 0 l 1,5,-1
 14 128 l 1,6,-1
 125 128 l 1,7,-1
 125 25 l 2,8,9
 125 -13 125 -13 116.5 -44.5 c 128,-1,10
 108 -76 108 -76 101 -92 c 1,0,-1
EndSplineSet
Validated: 1
EndChar

StartChar: quotedblleft
Encoding: 8220 8220 346
Width: 267
GlyphClass: 2
Flags: W
LayerCount: 2
Fore
SplineSet
101 744 m 1,0,1
 94 723 94 723 88.5 697.5 c 128,-1,2
 83 672 83 672 82 652 c 1,3,-1
 125 652 l 1,4,-1
 125 524 l 1,5,-1
 14 524 l 1,6,-1
 14 627 l 2,7,8
 14 665 14 665 22.5 696.5 c 128,-1,9
 31 728 31 728 38 744 c 1,10,-1
 101 744 l 1,0,1
229 744 m 1,11,12
 222 723 222 723 216.5 697.5 c 128,-1,13
 211 672 211 672 210 652 c 1,14,-1
 253 652 l 1,15,-1
 253 524 l 1,16,-1
 142 524 l 1,17,-1
 142 627 l 2,18,19
 142 665 142 665 150.5 696.5 c 128,-1,20
 159 728 159 728 166 744 c 1,21,-1
 229 744 l 1,11,12
EndSplineSet
Validated: 1
EndChar

StartChar: quotedblright
Encoding: 8221 8221 347
Width: 267
GlyphClass: 2
Flags: W
LayerCount: 2
Fore
SplineSet
38 524 m 1,0,1
 45 545 45 545 50.5 570.5 c 128,-1,2
 56 596 56 596 57 616 c 1,3,-1
 14 616 l 1,4,-1
 14 744 l 1,5,-1
 125 744 l 1,6,-1
 125 641 l 2,7,8
 125 603 125 603 116.5 571.5 c 128,-1,9
 108 540 108 540 101 524 c 1,10,-1
 38 524 l 1,0,1
166 524 m 1,11,12
 173 545 173 545 178.5 570.5 c 128,-1,13
 184 596 184 596 185 616 c 1,14,-1
 142 616 l 1,15,-1
 142 744 l 1,16,-1
 253 744 l 1,17,-1
 253 641 l 2,18,19
 253 603 253 603 244.5 571.5 c 128,-1,20
 236 540 236 540 229 524 c 1,21,-1
 166 524 l 1,11,12
EndSplineSet
Validated: 1
EndChar

StartChar: quotedblbase
Encoding: 8222 8222 348
Width: 267
GlyphClass: 2
Flags: W
LayerCount: 2
Fore
SplineSet
101 -92 m 1,0,-1
 38 -92 l 1,1,2
 45 -71 45 -71 50.5 -45.5 c 128,-1,3
 56 -20 56 -20 57 0 c 1,4,-1
 14 0 l 1,5,-1
 14 128 l 1,6,-1
 125 128 l 1,7,-1
 125 25 l 2,8,9
 125 -13 125 -13 116.5 -44.5 c 128,-1,10
 108 -76 108 -76 101 -92 c 1,0,-1
229 -92 m 1,11,-1
 166 -92 l 1,12,13
 173 -71 173 -71 178.5 -45.5 c 128,-1,14
 184 -20 184 -20 185 0 c 1,15,-1
 142 0 l 1,16,-1
 142 128 l 1,17,-1
 253 128 l 1,18,-1
 253 25 l 2,19,20
 253 -13 253 -13 244.5 -44.5 c 128,-1,21
 236 -76 236 -76 229 -92 c 1,11,-1
EndSplineSet
Validated: 1
EndChar

StartChar: dagger
Encoding: 8224 8224 349
Width: 271
GlyphClass: 2
Flags: W
LayerCount: 2
Fore
SplineSet
71 475 m 1,0,-1
 7 475 l 1,1,-1
 7 601 l 1,2,-1
 71 601 l 1,3,-1
 71 744 l 1,4,-1
 200 744 l 1,5,-1
 200 601 l 1,6,-1
 264 601 l 1,7,-1
 264 475 l 1,8,-1
 200 475 l 1,9,-1
 200 0 l 1,10,-1
 71 0 l 1,11,-1
 71 475 l 1,0,-1
EndSplineSet
Validated: 1
EndChar

StartChar: daggerdbl
Encoding: 8225 8225 350
Width: 271
GlyphClass: 2
Flags: W
LayerCount: 2
Fore
SplineSet
7 144 m 1,0,-1
 7 269 l 1,1,-1
 71 269 l 1,2,-1
 71 475 l 1,3,-1
 7 475 l 1,4,-1
 7 600 l 1,5,-1
 71 600 l 1,6,-1
 71 744 l 1,7,-1
 200 744 l 1,8,-1
 200 600 l 1,9,-1
 264 600 l 1,10,-1
 264 475 l 1,11,-1
 200 475 l 1,12,-1
 200 269 l 1,13,-1
 264 269 l 1,14,-1
 264 144 l 1,15,-1
 200 144 l 1,16,-1
 200 0 l 1,17,-1
 71 0 l 1,18,-1
 71 144 l 1,19,-1
 7 144 l 1,0,-1
EndSplineSet
Validated: 1
EndChar

StartChar: bullet
Encoding: 8226 8226 351
Width: 236
GlyphClass: 2
Flags: W
LayerCount: 2
Fore
SplineSet
118 221 m 0,0,1
 70 221 70 221 41.5 252 c 128,-1,2
 13 283 13 283 13 329 c 256,3,4
 13 375 13 375 41.5 406.5 c 128,-1,5
 70 438 70 438 118 438 c 0,6,7
 164 438 164 438 193.5 406.5 c 128,-1,8
 223 375 223 375 223 329 c 256,9,10
 223 283 223 283 193.5 252 c 128,-1,11
 164 221 164 221 118 221 c 0,0,1
EndSplineSet
Validated: 1
EndChar

StartChar: ellipsis
Encoding: 8230 8230 352
Width: 428
GlyphClass: 2
Flags: W
LayerCount: 2
Fore
SplineSet
413 144 m 1,0,-1
 413 0 l 1,1,-1
 294 0 l 1,2,-1
 294 144 l 1,3,-1
 413 144 l 1,0,-1
154 144 m 1,4,-1
 273 144 l 1,5,-1
 273 0 l 1,6,-1
 154 0 l 1,7,-1
 154 144 l 1,4,-1
15 0 m 1,8,-1
 15 144 l 1,9,-1
 134 144 l 1,10,-1
 134 0 l 1,11,-1
 15 0 l 1,8,-1
EndSplineSet
Validated: 1
EndChar

StartChar: perthousand
Encoding: 8240 8240 353
Width: 729
GlyphClass: 2
Flags: W
LayerCount: 2
Fore
SplineSet
599 -5 m 2,0,1
 554 -5 554 -5 526.5 21.5 c 128,-1,2
 499 48 499 48 499 102 c 2,3,-1
 499 230 l 2,4,5
 499 284 499 284 526.5 311 c 128,-1,6
 554 338 554 338 599 338 c 2,7,-1
 618 338 l 2,8,9
 666 338 666 338 691.5 309.5 c 128,-1,10
 717 281 717 281 717 230 c 2,11,-1
 717 102 l 2,12,13
 717 51 717 51 691.5 23 c 128,-1,14
 666 -5 666 -5 618 -5 c 2,15,-1
 599 -5 l 2,0,1
364 -5 m 2,16,17
 319 -5 319 -5 292 21.5 c 128,-1,18
 265 48 265 48 265 102 c 2,19,-1
 265 230 l 2,20,21
 265 284 265 284 292 311 c 128,-1,22
 319 338 319 338 364 338 c 2,23,-1
 384 338 l 2,24,25
 430 338 430 338 456 309.5 c 128,-1,26
 482 281 482 281 482 230 c 2,27,-1
 482 102 l 2,28,29
 482 51 482 51 456 23 c 128,-1,30
 430 -5 430 -5 384 -5 c 2,31,-1
 364 -5 l 2,16,17
12 643 m 2,32,33
 12 697 12 697 39 723.5 c 128,-1,34
 66 750 66 750 111 750 c 2,35,-1
 131 750 l 2,36,37
 177 750 177 750 203 722 c 128,-1,38
 229 694 229 694 229 643 c 2,39,-1
 229 515 l 2,40,41
 229 464 229 464 203 435.5 c 128,-1,42
 177 407 177 407 131 407 c 2,43,-1
 111 407 l 2,44,45
 66 407 66 407 39 434 c 128,-1,46
 12 461 12 461 12 515 c 2,47,-1
 12 643 l 2,32,33
429 744 m 1,48,-1
 150 0 l 1,49,-1
 67 0 l 1,50,-1
 346 744 l 1,51,-1
 429 744 l 1,48,-1
608 75 m 0,52,53
 618 75 618 75 621.5 81 c 128,-1,54
 625 87 625 87 625 95 c 2,55,-1
 625 238 l 2,56,57
 625 258 625 258 608 258 c 0,58,59
 592 258 592 258 592 238 c 2,60,-1
 592 95 l 2,61,62
 592 87 592 87 595.5 81 c 128,-1,63
 599 75 599 75 608 75 c 0,52,53
137 651 m 2,64,65
 137 659 137 659 133.5 665 c 128,-1,66
 130 671 130 671 120 671 c 0,67,68
 111 671 111 671 107.5 665 c 128,-1,69
 104 659 104 659 104 651 c 2,70,-1
 104 508 l 2,71,72
 104 488 104 488 120 488 c 0,73,74
 137 488 137 488 137 508 c 2,75,-1
 137 651 l 2,64,65
373 75 m 0,76,77
 383 75 383 75 386.5 81 c 128,-1,78
 390 87 390 87 390 95 c 2,79,-1
 390 238 l 2,80,81
 390 258 390 258 373 258 c 0,82,83
 357 258 357 258 357 238 c 2,84,-1
 357 95 l 2,85,86
 357 87 357 87 360.5 81 c 128,-1,87
 364 75 364 75 373 75 c 0,76,77
EndSplineSet
Validated: 1
EndChar

StartChar: uni2032
Encoding: 8242 8242 354
Width: 119
GlyphClass: 2
Flags: W
LayerCount: 2
Fore
SplineSet
95 553 m 1,0,-1
 2 553 l 1,1,-1
 23 744 l 1,2,-1
 117 744 l 1,3,-1
 95 553 l 1,0,-1
EndSplineSet
Validated: 1
EndChar

StartChar: uni2033
Encoding: 8243 8243 355
Width: 228
GlyphClass: 2
Flags: W
LayerCount: 2
Fore
SplineSet
93 553 m 1,0,-1
 2 553 l 1,1,-1
 23 744 l 1,2,-1
 115 744 l 1,3,-1
 93 553 l 1,0,-1
204 553 m 1,4,-1
 112 553 l 1,5,-1
 135 744 l 1,6,-1
 226 744 l 1,7,-1
 204 553 l 1,4,-1
EndSplineSet
Validated: 1
EndChar

StartChar: guilsinglleft
Encoding: 8249 8249 356
Width: 163
GlyphClass: 2
Flags: W
LayerCount: 2
Fore
SplineSet
155 119 m 1,0,-1
 56 119 l 1,1,-1
 12 256 l 1,2,-1
 12 316 l 1,3,-1
 56 451 l 1,4,-1
 156 451 l 1,5,-1
 110 286 l 1,6,-1
 155 119 l 1,0,-1
EndSplineSet
Validated: 1
Substitution2: "'case' Case-Sensitive Forms in Latin lookup 25 subtable" guilsinglleft.uc
EndChar

StartChar: guilsinglright
Encoding: 8250 8250 357
Width: 163
GlyphClass: 2
Flags: W
LayerCount: 2
Fore
SplineSet
8 451 m 1,0,-1
 108 451 l 1,1,-1
 151 315 l 1,2,-1
 151 255 l 1,3,-1
 108 119 l 1,4,-1
 7 119 l 1,5,-1
 52 285 l 1,6,-1
 8 451 l 1,0,-1
EndSplineSet
Validated: 1
Substitution2: "'case' Case-Sensitive Forms in Latin lookup 25 subtable" guilsinglright.uc
EndChar

StartChar: fraction
Encoding: 8260 8260 358
Width: 352
GlyphClass: 2
Flags: W
LayerCount: 2
Fore
SplineSet
350 744 m 1,0,-1
 83 0 l 1,1,-1
 2 0 l 1,2,-1
 269 744 l 1,3,-1
 350 744 l 1,0,-1
EndSplineSet
Validated: 1
EndChar

StartChar: Euro
Encoding: 8364 8364 359
Width: 416
GlyphClass: 2
Flags: W
LayerCount: 2
Fore
SplineSet
7 375 m 1,0,-1
 62 375 l 1,1,-1
 62 401 l 1,2,-1
 7 401 l 1,3,-1
 7 485 l 1,4,-1
 62 485 l 1,5,-1
 62 584 l 2,6,7
 62 618 62 618 70 648.5 c 128,-1,8
 78 679 78 679 96.5 702 c 128,-1,9
 115 725 115 725 144.5 739 c 128,-1,10
 174 753 174 753 216 753 c 2,11,-1
 247 753 l 2,12,13
 293 753 293 753 323 739.5 c 128,-1,14
 353 726 353 726 370 703 c 128,-1,15
 387 680 387 680 393.5 650.5 c 128,-1,16
 400 621 400 621 400 589 c 2,17,-1
 400 508 l 1,18,-1
 268 508 l 1,19,-1
 268 584 l 2,20,21
 268 605 268 605 260.5 616 c 128,-1,22
 253 627 253 627 234 627 c 0,23,24
 216 627 216 627 208.5 616.5 c 128,-1,25
 201 606 201 606 201 584 c 2,26,-1
 201 485 l 1,27,-1
 332 485 l 1,28,-1
 332 401 l 1,29,-1
 201 401 l 1,30,-1
 201 375 l 1,31,-1
 332 375 l 1,32,-1
 332 291 l 1,33,-1
 201 291 l 1,34,-1
 201 165 l 2,35,36
 201 120 201 120 235 120 c 0,37,38
 253 120 253 120 260.5 132.5 c 128,-1,39
 268 145 268 145 268 165 c 2,40,-1
 268 266 l 1,41,-1
 400 266 l 1,42,-1
 400 161 l 2,43,44
 400 128 400 128 392.5 97 c 128,-1,45
 385 66 385 66 367.5 42 c 128,-1,46
 350 18 350 18 320.5 3.5 c 128,-1,47
 291 -11 291 -11 247 -11 c 2,48,-1
 216 -11 l 2,49,50
 169 -11 169 -11 139 3.5 c 128,-1,51
 109 18 109 18 92 42 c 128,-1,52
 75 66 75 66 68.5 98 c 128,-1,53
 62 130 62 130 62 165 c 2,54,-1
 62 291 l 1,55,-1
 7 291 l 1,56,-1
 7 375 l 1,0,-1
EndSplineSet
Validated: 1
EndChar

StartChar: trademark
Encoding: 8482 8482 360
Width: 349
GlyphClass: 2
Flags: W
LayerCount: 2
Fore
SplineSet
152 744 m 1,0,-1
 231 744 l 1,1,-1
 246 622 l 1,2,-1
 259 744 l 1,3,-1
 337 744 l 1,4,-1
 337 463 l 1,5,-1
 280 463 l 1,6,-1
 280 622 l 1,7,-1
 258 463 l 1,8,-1
 230 463 l 1,9,-1
 209 622 l 1,10,-1
 209 463 l 1,11,-1
 152 463 l 1,12,-1
 152 744 l 1,0,-1
139 680 m 1,13,-1
 108 680 l 1,14,-1
 108 463 l 1,15,-1
 36 463 l 1,16,-1
 36 680 l 1,17,-1
 6 680 l 1,18,-1
 6 744 l 1,19,-1
 139 744 l 1,20,-1
 139 680 l 1,13,-1
EndSplineSet
Validated: 1
EndChar

StartChar: minus
Encoding: 8722 8722 367
Width: 320
GlyphClass: 2
Flags: W
LayerCount: 2
Fore
SplineSet
305 346 m 1,0,-1
 305 255 l 1,1,-1
 15 255 l 1,2,-1
 15 346 l 1,3,-1
 305 346 l 1,0,-1
EndSplineSet
Validated: 1
Substitution2: "'case' Case-Sensitive Forms in Latin lookup 25 subtable" minus.uc
EndChar

StartChar: uni24C5
Encoding: 9413 9413 368
Width: 519
GlyphClass: 2
Flags: W
LayerCount: 2
Fore
SplineSet
256 -11 m 2,0,1
 200 -11 200 -11 156 4 c 128,-1,2
 112 19 112 19 81.5 50 c 128,-1,3
 51 81 51 81 35 129 c 128,-1,4
 19 177 19 177 19 244 c 2,5,-1
 19 502 l 2,6,7
 19 628 19 628 82 691.5 c 128,-1,8
 145 755 145 755 257 755 c 2,9,-1
 269 755 l 2,10,11
 381 755 381 755 440.5 693 c 128,-1,12
 500 631 500 631 500 502 c 2,13,-1
 500 244 l 2,14,15
 500 176 500 176 482.5 128 c 128,-1,16
 465 80 465 80 433.5 49 c 128,-1,17
 402 18 402 18 359.5 3.5 c 128,-1,18
 317 -11 317 -11 266 -11 c 2,19,-1
 256 -11 l 2,0,1
258 56 m 2,20,-1
 266 56 l 2,21,22
 309 56 309 56 339 70.5 c 128,-1,23
 369 85 369 85 388 111.5 c 128,-1,24
 407 138 407 138 415.5 175.5 c 128,-1,25
 424 213 424 213 424 259 c 2,26,-1
 424 489 l 2,27,28
 424 532 424 532 416 568.5 c 128,-1,29
 408 605 408 605 390 631.5 c 128,-1,30
 372 658 372 658 342 673 c 128,-1,31
 312 688 312 688 268 688 c 2,32,-1
 258 688 l 2,33,34
 169 688 169 688 133 636 c 128,-1,35
 97 584 97 584 97 489 c 2,36,-1
 97 259 l 2,37,38
 97 163 97 163 134.5 109.5 c 128,-1,39
 172 56 172 56 258 56 c 2,20,-1
252 312 m 1,40,-1
 252 120 l 1,41,-1
 149 120 l 1,42,-1
 149 626 l 1,43,-1
 296 626 l 2,44,45
 344 626 344 626 367 605 c 128,-1,46
 390 584 390 584 390 526 c 2,47,-1
 390 414 l 2,48,49
 390 360 390 360 367 336 c 128,-1,50
 344 312 344 312 296 312 c 2,51,-1
 252 312 l 1,40,-1
252 396 m 1,52,-1
 267 396 l 2,53,54
 279 396 279 396 283.5 403.5 c 128,-1,55
 288 411 288 411 288 426 c 2,56,-1
 288 514 l 2,57,58
 288 530 288 530 283.5 536 c 128,-1,59
 279 542 279 542 267 542 c 2,60,-1
 252 542 l 1,61,-1
 252 396 l 1,52,-1
EndSplineSet
Validated: 1
EndChar

StartChar: E.alt
Encoding: 58500 58500 369
Width: 310
GlyphClass: 2
Flags: W
LayerCount: 2
Fore
SplineSet
296 744 m 1,0,-1
 296 613 l 1,1,-1
 154 613 l 1,2,-1
 154 451 l 1,3,-1
 289 451 l 1,4,-1
 289 317 l 1,5,-1
 154 317 l 1,6,-1
 154 134 l 1,7,-1
 300 134 l 1,8,-1
 300 0 l 1,9,-1
 21 0 l 1,10,-1
 21 744 l 1,11,-1
 296 744 l 1,0,-1
EndSplineSet
Validated: 1
EndChar

StartChar: F.alt
Encoding: 58501 58501 370
Width: 306
GlyphClass: 2
Flags: W
LayerCount: 2
Fore
SplineSet
295 744 m 1,0,-1
 295 613 l 1,1,-1
 154 613 l 1,2,-1
 154 451 l 1,3,-1
 288 451 l 1,4,-1
 288 317 l 1,5,-1
 154 317 l 1,6,-1
 154 0 l 1,7,-1
 21 0 l 1,8,-1
 21 744 l 1,9,-1
 295 744 l 1,0,-1
EndSplineSet
Validated: 1
EndChar

StartChar: J.alt
Encoding: 58505 58505 371
Width: 240
GlyphClass: 2
Flags: W
LayerCount: 2
Fore
SplineSet
9 134 m 1,0,-1
 63 134 l 2,1,2
 75 134 75 134 78.5 140.5 c 128,-1,3
 82 147 82 147 82 159 c 2,4,-1
 82 744 l 1,5,-1
 220 744 l 1,6,-1
 220 87 l 2,7,8
 220 42 220 42 198.5 21 c 128,-1,9
 177 0 177 0 142 0 c 2,10,-1
 9 0 l 1,11,-1
 9 134 l 1,0,-1
EndSplineSet
Validated: 1
EndChar

StartChar: a.alt
Encoding: 58560 58560 372
Width: 324
GlyphClass: 2
Flags: W
LayerCount: 2
Fore
SplineSet
305 123 m 2,0,1
 305 90 305 90 306 70 c 128,-1,2
 307 50 307 50 308.5 38 c 128,-1,3
 310 26 310 26 312 19 c 128,-1,4
 314 12 314 12 316 5 c 2,5,-1
 316 0 l 1,6,-1
 194 0 l 1,7,8
 190 5 190 5 186 18.5 c 128,-1,9
 182 32 182 32 182 61 c 1,10,11
 177 51 177 51 168.5 39.5 c 128,-1,12
 160 28 160 28 149 18 c 128,-1,13
 138 8 138 8 123.5 1.5 c 128,-1,14
 109 -5 109 -5 91 -5 c 2,15,-1
 87 -5 l 2,16,17
 69 -5 69 -5 55 3 c 128,-1,18
 41 11 41 11 32 24 c 128,-1,19
 23 37 23 37 18.5 53.5 c 128,-1,20
 14 70 14 70 14 88 c 2,21,-1
 14 205 l 2,22,23
 14 246 14 246 27.5 271.5 c 128,-1,24
 41 297 41 297 70 315 c 0,25,26
 79 321 79 321 94 328.5 c 128,-1,27
 109 336 109 336 124.5 343.5 c 128,-1,28
 140 351 140 351 154 357.5 c 128,-1,29
 168 364 168 364 174 368 c 0,30,31
 178 370 178 370 180 373.5 c 128,-1,32
 182 377 182 377 182 388 c 2,33,-1
 182 417 l 2,34,35
 182 434 182 434 176.5 440 c 128,-1,36
 171 446 171 446 160 446 c 2,37,-1
 156 446 l 2,38,39
 143 446 143 446 138.5 438.5 c 128,-1,40
 134 431 134 431 134 417 c 2,41,-1
 134 364 l 1,42,-1
 20 364 l 1,43,-1
 20 438 l 2,44,45
 20 456 20 456 25 474.5 c 128,-1,46
 30 493 30 493 44 508.5 c 128,-1,47
 58 524 58 524 82.5 534 c 128,-1,48
 107 544 107 544 146 544 c 2,49,-1
 169 544 l 2,50,51
 209 544 209 544 235.5 535.5 c 128,-1,52
 262 527 262 527 277.5 511 c 128,-1,53
 293 495 293 495 299 473.5 c 128,-1,54
 305 452 305 452 305 426 c 2,55,-1
 305 123 l 2,0,1
182 265 m 1,56,57
 177 262 177 262 166.5 255 c 128,-1,58
 156 248 156 248 149 240 c 256,59,60
 142 232 142 232 139.5 223.5 c 128,-1,61
 137 215 137 215 137 199 c 2,62,-1
 137 134 l 2,63,64
 137 119 137 119 141.5 110.5 c 128,-1,65
 146 102 146 102 158 102 c 0,66,67
 182 102 182 102 182 134 c 2,68,-1
 182 265 l 1,56,57
EndSplineSet
Validated: 1
Substitution2: "'ss04' Style Set 4 in Latin lookup 24 subtable" a.alt2
EndChar

StartChar: r.alt
Encoding: 58577 58577 373
Width: 275
GlyphClass: 2
Flags: W
LayerCount: 2
Fore
SplineSet
145 458 m 1,0,1
 176 542 176 542 229 542 c 2,2,-1
 236 542 l 2,3,4
 245 542 245 542 253.5 540.5 c 128,-1,5
 262 539 262 539 264 538 c 2,6,-1
 264 392 l 1,7,8
 256 395 256 395 242.5 398 c 128,-1,9
 229 401 229 401 209 401 c 2,10,-1
 205 401 l 2,11,12
 172 401 172 401 159 390.5 c 128,-1,13
 146 380 146 380 146 358 c 2,14,-1
 146 0 l 1,15,-1
 18 0 l 1,16,-1
 18 538 l 1,17,-1
 145 538 l 1,18,-1
 145 458 l 1,0,1
EndSplineSet
Validated: 1
EndChar

StartChar: f_f
Encoding: 64256 64256 374
Width: 480
GlyphClass: 3
Flags: W
LayerCount: 2
Fore
SplineSet
260 631 m 1,0,-1
 213 631 l 2,1,2
 200 631 200 631 196.5 625.5 c 128,-1,3
 193 620 193 620 193 608 c 2,4,-1
 193 538 l 1,5,-1
 277 538 l 1,6,-1
 277 670 l 2,7,8
 277 697 277 697 296 720.5 c 128,-1,9
 315 744 315 744 359 744 c 2,10,-1
 471 744 l 1,11,-1
 471 631 l 1,12,-1
 424 631 l 2,13,14
 411 631 411 631 407.5 625.5 c 128,-1,15
 404 620 404 620 404 608 c 2,16,-1
 404 538 l 1,17,-1
 469 538 l 1,18,-1
 469 419 l 1,19,-1
 404 419 l 1,20,-1
 404 0 l 1,21,-1
 277 0 l 1,22,-1
 277 419 l 1,23,-1
 193 419 l 1,24,-1
 193 0 l 1,25,-1
 66 0 l 1,26,-1
 66 419 l 1,27,-1
 6 419 l 1,28,-1
 6 538 l 1,29,-1
 66 538 l 1,30,-1
 66 670 l 2,31,32
 66 697 66 697 85 720.5 c 128,-1,33
 104 744 104 744 148 744 c 2,34,-1
 260 744 l 1,35,-1
 260 631 l 1,0,-1
EndSplineSet
Validated: 1
Substitution2: "Single Substitution lookup 33 subtable" f_f.short
Ligature2: "'liga' Standard Ligatures in Latin lookup 26 subtable" f f
EndChar

StartChar: idotaccent
Encoding: 65538 -1 377
Width: 164
GlyphClass: 2
Flags: W
LayerCount: 2
Fore
SplineSet
146 0 m 1,0,-1
 18 0 l 1,1,-1
 18 538 l 1,2,-1
 146 538 l 1,3,-1
 146 0 l 1,0,-1
146 564 m 1,4,-1
 18 564 l 1,5,-1
 18 690 l 1,6,-1
 146 690 l 1,7,-1
 146 564 l 1,4,-1
EndSplineSet
Validated: 1
EndChar

StartChar: space_uni0326
Encoding: 65539 -1 378
Width: 342
GlyphClass: 2
Flags: W
LayerCount: 2
Fore
SplineSet
149 -203 m 1,0,1
 154 -191 154 -191 157.5 -174.5 c 128,-1,2
 161 -158 161 -158 163 -136 c 1,3,-1
 120 -136 l 1,4,-1
 120 -26 l 1,5,-1
 222 -26 l 1,6,-1
 222 -96 l 2,7,8
 222 -138 222 -138 213.5 -165 c 128,-1,9
 205 -192 205 -192 200 -203 c 1,10,-1
 149 -203 l 1,0,1
EndSplineSet
Validated: 1
EndChar

StartChar: zero.num
Encoding: 65540 -1 379
Width: 231
GlyphClass: 2
Flags: W
LayerCount: 2
Fore
SplineSet
122 750 m 2,0,1
 173 750 173 750 196 723.5 c 128,-1,2
 219 697 219 697 219 652 c 2,3,-1
 219 489 l 2,4,5
 219 446 219 446 193 421.5 c 128,-1,6
 167 397 167 397 122 397 c 2,7,-1
 108 397 l 2,8,9
 63 397 63 397 38 421.5 c 128,-1,10
 13 446 13 446 13 489 c 2,11,-1
 13 652 l 2,12,13
 13 697 13 697 37 723.5 c 128,-1,14
 61 750 61 750 110 750 c 2,15,-1
 122 750 l 2,0,1
116 675 m 256,16,17
 101 675 101 675 101 654 c 2,18,-1
 101 493 l 2,19,20
 101 474 101 474 115 474 c 0,21,22
 131 474 131 474 131 493 c 2,23,-1
 131 654 l 2,24,25
 131 675 131 675 116 675 c 256,16,17
EndSplineSet
Validated: 1
EndChar

StartChar: one.num
Encoding: 65541 -1 380
Width: 151
GlyphClass: 2
Flags: W
LayerCount: 2
Fore
SplineSet
6 638 m 1,0,-1
 6 704 l 1,1,2
 38 704 38 704 48.5 716 c 128,-1,3
 59 728 59 728 61 744 c 1,4,-1
 133 744 l 1,5,-1
 133 404 l 1,6,-1
 49 404 l 1,7,-1
 49 638 l 1,8,-1
 6 638 l 1,0,-1
EndSplineSet
Validated: 1
EndChar

StartChar: two.num
Encoding: 65542 -1 381
Width: 224
GlyphClass: 2
Flags: W
LayerCount: 2
Fore
SplineSet
7 402 m 1,0,-1
 7 446 l 2,1,2
 7 459 7 459 9.5 471.5 c 128,-1,3
 12 484 12 484 20.5 499 c 128,-1,4
 29 514 29 514 45 534.5 c 128,-1,5
 61 555 61 555 87 584 c 0,6,7
 99 597 99 597 105 605.5 c 128,-1,8
 111 614 111 614 114 621.5 c 128,-1,9
 117 629 117 629 117.5 635.5 c 128,-1,10
 118 642 118 642 118 651 c 2,11,-1
 118 667 l 2,12,13
 118 684 118 684 104 684 c 0,14,15
 91 684 91 684 91 667 c 2,16,-1
 91 614 l 1,17,-1
 13 614 l 1,18,-1
 13 671 l 2,19,20
 13 686 13 686 17 700 c 128,-1,21
 21 714 21 714 31 725.5 c 128,-1,22
 41 737 41 737 56.5 743.5 c 128,-1,23
 72 750 72 750 96 750 c 2,24,-1
 111 750 l 2,25,26
 139 750 139 750 157 743.5 c 128,-1,27
 175 737 175 737 185.5 725.5 c 128,-1,28
 196 714 196 714 200.5 700 c 128,-1,29
 205 686 205 686 205 671 c 2,30,-1
 205 653 l 2,31,32
 205 618 205 618 190.5 593.5 c 128,-1,33
 176 569 176 569 142 538 c 0,34,35
 121 519 121 519 110 508.5 c 128,-1,36
 99 498 99 498 93.5 491.5 c 128,-1,37
 88 485 88 485 87 480.5 c 128,-1,38
 86 476 86 476 86 470 c 1,39,-1
 139 470 l 1,40,-1
 139 524 l 1,41,-1
 213 524 l 1,42,-1
 213 402 l 1,43,-1
 7 402 l 1,0,-1
EndSplineSet
Validated: 1
EndChar

StartChar: three.num
Encoding: 65543 -1 382
Width: 214
GlyphClass: 2
Flags: W
LayerCount: 2
Fore
SplineSet
12 630 m 1,0,-1
 12 666 l 2,1,2
 12 705 12 705 30.5 727.5 c 128,-1,3
 49 750 49 750 97 750 c 2,4,-1
 109 750 l 2,5,6
 154 750 154 750 175.5 731 c 128,-1,7
 197 712 197 712 197 669 c 2,8,-1
 197 646 l 2,9,10
 197 621 197 621 187 608.5 c 128,-1,11
 177 596 177 596 167 592 c 1,12,13
 181 587 181 587 192.5 574 c 128,-1,14
 204 561 204 561 204 538 c 2,15,-1
 204 483 l 2,16,17
 204 444 204 444 182 420.5 c 128,-1,18
 160 397 160 397 112 397 c 2,19,-1
 98 397 l 2,20,21
 72 397 72 397 55 403.5 c 128,-1,22
 38 410 38 410 28 421 c 128,-1,23
 18 432 18 432 14.5 446 c 128,-1,24
 11 460 11 460 11 476 c 2,25,-1
 11 527 l 1,26,-1
 91 527 l 1,27,-1
 91 481 l 2,28,29
 91 464 91 464 104 464 c 0,30,31
 116 464 116 464 116 481 c 2,32,-1
 116 530 l 2,33,34
 116 539 116 539 113 542 c 128,-1,35
 110 545 110 545 103 545 c 2,36,-1
 64 545 l 1,37,-1
 64 614 l 1,38,-1
 101 614 l 2,39,40
 115 614 115 614 115 630 c 2,41,-1
 115 668 l 2,42,43
 115 686 115 686 102 686 c 256,44,45
 89 686 89 686 89 668 c 2,46,-1
 89 630 l 1,47,-1
 12 630 l 1,0,-1
EndSplineSet
Validated: 1
EndChar

StartChar: four.num
Encoding: 65544 -1 383
Width: 212
GlyphClass: 2
Flags: W
LayerCount: 2
Fore
SplineSet
7 520 m 1,0,1
 15 539 15 539 26.5 568 c 128,-1,2
 38 597 38 597 50 628.5 c 128,-1,3
 62 660 62 660 73.5 691 c 128,-1,4
 85 722 85 722 93 745 c 1,5,-1
 176 745 l 1,6,-1
 176 534 l 1,7,-1
 204 534 l 1,8,-1
 204 462 l 1,9,-1
 176 462 l 1,10,-1
 176 403 l 1,11,-1
 96 403 l 1,12,-1
 96 462 l 1,13,-1
 7 462 l 1,14,-1
 7 520 l 1,0,1
96 534 m 1,15,-1
 96 621 l 2,16,17
 94 613 94 613 90 601 c 128,-1,18
 86 589 86 589 81.5 576.5 c 128,-1,19
 77 564 77 564 72.5 552.5 c 128,-1,20
 68 541 68 541 65 534 c 1,21,-1
 96 534 l 1,15,-1
EndSplineSet
Validated: 1
EndChar

StartChar: five.num
Encoding: 65545 -1 384
Width: 215
GlyphClass: 2
Flags: W
LayerCount: 2
Fore
SplineSet
15 545 m 1,0,-1
 15 744 l 1,1,-1
 195 744 l 1,2,-1
 195 673 l 1,3,-1
 92 673 l 1,4,-1
 92 612 l 1,5,6
 101 624 101 624 114.5 636.5 c 128,-1,7
 128 649 128 649 150 649 c 0,8,9
 179 649 179 649 192 630.5 c 128,-1,10
 205 612 205 612 205 584 c 2,11,-1
 205 491 l 2,12,13
 205 446 205 446 183 421.5 c 128,-1,14
 161 397 161 397 115 397 c 2,15,-1
 100 397 l 2,16,17
 49 397 49 397 30 420 c 128,-1,18
 11 443 11 443 11 479 c 2,19,-1
 11 519 l 1,20,-1
 94 519 l 1,21,-1
 94 478 l 2,22,23
 94 463 94 463 106 463 c 0,24,25
 111 463 111 463 114.5 467.5 c 128,-1,26
 118 472 118 472 118 478 c 2,27,-1
 118 561 l 2,28,29
 118 579 118 579 106 579 c 0,30,31
 93 579 93 579 93 561 c 2,32,-1
 93 545 l 1,33,-1
 15 545 l 1,0,-1
EndSplineSet
Validated: 1
EndChar

StartChar: six.num
Encoding: 65546 -1 385
Width: 226
GlyphClass: 2
Flags: W
LayerCount: 2
Fore
SplineSet
161 623 m 0,0,1
 190 623 190 623 202.5 604 c 128,-1,2
 215 585 215 585 215 562 c 2,3,-1
 215 487 l 2,4,5
 215 448 215 448 190.5 422.5 c 128,-1,6
 166 397 166 397 115 397 c 0,7,8
 60 397 60 397 36.5 423.5 c 128,-1,9
 13 450 13 450 13 488 c 2,10,-1
 13 662 l 2,11,12
 13 678 13 678 17.5 694 c 128,-1,13
 22 710 22 710 33 722.5 c 128,-1,14
 44 735 44 735 63.5 742.5 c 128,-1,15
 83 750 83 750 112 750 c 256,16,17
 141 750 141 750 159.5 743.5 c 128,-1,18
 178 737 178 737 189 725.5 c 128,-1,19
 200 714 200 714 204 698.5 c 128,-1,20
 208 683 208 683 208 665 c 2,21,-1
 208 639 l 1,22,-1
 124 639 l 1,23,-1
 124 665 l 2,24,25
 124 681 124 681 111 681 c 0,26,27
 104 681 104 681 102 676 c 128,-1,28
 100 671 100 671 100 665 c 2,29,-1
 100 591 l 1,30,31
 108 602 108 602 123 612.5 c 128,-1,32
 138 623 138 623 161 623 c 0,0,1
113 466 m 0,33,34
 121 466 121 466 124.5 472 c 128,-1,35
 128 478 128 478 128 486 c 2,36,-1
 128 540 l 2,37,38
 128 561 128 561 113 561 c 0,39,40
 106 561 106 561 103 555 c 128,-1,41
 100 549 100 549 100 540 c 2,42,-1
 100 486 l 2,43,44
 100 466 100 466 113 466 c 0,33,34
EndSplineSet
Validated: 1
EndChar

StartChar: seven.num
Encoding: 65547 -1 386
Width: 198
GlyphClass: 2
Flags: W
LayerCount: 2
Fore
SplineSet
191 744 m 1,0,-1
 191 708 l 2,1,2
 191 688 191 688 183 654.5 c 128,-1,3
 175 621 175 621 163 561 c 0,4,5
 154 517 154 517 152 482.5 c 128,-1,6
 150 448 150 448 150 403 c 1,7,-1
 52 403 l 1,8,9
 52 422 52 422 53 439 c 128,-1,10
 54 456 54 456 57 473 c 128,-1,11
 60 490 60 490 65.5 509.5 c 128,-1,12
 71 529 71 529 80 553 c 0,13,14
 91 582 91 582 98.5 603 c 128,-1,15
 106 624 106 624 111 639 c 128,-1,16
 116 654 116 654 118 664 c 128,-1,17
 120 674 120 674 120 682 c 1,18,-1
 85 682 l 1,19,-1
 85 623 l 1,20,-1
 11 623 l 1,21,-1
 11 744 l 1,22,-1
 191 744 l 1,0,-1
EndSplineSet
Validated: 1
EndChar

StartChar: eight.num
Encoding: 65548 -1 387
Width: 217
GlyphClass: 2
Flags: W
LayerCount: 2
Fore
SplineSet
204 645 m 2,0,1
 204 616 204 616 193 603 c 128,-1,2
 182 590 182 590 172 584 c 1,3,4
 186 578 186 578 196.5 563 c 128,-1,5
 207 548 207 548 207 520 c 2,6,-1
 207 482 l 2,7,8
 207 444 207 444 184.5 420.5 c 128,-1,9
 162 397 162 397 113 397 c 2,10,-1
 104 397 l 2,11,12
 53 397 53 397 32 420.5 c 128,-1,13
 11 444 11 444 11 483 c 2,14,-1
 11 520 l 2,15,16
 11 567 11 567 44 584 c 1,17,18
 33 592 33 592 23.5 605.5 c 128,-1,19
 14 619 14 619 14 645 c 2,20,-1
 14 671 l 2,21,22
 14 750 14 750 104 750 c 2,23,-1
 113 750 l 2,24,25
 204 750 204 750 204 671 c 2,26,-1
 204 645 l 2,0,1
122 531 m 2,27,28
 122 550 122 550 108 550 c 0,29,30
 95 550 95 550 95 531 c 2,31,-1
 95 483 l 2,32,33
 95 476 95 476 98.5 471 c 128,-1,34
 102 466 102 466 108 466 c 0,35,36
 116 466 116 466 119 471 c 128,-1,37
 122 476 122 476 122 483 c 2,38,-1
 122 531 l 2,27,28
121 667 m 2,39,40
 121 685 121 685 108 685 c 0,41,42
 96 685 96 685 96 667 c 2,43,-1
 96 630 l 2,44,45
 96 613 96 613 109 613 c 0,46,47
 121 613 121 613 121 630 c 2,48,-1
 121 667 l 2,39,40
EndSplineSet
Validated: 1
EndChar

StartChar: nine.num
Encoding: 65549 -1 388
Width: 226
GlyphClass: 2
Flags: W
LayerCount: 2
Fore
SplineSet
11 660 m 2,0,1
 11 698 11 698 34 724 c 128,-1,2
 57 750 57 750 111 750 c 0,3,4
 167 750 167 750 190 724 c 128,-1,5
 213 698 213 698 213 660 c 2,6,-1
 213 485 l 2,7,8
 213 469 213 469 208.5 453.5 c 128,-1,9
 204 438 204 438 193 425.5 c 128,-1,10
 182 413 182 413 162.5 405 c 128,-1,11
 143 397 143 397 113 397 c 256,12,13
 83 397 83 397 64.5 403.5 c 128,-1,14
 46 410 46 410 35.5 421.5 c 128,-1,15
 25 433 25 433 21.5 448 c 128,-1,16
 18 463 18 463 18 480 c 2,17,-1
 18 508 l 1,18,-1
 102 508 l 1,19,-1
 102 482 l 2,20,21
 102 466 102 466 115 466 c 0,22,23
 122 466 122 466 124 471 c 128,-1,24
 126 476 126 476 126 482 c 2,25,-1
 126 556 l 1,26,27
 118 545 118 545 103.5 534.5 c 128,-1,28
 89 524 89 524 67 524 c 0,29,30
 39 524 39 524 25 543.5 c 128,-1,31
 11 563 11 563 11 586 c 2,32,-1
 11 660 l 2,0,1
112 681 m 0,33,34
 103 681 103 681 100 675.5 c 128,-1,35
 97 670 97 670 97 661 c 2,36,-1
 97 606 l 2,37,38
 97 586 97 586 112 586 c 0,39,40
 126 586 126 586 126 606 c 2,41,-1
 126 661 l 2,42,43
 126 681 126 681 112 681 c 0,33,34
EndSplineSet
Validated: 1
EndChar

StartChar: a.alt2
Encoding: 65581 -1 420
Width: 339
GlyphClass: 2
Flags: W
LayerCount: 2
Fore
SplineSet
321 538 m 1,0,-1
 321 0 l 1,1,-1
 195 0 l 1,2,-1
 195 60 l 1,3,4
 190 51 190 51 182 38.5 c 128,-1,5
 174 26 174 26 163 15 c 128,-1,6
 152 4 152 4 138 -3.5 c 128,-1,7
 124 -11 124 -11 108 -11 c 2,8,-1
 105 -11 l 2,9,10
 85 -11 85 -11 69 -2 c 128,-1,11
 53 7 53 7 41.5 23 c 128,-1,12
 30 39 30 39 23.5 60 c 128,-1,13
 17 81 17 81 17 104 c 2,14,-1
 17 437 l 2,15,16
 17 456 17 456 22 475 c 128,-1,17
 27 494 27 494 37 509.5 c 128,-1,18
 47 525 47 525 61.5 534.5 c 128,-1,19
 76 544 76 544 94 544 c 2,20,-1
 101 544 l 2,21,22
 119 544 119 544 134 537 c 128,-1,23
 149 530 149 530 161 520.5 c 128,-1,24
 173 511 173 511 181.5 500 c 128,-1,25
 190 489 190 489 195 481 c 1,26,-1
 195 538 l 1,27,-1
 321 538 l 1,0,-1
195 396 m 2,28,29
 195 414 195 414 189.5 425.5 c 128,-1,30
 184 437 184 437 169 437 c 0,31,32
 145 437 145 437 145 400 c 2,33,-1
 145 138 l 2,34,35
 145 121 145 121 150 111 c 128,-1,36
 155 101 155 101 169 101 c 256,37,38
 183 101 183 101 189 112 c 128,-1,39
 195 123 195 123 195 143 c 2,40,-1
 195 396 l 2,28,29
EndSplineSet
Validated: 1
EndChar

StartChar: aacute.alt
Encoding: 65592 -1 431
Width: 324
GlyphClass: 2
Flags: W
LayerCount: 2
Fore
SplineSet
150 700 m 1,0,-1
 255 700 l 1,1,-1
 211 564 l 1,2,-1
 108 564 l 1,3,-1
 150 700 l 1,0,-1
305 123 m 2,4,5
 305 90 305 90 306 70 c 128,-1,6
 307 50 307 50 308.5 38 c 128,-1,7
 310 26 310 26 312 19 c 128,-1,8
 314 12 314 12 316 5 c 2,9,-1
 316 0 l 1,10,-1
 194 0 l 1,11,12
 190 5 190 5 186 18.5 c 128,-1,13
 182 32 182 32 182 61 c 1,14,15
 177 51 177 51 168.5 39.5 c 128,-1,16
 160 28 160 28 149 18 c 128,-1,17
 138 8 138 8 123.5 1.5 c 128,-1,18
 109 -5 109 -5 91 -5 c 2,19,-1
 87 -5 l 2,20,21
 69 -5 69 -5 55 3 c 128,-1,22
 41 11 41 11 32 24 c 128,-1,23
 23 37 23 37 18.5 53.5 c 128,-1,24
 14 70 14 70 14 88 c 2,25,-1
 14 205 l 2,26,27
 14 246 14 246 27.5 271.5 c 128,-1,28
 41 297 41 297 70 315 c 0,29,30
 79 321 79 321 94 328.5 c 128,-1,31
 109 336 109 336 124.5 343.5 c 128,-1,32
 140 351 140 351 154 357.5 c 128,-1,33
 168 364 168 364 174 368 c 0,34,35
 178 370 178 370 180 373.5 c 128,-1,36
 182 377 182 377 182 388 c 2,37,-1
 182 417 l 2,38,39
 182 434 182 434 176.5 440 c 128,-1,40
 171 446 171 446 160 446 c 2,41,-1
 156 446 l 2,42,43
 143 446 143 446 138.5 438.5 c 128,-1,44
 134 431 134 431 134 417 c 2,45,-1
 134 364 l 1,46,-1
 20 364 l 1,47,-1
 20 438 l 2,48,49
 20 456 20 456 25 474.5 c 128,-1,50
 30 493 30 493 44 508.5 c 128,-1,51
 58 524 58 524 82.5 534 c 128,-1,52
 107 544 107 544 146 544 c 2,53,-1
 169 544 l 2,54,55
 209 544 209 544 235.5 535.5 c 128,-1,56
 262 527 262 527 277.5 511 c 128,-1,57
 293 495 293 495 299 473.5 c 128,-1,58
 305 452 305 452 305 426 c 2,59,-1
 305 123 l 2,4,5
182 265 m 1,60,61
 177 262 177 262 166.5 255 c 128,-1,62
 156 248 156 248 149 240 c 256,63,64
 142 232 142 232 139.5 223.5 c 128,-1,65
 137 215 137 215 137 199 c 2,66,-1
 137 134 l 2,67,68
 137 119 137 119 141.5 110.5 c 128,-1,69
 146 102 146 102 158 102 c 0,70,71
 182 102 182 102 182 134 c 2,72,-1
 182 265 l 1,60,61
EndSplineSet
Validated: 1
Substitution2: "'ss04' Style Set 4 in Latin lookup 24 subtable" aacute.alt2
EndChar

StartChar: acircumflex.alt
Encoding: 65596 -1 435
Width: 324
GlyphClass: 2
Flags: W
LayerCount: 2
Fore
SplineSet
275 564 m 1,0,-1
 184 564 l 1,1,-1
 160 626 l 1,2,-1
 135 564 l 1,3,-1
 46 564 l 1,4,-1
 107 700 l 1,5,-1
 213 700 l 1,6,-1
 275 564 l 1,0,-1
305 123 m 2,7,8
 305 90 305 90 306 70 c 128,-1,9
 307 50 307 50 308.5 38 c 128,-1,10
 310 26 310 26 312 19 c 128,-1,11
 314 12 314 12 316 5 c 2,12,-1
 316 0 l 1,13,-1
 194 0 l 1,14,15
 190 5 190 5 186 18.5 c 128,-1,16
 182 32 182 32 182 61 c 1,17,18
 177 51 177 51 168.5 39.5 c 128,-1,19
 160 28 160 28 149 18 c 128,-1,20
 138 8 138 8 123.5 1.5 c 128,-1,21
 109 -5 109 -5 91 -5 c 2,22,-1
 87 -5 l 2,23,24
 69 -5 69 -5 55 3 c 128,-1,25
 41 11 41 11 32 24 c 128,-1,26
 23 37 23 37 18.5 53.5 c 128,-1,27
 14 70 14 70 14 88 c 2,28,-1
 14 205 l 2,29,30
 14 246 14 246 27.5 271.5 c 128,-1,31
 41 297 41 297 70 315 c 0,32,33
 79 321 79 321 94 328.5 c 128,-1,34
 109 336 109 336 124.5 343.5 c 128,-1,35
 140 351 140 351 154 357.5 c 128,-1,36
 168 364 168 364 174 368 c 0,37,38
 178 370 178 370 180 373.5 c 128,-1,39
 182 377 182 377 182 388 c 2,40,-1
 182 417 l 2,41,42
 182 434 182 434 176.5 440 c 128,-1,43
 171 446 171 446 160 446 c 2,44,-1
 156 446 l 2,45,46
 143 446 143 446 138.5 438.5 c 128,-1,47
 134 431 134 431 134 417 c 2,48,-1
 134 364 l 1,49,-1
 20 364 l 1,50,-1
 20 438 l 2,51,52
 20 456 20 456 25 474.5 c 128,-1,53
 30 493 30 493 44 508.5 c 128,-1,54
 58 524 58 524 82.5 534 c 128,-1,55
 107 544 107 544 146 544 c 2,56,-1
 169 544 l 2,57,58
 209 544 209 544 235.5 535.5 c 128,-1,59
 262 527 262 527 277.5 511 c 128,-1,60
 293 495 293 495 299 473.5 c 128,-1,61
 305 452 305 452 305 426 c 2,62,-1
 305 123 l 2,7,8
182 265 m 1,63,64
 177 262 177 262 166.5 255 c 128,-1,65
 156 248 156 248 149 240 c 256,66,67
 142 232 142 232 139.5 223.5 c 128,-1,68
 137 215 137 215 137 199 c 2,69,-1
 137 134 l 2,70,71
 137 119 137 119 141.5 110.5 c 128,-1,72
 146 102 146 102 158 102 c 0,73,74
 182 102 182 102 182 134 c 2,75,-1
 182 265 l 1,63,64
EndSplineSet
Validated: 1
Substitution2: "'ss04' Style Set 4 in Latin lookup 24 subtable" acircumflex.alt2
EndChar

StartChar: agrave.alt
Encoding: 65600 -1 439
Width: 324
GlyphClass: 2
Flags: W
LayerCount: 2
Fore
SplineSet
211 564 m 1,0,-1
 109 564 l 1,1,-1
 64 700 l 1,2,-1
 170 700 l 1,3,-1
 211 564 l 1,0,-1
305 123 m 2,4,5
 305 90 305 90 306 70 c 128,-1,6
 307 50 307 50 308.5 38 c 128,-1,7
 310 26 310 26 312 19 c 128,-1,8
 314 12 314 12 316 5 c 2,9,-1
 316 0 l 1,10,-1
 194 0 l 1,11,12
 190 5 190 5 186 18.5 c 128,-1,13
 182 32 182 32 182 61 c 1,14,15
 177 51 177 51 168.5 39.5 c 128,-1,16
 160 28 160 28 149 18 c 128,-1,17
 138 8 138 8 123.5 1.5 c 128,-1,18
 109 -5 109 -5 91 -5 c 2,19,-1
 87 -5 l 2,20,21
 69 -5 69 -5 55 3 c 128,-1,22
 41 11 41 11 32 24 c 128,-1,23
 23 37 23 37 18.5 53.5 c 128,-1,24
 14 70 14 70 14 88 c 2,25,-1
 14 205 l 2,26,27
 14 246 14 246 27.5 271.5 c 128,-1,28
 41 297 41 297 70 315 c 0,29,30
 79 321 79 321 94 328.5 c 128,-1,31
 109 336 109 336 124.5 343.5 c 128,-1,32
 140 351 140 351 154 357.5 c 128,-1,33
 168 364 168 364 174 368 c 0,34,35
 178 370 178 370 180 373.5 c 128,-1,36
 182 377 182 377 182 388 c 2,37,-1
 182 417 l 2,38,39
 182 434 182 434 176.5 440 c 128,-1,40
 171 446 171 446 160 446 c 2,41,-1
 156 446 l 2,42,43
 143 446 143 446 138.5 438.5 c 128,-1,44
 134 431 134 431 134 417 c 2,45,-1
 134 364 l 1,46,-1
 20 364 l 1,47,-1
 20 438 l 2,48,49
 20 456 20 456 25 474.5 c 128,-1,50
 30 493 30 493 44 508.5 c 128,-1,51
 58 524 58 524 82.5 534 c 128,-1,52
 107 544 107 544 146 544 c 2,53,-1
 169 544 l 2,54,55
 209 544 209 544 235.5 535.5 c 128,-1,56
 262 527 262 527 277.5 511 c 128,-1,57
 293 495 293 495 299 473.5 c 128,-1,58
 305 452 305 452 305 426 c 2,59,-1
 305 123 l 2,4,5
182 265 m 1,60,61
 177 262 177 262 166.5 255 c 128,-1,62
 156 248 156 248 149 240 c 256,63,64
 142 232 142 232 139.5 223.5 c 128,-1,65
 137 215 137 215 137 199 c 2,66,-1
 137 134 l 2,67,68
 137 119 137 119 141.5 110.5 c 128,-1,69
 146 102 146 102 158 102 c 0,70,71
 182 102 182 102 182 134 c 2,72,-1
 182 265 l 1,60,61
EndSplineSet
Validated: 1
Substitution2: "'ss04' Style Set 4 in Latin lookup 24 subtable" agrave.alt2
EndChar

StartChar: space_uni0326.alt
Encoding: 65615 -1 454
Width: 342
GlyphClass: 2
Flags: W
LayerCount: 2
Fore
SplineSet
194 742 m 1,0,1
 190 729 190 729 186 712 c 128,-1,2
 182 695 182 695 180 673 c 1,3,-1
 222 673 l 1,4,-1
 222 564 l 1,5,-1
 119 564 l 1,6,-1
 119 633 l 2,7,8
 119 675 119 675 127.5 703 c 128,-1,9
 136 731 136 731 141 742 c 1,10,-1
 194 742 l 1,0,1
EndSplineSet
Validated: 1
EndChar

StartChar: ordfeminine.alt
Encoding: 65616 -1 455
Width: 200
GlyphClass: 2
Flags: W
LayerCount: 2
Fore
SplineSet
110 488 m 1,0,1
 104 476 104 476 90 462 c 128,-1,2
 76 448 76 448 55 448 c 0,3,4
 32 448 32 448 21 465 c 128,-1,5
 10 482 10 482 10 503 c 2,6,-1
 10 556 l 2,7,8
 10 579 10 579 18.5 593 c 128,-1,9
 27 607 27 607 44 618 c 0,10,11
 49 621 49 621 58 626 c 128,-1,12
 67 631 67 631 76 635.5 c 128,-1,13
 85 640 85 640 93 644 c 128,-1,14
 101 648 101 648 105 650 c 0,15,16
 110 653 110 653 110 662 c 2,17,-1
 110 671 l 2,18,19
 110 687 110 687 98 687 c 2,20,-1
 97 687 l 2,21,22
 89 687 89 687 87 682.5 c 128,-1,23
 85 678 85 678 85 670 c 2,24,-1
 85 650 l 1,25,-1
 13 650 l 1,26,-1
 13 684 l 2,27,28
 13 694 13 694 16 705.5 c 128,-1,29
 19 717 19 717 27.5 726.5 c 128,-1,30
 36 736 36 736 51 742 c 128,-1,31
 66 748 66 748 89 748 c 2,32,-1
 103 748 l 2,33,34
 152 748 152 748 168.5 728.5 c 128,-1,35
 185 709 185 709 185 677 c 2,36,-1
 185 518 l 2,37,38
 185 500 185 500 185.5 489.5 c 128,-1,39
 186 479 186 479 187 472.5 c 128,-1,40
 188 466 188 466 189 462 c 128,-1,41
 190 458 190 458 191 455 c 2,42,-1
 191 451 l 1,43,-1
 116 451 l 2,44,45
 114 453 114 453 112 461 c 128,-1,46
 110 469 110 469 110 488 c 1,0,1
110 589 m 1,47,48
 100 585 100 585 93 578 c 256,49,50
 86 571 86 571 86 555 c 2,51,-1
 86 527 l 2,52,53
 86 510 86 510 97 510 c 0,54,55
 110 510 110 510 110 528 c 2,56,-1
 110 589 l 1,47,48
EndSplineSet
Validated: 1
Substitution2: "'ss04' Style Set 4 in Latin lookup 24 subtable" ordfeminine.alt2
EndChar

StartChar: ordfeminine.alt2
Encoding: 65617 -1 456
Width: 216
GlyphClass: 2
Flags: W
LayerCount: 2
Fore
SplineSet
200 744 m 1,0,-1
 200 451 l 1,1,-1
 121 451 l 1,2,-1
 121 486 l 1,3,4
 115 472 115 472 102 458.5 c 128,-1,5
 89 445 89 445 69 445 c 2,6,-1
 67 445 l 2,7,8
 44 445 44 445 29 463 c 128,-1,9
 14 481 14 481 14 511 c 2,10,-1
 14 685 l 2,11,12
 14 711 14 711 26.5 729 c 128,-1,13
 39 747 39 747 62 747 c 2,14,-1
 66 747 l 2,15,16
 88 747 88 747 100.5 735 c 128,-1,17
 113 723 113 723 121 709 c 1,18,-1
 121 744 l 1,19,-1
 200 744 l 1,0,-1
121 663 m 2,20,21
 121 685 121 685 106 685 c 0,22,23
 93 685 93 685 93 665 c 2,24,-1
 93 529 l 2,25,26
 93 509 93 509 106 509 c 0,27,28
 121 509 121 509 121 532 c 2,29,-1
 121 663 l 2,20,21
EndSplineSet
Validated: 1
EndChar

StartChar: emdash.alt
Encoding: 65618 -1 457
Width: 990
GlyphClass: 3
Flags: W
LayerCount: 2
Fore
SplineSet
975 345 m 1,0,-1
 975 255 l 1,1,-1
 15 255 l 1,2,-1
 15 345 l 1,3,-1
 975 345 l 1,0,-1
EndSplineSet
Validated: 1
Ligature2: "'liga' Standard Ligatures in Latin lookup 28 subtable" emdash emdash
EndChar

StartChar: caron.alt
Encoding: 65619 -1 458
Width: 342
GlyphClass: 2
Flags: W
LayerCount: 2
Fore
SplineSet
130 744 m 1,0,-1
 217 744 l 1,1,-1
 205 594 l 1,2,-1
 124 594 l 1,3,-1
 130 744 l 1,0,-1
EndSplineSet
Validated: 1
EndChar

StartChar: exclamdown.uc
Encoding: 65628 -1 467
Width: 164
GlyphClass: 2
Flags: W
LayerCount: 2
Fore
SplineSet
141 744 m 1,0,-1
 141 600 l 1,1,-1
 22 600 l 1,2,-1
 22 744 l 1,3,-1
 141 744 l 1,0,-1
154 0 m 1,4,-1
 9 0 l 1,5,-1
 56 577 l 1,6,-1
 107 577 l 1,7,-1
 154 0 l 1,4,-1
EndSplineSet
Validated: 1
EndChar

StartChar: parenleft.uc
Encoding: 65636 -1 475
Width: 213
GlyphClass: 2
Flags: W
LayerCount: 2
Fore
SplineSet
27 373 m 0,0,1
 27 448 27 448 38 515 c 128,-1,2
 49 582 49 582 65.5 638 c 128,-1,3
 82 694 82 694 101 739 c 128,-1,4
 120 784 120 784 136 816 c 1,5,-1
 213 816 l 1,6,7
 201 781 201 781 189 733 c 128,-1,8
 177 685 177 685 167 628 c 128,-1,9
 157 571 157 571 151 507 c 128,-1,10
 145 443 145 443 145 376 c 0,11,12
 145 307 145 307 151.5 241.5 c 128,-1,13
 158 176 158 176 168.5 117 c 128,-1,14
 179 58 179 58 191.5 7.5 c 128,-1,15
 204 -43 204 -43 216 -81 c 1,16,-1
 139 -81 l 1,17,18
 121 -44 121 -44 101 2.5 c 128,-1,19
 81 49 81 49 64.5 105.5 c 128,-1,20
 48 162 48 162 37.5 228.5 c 128,-1,21
 27 295 27 295 27 373 c 0,0,1
EndSplineSet
Validated: 1
EndChar

StartChar: parenright.uc
Encoding: 65637 -1 476
Width: 213
GlyphClass: 2
Flags: W
LayerCount: 2
Fore
SplineSet
186 373 m 0,0,1
 186 296 186 296 175 229 c 128,-1,2
 164 162 164 162 147.5 105.5 c 128,-1,3
 131 49 131 49 111.5 2.5 c 128,-1,4
 92 -44 92 -44 74 -81 c 1,5,-1
 -3 -81 l 1,6,7
 9 -43 9 -43 21.5 7.5 c 128,-1,8
 34 58 34 58 44.5 117 c 128,-1,9
 55 176 55 176 61.5 241.5 c 128,-1,10
 68 307 68 307 68 376 c 0,11,12
 68 443 68 443 62 507 c 128,-1,13
 56 571 56 571 46 628 c 128,-1,14
 36 685 36 685 24 733 c 128,-1,15
 12 781 12 781 0 816 c 1,16,-1
 77 816 l 1,17,18
 93 784 93 784 112 739 c 128,-1,19
 131 694 131 694 147.5 638 c 128,-1,20
 164 582 164 582 175 515 c 128,-1,21
 186 448 186 448 186 373 c 0,0,1
EndSplineSet
Validated: 1
EndChar

StartChar: bracketleft.uc
Encoding: 65638 -1 477
Width: 200
GlyphClass: 2
Flags: W
LayerCount: 2
Fore
SplineSet
194 721 m 1,0,-1
 140 721 l 1,1,-1
 140 23 l 1,2,-1
 194 23 l 1,3,-1
 194 -73 l 1,4,-1
 34 -73 l 1,5,-1
 34 817 l 1,6,-1
 194 817 l 1,7,-1
 194 721 l 1,0,-1
EndSplineSet
Validated: 1
EndChar

StartChar: bracketright.uc
Encoding: 65639 -1 478
Width: 200
GlyphClass: 2
Flags: W
LayerCount: 2
Fore
SplineSet
6 23 m 1,0,-1
 60 23 l 1,1,-1
 60 721 l 1,2,-1
 6 721 l 1,3,-1
 6 817 l 1,4,-1
 166 817 l 1,5,-1
 166 -73 l 1,6,-1
 6 -73 l 1,7,-1
 6 23 l 1,0,-1
EndSplineSet
Validated: 1
EndChar

StartChar: braceleft.uc
Encoding: 65640 -1 479
Width: 210
GlyphClass: 2
Flags: W
LayerCount: 2
Fore
SplineSet
172 289 m 0,0,1
 172 272 172 272 167.5 241.5 c 128,-1,2
 163 211 163 211 158 178 c 128,-1,3
 153 145 153 145 148.5 114 c 128,-1,4
 144 83 144 83 144 65 c 0,5,6
 144 46 144 46 153 32 c 128,-1,7
 162 18 162 18 187 18 c 2,8,-1
 204 18 l 1,9,-1
 204 -73 l 1,10,-1
 160 -73 l 2,11,12
 100 -73 100 -73 68 -43.5 c 128,-1,13
 36 -14 36 -14 36 40 c 0,14,15
 36 58 36 58 41 90 c 128,-1,16
 46 122 46 122 51.5 157.5 c 128,-1,17
 57 193 57 193 62 227.5 c 128,-1,18
 67 262 67 262 67 286 c 0,19,20
 67 303 67 303 60.5 313.5 c 128,-1,21
 54 324 54 324 37 324 c 2,22,-1
 17 324 l 1,23,-1
 17 425 l 1,24,-1
 37 425 l 2,25,26
 54 425 54 425 60.5 433 c 128,-1,27
 67 441 67 441 67 458 c 0,28,29
 67 483 67 483 62 518 c 128,-1,30
 57 553 57 553 51.5 588 c 128,-1,31
 46 623 46 623 41 655.5 c 128,-1,32
 36 688 36 688 36 709 c 0,33,34
 36 763 36 763 68 790 c 128,-1,35
 100 817 100 817 160 817 c 2,36,-1
 204 817 l 1,37,-1
 204 725 l 1,38,-1
 183 725 l 2,39,40
 161 725 161 725 152.5 714.5 c 128,-1,41
 144 704 144 704 144 687 c 256,42,43
 144 670 144 670 148.5 639.5 c 128,-1,44
 153 609 153 609 158 575.5 c 128,-1,45
 163 542 163 542 167.5 511.5 c 128,-1,46
 172 481 172 481 172 465 c 0,47,48
 172 431 172 431 162 408.5 c 128,-1,49
 152 386 152 386 121 374 c 1,50,51
 152 362 152 362 162 341 c 128,-1,52
 172 320 172 320 172 289 c 0,0,1
EndSplineSet
Validated: 1
EndChar

StartChar: braceright.uc
Encoding: 65641 -1 480
Width: 210
GlyphClass: 2
Flags: W
LayerCount: 2
Fore
SplineSet
37 465 m 0,0,1
 37 481 37 481 41.5 511.5 c 128,-1,2
 46 542 46 542 51.5 575.5 c 128,-1,3
 57 609 57 609 61.5 639.5 c 128,-1,4
 66 670 66 670 66 687 c 256,5,6
 66 704 66 704 57.5 714.5 c 128,-1,7
 49 725 49 725 27 725 c 2,8,-1
 6 725 l 1,9,-1
 6 817 l 1,10,-1
 50 817 l 2,11,12
 108 817 108 817 141 790 c 128,-1,13
 174 763 174 763 174 709 c 0,14,15
 174 688 174 688 169 655.5 c 128,-1,16
 164 623 164 623 158 588 c 128,-1,17
 152 553 152 553 147 518 c 128,-1,18
 142 483 142 483 142 458 c 0,19,20
 142 441 142 441 148.5 433 c 128,-1,21
 155 425 155 425 172 425 c 2,22,-1
 193 425 l 1,23,-1
 193 324 l 1,24,-1
 172 324 l 2,25,26
 155 324 155 324 148.5 313.5 c 128,-1,27
 142 303 142 303 142 286 c 0,28,29
 142 262 142 262 147 227.5 c 128,-1,30
 152 193 152 193 158 157.5 c 128,-1,31
 164 122 164 122 169 90 c 128,-1,32
 174 58 174 58 174 40 c 0,33,34
 174 -14 174 -14 142 -43.5 c 128,-1,35
 110 -73 110 -73 50 -73 c 2,36,-1
 6 -73 l 1,37,-1
 6 18 l 1,38,-1
 22 18 l 2,39,40
 48 18 48 18 57 32 c 128,-1,41
 66 46 66 46 66 65 c 0,42,43
 66 83 66 83 61.5 114 c 128,-1,44
 57 145 57 145 51.5 178 c 128,-1,45
 46 211 46 211 41.5 241.5 c 128,-1,46
 37 272 37 272 37 289 c 0,47,48
 37 320 37 320 46.5 341 c 128,-1,49
 56 362 56 362 88 374 c 1,50,51
 57 386 57 386 47 408.5 c 128,-1,52
 37 431 37 431 37 465 c 0,0,1
EndSplineSet
Validated: 1
EndChar

StartChar: slash.uc
Encoding: 65642 -1 481
Width: 219
GlyphClass: 2
Flags: W
LayerCount: 2
Fore
SplineSet
93 -81 m 1,0,-1
 -1 -81 l 1,1,-1
 124 816 l 1,2,-1
 219 816 l 1,3,-1
 93 -81 l 1,0,-1
EndSplineSet
Validated: 1
EndChar

StartChar: backslash.uc
Encoding: 65643 -1 482
Width: 220
GlyphClass: 2
Flags: W
LayerCount: 2
Fore
SplineSet
1 816 m 1,0,-1
 95 816 l 1,1,-1
 221 -81 l 1,2,-1
 126 -81 l 1,3,-1
 1 816 l 1,0,-1
EndSplineSet
Validated: 1
EndChar

StartChar: bar.uc
Encoding: 65644 -1 483
Width: 171
GlyphClass: 2
Flags: W
LayerCount: 2
Fore
SplineSet
131 -81 m 1,0,-1
 40 -81 l 1,1,-1
 40 816 l 1,2,-1
 131 816 l 1,3,-1
 131 -81 l 1,0,-1
EndSplineSet
Validated: 1
EndChar

StartChar: grave.uc
Encoding: 65646 -1 485
Width: 342
GlyphClass: 2
Flags: W
LayerCount: 2
Fore
SplineSet
245 770 m 1,0,-1
 141 770 l 1,1,-1
 97 885 l 1,2,-1
 202 885 l 1,3,-1
 245 770 l 1,0,-1
EndSplineSet
Validated: 1
EndChar

StartChar: dieresis.uc
Encoding: 65647 -1 486
Width: 342
GlyphClass: 2
Flags: W
LayerCount: 2
Fore
SplineSet
284 770 m 1,0,-1
 184 770 l 1,1,-1
 184 876 l 1,2,-1
 284 876 l 1,3,-1
 284 770 l 1,0,-1
159 770 m 1,4,-1
 59 770 l 1,5,-1
 59 876 l 1,6,-1
 159 876 l 1,7,-1
 159 770 l 1,4,-1
EndSplineSet
Validated: 1
EndChar

StartChar: macron.uc
Encoding: 65648 -1 487
Width: 342
GlyphClass: 2
Flags: W
LayerCount: 2
Fore
SplineSet
75 865 m 1,0,-1
 268 865 l 1,1,-1
 268 777 l 1,2,-1
 75 777 l 1,3,-1
 75 865 l 1,0,-1
EndSplineSet
Validated: 1
EndChar

StartChar: acute.uc
Encoding: 65649 -1 488
Width: 342
GlyphClass: 2
Flags: W
LayerCount: 2
Fore
SplineSet
139 885 m 1,0,-1
 245 885 l 1,1,-1
 200 770 l 1,2,-1
 96 770 l 1,3,-1
 139 885 l 1,0,-1
EndSplineSet
Validated: 1
EndChar

StartChar: circumflex.uc
Encoding: 65650 -1 489
Width: 342
GlyphClass: 2
Flags: W
LayerCount: 2
Fore
SplineSet
287 770 m 1,0,-1
 198 770 l 1,1,-1
 170 817 l 1,2,-1
 143 770 l 1,3,-1
 54 770 l 1,4,-1
 119 885 l 1,5,-1
 221 885 l 1,6,-1
 287 770 l 1,0,-1
EndSplineSet
Validated: 1
EndChar

StartChar: caron.uc
Encoding: 65651 -1 490
Width: 342
GlyphClass: 2
Flags: W
LayerCount: 2
Fore
SplineSet
54 885 m 1,0,-1
 144 885 l 1,1,-1
 171 837 l 1,2,-1
 198 885 l 1,3,-1
 287 885 l 1,4,-1
 221 770 l 1,5,-1
 120 770 l 1,6,-1
 54 885 l 1,0,-1
EndSplineSet
Validated: 1
EndChar

StartChar: breve.uc
Encoding: 65652 -1 491
Width: 342
GlyphClass: 2
Flags: W
LayerCount: 2
Fore
SplineSet
174 767 m 2,0,-1
 170 767 l 2,1,2
 124 767 124 767 93.5 794.5 c 128,-1,3
 63 822 63 822 63 870 c 2,4,-1
 63 875 l 1,5,-1
 148 875 l 1,6,-1
 148 872 l 2,7,8
 148 861 148 861 154 853.5 c 128,-1,9
 160 846 160 846 171 846 c 2,10,-1
 173 846 l 2,11,12
 184 846 184 846 190 853.5 c 128,-1,13
 196 861 196 861 196 872 c 2,14,-1
 196 875 l 1,15,-1
 280 875 l 1,16,-1
 280 870 l 2,17,18
 280 822 280 822 248.5 794.5 c 128,-1,19
 217 767 217 767 174 767 c 2,0,-1
EndSplineSet
Validated: 1
EndChar

StartChar: dotaccent.uc
Encoding: 65653 -1 492
Width: 342
GlyphClass: 2
Flags: W
LayerCount: 2
Fore
SplineSet
235 770 m 1,0,-1
 107 770 l 1,1,-1
 107 896 l 1,2,-1
 235 896 l 1,3,-1
 235 770 l 1,0,-1
EndSplineSet
Validated: 1
EndChar

StartChar: ring.uc
Encoding: 65654 -1 493
Width: 342
GlyphClass: 2
Flags: W
LayerCount: 2
Fore
SplineSet
171 811 m 256,0,1
 186 811 186 811 194.5 820.5 c 128,-1,2
 203 830 203 830 203 844 c 256,3,4
 203 858 203 858 194.5 867.5 c 128,-1,5
 186 877 186 877 171 877 c 256,6,7
 156 877 156 877 147.5 867.5 c 128,-1,8
 139 858 139 858 139 844 c 256,9,10
 139 830 139 830 147.5 820.5 c 128,-1,11
 156 811 156 811 171 811 c 256,0,1
171 765 m 256,12,13
 136 765 136 765 113.5 787 c 128,-1,14
 91 809 91 809 91 844 c 256,15,16
 91 879 91 879 113.5 901 c 128,-1,17
 136 923 136 923 171 923 c 256,18,19
 206 923 206 923 228.5 901 c 128,-1,20
 251 879 251 879 251 844 c 256,21,22
 251 809 251 809 228.5 787 c 128,-1,23
 206 765 206 765 171 765 c 256,12,13
EndSplineSet
Validated: 1
EndChar

StartChar: tilde.uc
Encoding: 65655 -1 494
Width: 342
GlyphClass: 2
Flags: W
LayerCount: 2
Fore
SplineSet
168 787 m 0,0,1
 159 791 159 791 153.5 793.5 c 128,-1,2
 148 796 148 796 143 796 c 0,3,4
 135 796 135 796 135 785 c 2,5,-1
 135 769 l 1,6,-1
 63 769 l 1,7,-1
 63 803 l 2,8,9
 63 841 63 841 78.5 860.5 c 128,-1,10
 94 880 94 880 120 880 c 0,11,12
 135 880 135 880 147 877 c 128,-1,13
 159 874 159 874 174 867 c 0,14,15
 187 861 187 861 192 859 c 128,-1,16
 197 857 197 857 201 857 c 0,17,18
 207 857 207 857 207 867 c 2,19,-1
 207 883 l 1,20,-1
 279 883 l 1,21,-1
 279 849 l 2,22,23
 279 807 279 807 260.5 790 c 128,-1,24
 242 773 242 773 222 773 c 0,25,26
 209 773 209 773 197 776 c 128,-1,27
 185 779 185 779 168 787 c 0,0,1
EndSplineSet
Validated: 1
EndChar

StartChar: hungarumlaut.uc
Encoding: 65656 -1 495
Width: 342
GlyphClass: 2
Flags: W
LayerCount: 2
Fore
SplineSet
82 885 m 1,0,-1
 172 885 l 1,1,-1
 145 770 l 1,2,-1
 58 770 l 1,3,-1
 82 885 l 1,0,-1
195 885 m 1,4,-1
 284 885 l 1,5,-1
 255 770 l 1,6,-1
 169 770 l 1,7,-1
 195 885 l 1,4,-1
EndSplineSet
Validated: 1
EndChar

StartChar: f.short
Encoding: 65658 -1 497
Width: 264
GlyphClass: 2
Flags: W
LayerCount: 2
Fore
SplineSet
255 631 m 1,0,-1
 213 631 l 2,1,2
 200 631 200 631 196.5 625.5 c 128,-1,3
 193 620 193 620 193 608 c 2,4,-1
 193 538 l 1,5,-1
 255 538 l 1,6,-1
 255 419 l 1,7,-1
 193 419 l 1,8,-1
 193 0 l 1,9,-1
 66 0 l 1,10,-1
 66 419 l 1,11,-1
 6 419 l 1,12,-1
 6 538 l 1,13,-1
 66 538 l 1,14,-1
 66 670 l 2,15,16
 66 683 66 683 70.5 696.5 c 128,-1,17
 75 710 75 710 85 720.5 c 128,-1,18
 95 731 95 731 110.5 737.5 c 128,-1,19
 126 744 126 744 148 744 c 2,20,-1
 255 744 l 1,21,-1
 255 631 l 1,0,-1
EndSplineSet
Validated: 1
EndChar

StartChar: f_f.short
Encoding: 65659 -1 498
Width: 475
GlyphClass: 3
Flags: W
LayerCount: 2
Fore
SplineSet
260 631 m 1,0,-1
 213 631 l 2,1,2
 200 631 200 631 196.5 625.5 c 128,-1,3
 193 620 193 620 193 608 c 2,4,-1
 193 538 l 1,5,-1
 277 538 l 1,6,-1
 277 670 l 2,7,8
 277 683 277 683 281.5 696.5 c 128,-1,9
 286 710 286 710 296 720.5 c 128,-1,10
 306 731 306 731 321.5 737.5 c 128,-1,11
 337 744 337 744 359 744 c 2,12,-1
 466 744 l 1,13,-1
 466 631 l 1,14,-1
 424 631 l 2,15,16
 411 631 411 631 407.5 625.5 c 128,-1,17
 404 620 404 620 404 608 c 2,18,-1
 404 538 l 1,19,-1
 466 538 l 1,20,-1
 466 419 l 1,21,-1
 404 419 l 1,22,-1
 404 0 l 1,23,-1
 277 0 l 1,24,-1
 277 419 l 1,25,-1
 193 419 l 1,26,-1
 193 0 l 1,27,-1
 66 0 l 1,28,-1
 66 419 l 1,29,-1
 6 419 l 1,30,-1
 6 538 l 1,31,-1
 66 538 l 1,32,-1
 66 670 l 2,33,34
 66 683 66 683 70.5 696.5 c 128,-1,35
 75 710 75 710 85 720.5 c 128,-1,36
 95 731 95 731 110.5 737.5 c 128,-1,37
 126 744 126 744 148 744 c 2,38,-1
 260 744 l 1,39,-1
 260 631 l 1,0,-1
EndSplineSet
Validated: 1
Ligature2: "'liga' Standard Ligatures in Latin lookup 26 subtable" f f.short
EndChar

StartChar: j.short
Encoding: 65660 -1 499
Width: 165
GlyphClass: 2
Flags: W
LayerCount: 2
Fore
SplineSet
147 564 m 1,0,-1
 19 564 l 1,1,-1
 19 690 l 1,2,-1
 147 690 l 1,3,-1
 147 564 l 1,0,-1
1 -69 m 2,4,5
 11 -69 11 -69 15 -65 c 128,-1,6
 19 -61 19 -61 19 -48 c 2,7,-1
 19 538 l 1,8,-1
 147 538 l 1,9,-1
 147 -116 l 2,10,11
 147 -145 147 -145 127.5 -166.5 c 128,-1,12
 108 -188 108 -188 73 -188 c 2,13,-1
 -26 -188 l 1,14,-1
 -26 -69 l 1,15,-1
 1 -69 l 2,4,5
EndSplineSet
Validated: 1
EndChar
